<?xml version="1.0" encoding="UTF-8"?>
<svg id="Layer_2" data-name="Layer 2" xmlns="http://www.w3.org/2000/svg" xmlns:xlink="http://www.w3.org/1999/xlink" viewBox="0 0 37.73 36.72">
  <defs>
    <style>
      .cls-1 {
        fill: #fff;
      }
    </style>
    <symbol id="Arrow" viewBox="0 0 21.05 21.63">
      <path id="Down" class="cls-1" d="M21.05,1.52v.45l-.14.45c-2.77,3.62-5.81,7.05-8.67,10.61-.73.94-1.94,1.07-2.8.21L.54,3.02C.27,2.71.1,2.38,0,1.98c.01-.15-.02-.31,0-.45C.1.77.79.08,1.55,0h17.84c.82.02,1.56.72,1.66,1.52ZM19.57,7.83c-.69.84-1.38,1.67-2.07,2.49-1.14,1.37-2.32,2.78-3.45,4.18-.81,1.04-2.03,1.66-3.31,1.66-1.1,0-2.15-.45-2.96-1.27l-.05-.05L1.62,7.81h-.07c-.76.08-1.45.77-1.54,1.52-.02.14.01.31,0,.45.09.41.26.74.54,1.05l8.9,10.22c.86.87,2.06.73,2.8-.21,2.86-3.56,5.91-6.99,8.67-10.61l.14-.45v-.45c-.09-.74-.74-1.39-1.48-1.5Z"/>
    </symbol>
  </defs>
  <g id="MainMenu">
    <g id="Reset_Laser" data-name="Reset Laser">
      <use width="21.05" height="21.63" transform="translate(0 36.72) rotate(-90) scale(1.74)" xlink:href="#Arrow"/>
    </g>
  </g>
</svg>