<?xml version="1.0" encoding="UTF-8"?>
<svg id="Layer_2" data-name="Layer 2" xmlns="http://www.w3.org/2000/svg" viewBox="0 0 85.3 85.3">
  <defs>
    <style>
      .cls-1 {
        fill: #5bbc70;
      }

      .cls-2 {
        fill-rule: evenodd;
      }
    </style>
  </defs>
  <g id="MainMenu">
    <g id="How_to_Play" data-name="How to Play">
      <circle class="cls-1" cx="42.65" cy="42.65" r="42.65"/>
      <path class="cls-2" d="M37.33,50.42c-.16-.08-.42-.22-.77-.43-.35-.2-.72-.43-1.1-.67-.39-.25-.76-.47-1.1-.67-.35-.2-.58-.35-.71-.43-.16-.12-.37-.32-.61-.58-.25-.27-.49-.54-.74-.83-.25-.29-.46-.56-.64-.83-.18-.26-.28-.48-.28-.64-.08-.78.15-1.57.71-2.39.55-.82,1.27-1.67,2.15-2.54.88-.88,1.83-1.79,2.85-2.73,1.02-.94,1.98-1.94,2.88-3,.9-1.06,1.66-2.21,2.27-3.43s.92-2.53.92-3.92c0-.16-.01-.36-.03-.58-.02-.22-.07-.43-.15-.61-.08-.18-.21-.33-.37-.43-.16-.1-.39-.11-.67-.03-.08.04-.29.26-.61.64-.33.39-.69.81-1.07,1.26-.39.45-.75.88-1.07,1.29-.33.41-.55.67-.67.8-.08.12-.23.3-.43.52-.21.23-.43.46-.67.71-.25.25-.48.48-.71.71-.23.23-.4.38-.52.46,0-.08-.07-.12-.21-.12s-.24.04-.28.12c-.08,0-.25.03-.49.09-.25.06-.51.12-.8.18-.29.06-.56.11-.83.15-.27.04-.42.06-.46.06h-.12c-1.31,0-2.37-.19-3.19-.58-.82-.39-1.62-1.05-2.39-1.99v-1.29c0-1.88.61-3.56,1.84-5.03,1.23-1.47,2.71-2.77,4.45-3.89,1.74-1.12,3.59-2.07,5.55-2.85,1.96-.78,3.68-1.39,5.15-1.84h1.53c3.07,0,5.4.75,6.99,2.24,1.59,1.49,2.39,3.81,2.39,6.96-.12,1.55-.42,3.12-.89,4.69-.47,1.57-1.07,3.1-1.81,4.57s-1.58,2.87-2.54,4.2c-.96,1.33-1.95,2.5-2.97,3.53.2,0,.45.16.74.49.29.33.55.71.8,1.17s.45.9.61,1.35c.16.45.25.82.25,1.1,0,.37-.15.96-.46,1.78-.31.82-.67,1.65-1.1,2.48s-.89,1.57-1.38,2.21c-.49.63-.92.95-1.29.95-.33,0-.55-.04-.67-.12-.12-.08-.41-.12-.86-.12-.49,0-.92.04-1.29.12-.37.08-.78.12-1.23.12-1.06,0-1.84-.14-2.33-.43-.49-.29-1-.92-1.53-1.9ZM35.31,69.49c0-1.06.21-2.02.64-2.88s1-1.6,1.72-2.24c.71-.63,1.52-1.17,2.42-1.62.9-.45,1.82-.8,2.76-1.04.25-.08.51-.2.8-.37.29-.16.59-.25.92-.25.78,0,1.44.21,1.99.64.55.43,1.11.89,1.69,1.38h.37s.21.22.52.67c.31.45.5.82.58,1.1v1.1c0,1.23-.23,2.33-.67,3.31-.45.98-1.06,1.8-1.84,2.45-.78.65-1.69,1.16-2.73,1.5-1.04.35-2.14.52-3.28.52-.65,0-1.33-.08-2.02-.25-.7-.16-1.33-.42-1.9-.77-.57-.35-1.04-.79-1.41-1.32-.37-.53-.55-1.19-.55-1.96Z"/>
    </g>
  </g>
</svg>