<?xml version="1.0" encoding="UTF-8"?>
<svg id="Layer_2" data-name="Layer 2" xmlns="http://www.w3.org/2000/svg" viewBox="0 0 85.3 85.3">
  <defs>
    <style>
      .cls-1 {
        fill: #5bbc70;
      }
    </style>
  </defs>
  <g id="MainMenu">
    <g id="Settings">
      <circle class="cls-1" cx="42.65" cy="42.65" r="42.65"/>
      <path d="M31.48,10.25c1.31-.22,2.74.1,3.77.94.53.43.76,1.11,1.28,1.57,3.07,2.69,6.81,3.17,10.41,1.27,2.93-1.54,3.23-4.63,7.35-3.65,2.47.59,8.3,3.99,10.15,5.79,3.3,3.22.52,5.23.71,8.67.17,3.07,2.34,6.18,5.12,7.42,2.12.95,4.78.73,5.84,3.27s.95,10.11.24,12.77c-1.23,4.62-4.11,3.02-7.31,4.93-2.36,1.42-4.2,4.72-4.2,7.5s1.94,4.09.64,6.88c-1.06,2.28-8.15,6.41-10.64,7.02-3.9.96-4.47-2.07-6.97-3.74-2.65-1.77-6.22-1.75-9.02-.28-3.07,1.61-3.15,5.19-7.61,4.38-2.27-.42-8.91-4.29-10.53-5.98-2.69-2.79-.66-4.28-.3-6.87.55-3.94-1.21-8.15-4.99-9.77-2.48-1.06-5.42-.37-6.52-3.73-.83-2.52-.68-11.58.66-13.88,1.2-2.06,3.02-1.68,4.85-2.27,4.19-1.36,6.81-5.14,6.29-9.6-.29-2.49-1.96-4.37.32-6.86,1.42-1.56,8.41-5.43,10.46-5.77ZM42.32,31.33c-14.67.42-14.14,22.83.44,22.69,14.84-.14,14.53-23.12-.44-22.69Z"/>
    </g>
  </g>
</svg>