<?xml version="1.0" encoding="UTF-8"?>
<svg id="Layer_2" data-name="Layer 2" xmlns="http://www.w3.org/2000/svg" viewBox="0 0 614.13 423.89">
  <defs>
    <style>
      .cls-1, .cls-2 {
        fill: #59acae;
      }

      .cls-2, .cls-3, .cls-4 {
        fill-rule: evenodd;
      }

      .cls-5 {
        letter-spacing: 0em;
      }

      .cls-6 {
        letter-spacing: -.04em;
      }

      .cls-3 {
        fill: #616a79;
      }

      .cls-7 {
        letter-spacing: 0em;
      }

      .cls-8 {
        letter-spacing: .02em;
      }

      .cls-9 {
        font-size: 19.19px;
      }

      .cls-9, .cls-10 {
        fill: #aad9d9;
        font-family: AmazonEmber-Regular, 'Amazon Ember';
      }

      .cls-4 {
        fill: #0f1829;
      }

      .cls-11 {
        letter-spacing: 0em;
      }

      .cls-10 {
        font-size: 15.7px;
      }

      .cls-12 {
        letter-spacing: -.04em;
      }
    </style>
  </defs>
  <g id="MainMenu">
    <g id="Console_Base" data-name="Console Base">
      <polygon class="cls-4" points="25.68 365.64 38.04 423.89 576.09 423.89 588.45 365.64 25.68 365.64"/>
      <path class="cls-3" d="M599.08,365.64l14.87-84.85c.65-3.69-2.19-7.08-5.94-7.08H6.12c-3.75,0-6.59,3.38-5.94,7.08l14.87,84.85h584.04Z"/>
      <path class="cls-2" d="M566.96,0H47.17L.09,283.09c-.6,3.61,2,6.92,5.44,6.92h603.07c3.44,0,6.04-3.31,5.44-6.92L566.96,0Z"/>
      <text class="cls-10" transform="translate(67.12 413.69)"><tspan class="cls-6" x="0" y="0">V</tspan><tspan x="9.49" y="0">ersion </tspan><tspan class="cls-8" x="56.85" y="0">X.X.</tspan><tspan x="84.82" y="0">X</tspan></text>
      <text class="cls-10" transform="translate(425.67 413.69)"><tspan x="0" y="0">Muz</tspan><tspan class="cls-5" x="29.67" y="0">z</tspan><tspan x="37.29" y="0">yMade @ 2026</tspan></text>
      <text class="cls-9" transform="translate(246.42 414.53)"><tspan x="0" y="0">ARE </tspan><tspan class="cls-12" x="39.84" y="0">Y</tspan><tspan class="cls-7" x="50.56" y="0">OU </tspan><tspan class="cls-11" x="84.02" y="0">S</tspan><tspan x="94.77" y="0">URE?</tspan></text>
      <path id="Trashcan" class="cls-1" d="M221.18,399.15h14.55c.46.03.69.29.64.76-.31,4-.59,8.01-.9,12.01-.06.77-.07,1.57-.15,2.34-.11,1.05-.67,1.79-1.71,2.04-3.3.1-6.62.01-9.93.04-1.09-.07-1.91-.88-2.02-1.96-.27-3.77-.54-7.55-.81-11.32-.07-.99-.2-2.01-.24-3-.02-.48,0-.84.56-.9ZM224.18,400.88c-.13.03-.32.22-.34.34-.06.31.02.81.02,1.13.07,2.82.18,5.63.27,8.45.03.82-.01,1.72.06,2.52.06.73.96.7,1.02.03.03-.37-.05-.93-.06-1.32-.09-3.11-.18-6.23-.3-9.34-.02-.43.03-1-.03-1.41-.05-.3-.35-.46-.64-.4ZM228.37,400.88c-.23.04-.37.26-.38.49v11.98c.06.72,1.03.63,1.02-.06v-11.86c-.02-.37-.26-.61-.64-.55ZM232.65,413.71s.11-.18.12-.22c.02-.1.03-.35.04-.47.12-2.38.11-4.77.18-7.16.04-1.46.15-2.94.15-4.4,0-.34-.17-.59-.53-.59-.64.01-.48.79-.49,1.22-.11,3.13-.19,6.27-.27,9.4-.01.58-.11,1.32-.06,1.89.04.44.56.63.86.33ZM223.92,394.96c.1-1,1.08-1.87,2.08-1.9,1.7.08,3.5-.11,5.18,0,.98.06,2.11.92,2.11,1.96v.7s.08-.03.13-.03c.58-.01,1.22-.02,1.8,0,.74.02,1.37.09,1.77.81.26.46.44,1.47-.25,1.64h-16.41c-.8-.06-.59-1.21-.31-1.68.25-.42.8-.77,1.3-.77h2.55s.02.04.04.03c.02-.25-.02-.52,0-.76ZM231.97,395.72v-.64s-.09-.24-.11-.28c-.15-.27-.43-.41-.74-.43-1.65-.12-3.45.09-5.12,0-.28-.02-.77.41-.77.67v.67h6.74Z"/>
    </g>
  </g>
</svg>