<?xml version="1.0" encoding="UTF-8"?>
<svg id="Layer_2" data-name="Layer 2" xmlns="http://www.w3.org/2000/svg" viewBox="0 0 612.95 383.68">
  <defs>
    <style>
      .cls-1 {
        fill: #35385b;
      }

      .cls-1, .cls-2, .cls-3, .cls-4, .cls-5, .cls-6, .cls-7 {
        fill-rule: evenodd;
      }

      .cls-8 {
        fill: #fff;
      }

      .cls-9 {
        fill: #d36b28;
      }

      .cls-10 {
        fill: #eebfc5;
      }

      .cls-11 {
        font-size: 34.88px;
      }

      .cls-11, .cls-12 {
        fill: #6acbda;
      }

      .cls-11, .cls-13 {
        font-family: AmazonEmber-Heavy, 'Amazon Ember';
        font-weight: 800;
      }

      .cls-14 {
        letter-spacing: -.05em;
      }

      .cls-2 {
        fill: #474871;
      }

      .cls-12 {
        font-size: 20.93px;
      }

      .cls-12, .cls-15 {
        font-family: AmazonEmber-Regular, 'Amazon Ember';
      }

      .cls-16 {
        fill: #1d1d3a;
      }

      .cls-17 {
        letter-spacing: .02em;
      }

      .cls-18 {
        fill: #1f1f38;
      }

      .cls-3 {
        fill: #616a79;
      }

      .cls-4 {
        fill: #aad9d9;
      }

      .cls-5 {
        fill: #d8672b;
      }

      .cls-6 {
        fill: #231f20;
      }

      .cls-19 {
        fill: #5bbc70;
      }

      .cls-20 {
        letter-spacing: .02em;
      }

      .cls-21 {
        fill: #59acae;
        font-size: 17.44px;
      }

      .cls-22 {
        letter-spacing: -.03em;
      }

      .cls-7 {
        fill: #f8aaa1;
      }
    </style>
  </defs>
  <g id="MainMenu">
    <g>
      <g id="Console_Back" data-name="Console Back">
        <path class="cls-3" d="M597.13,32.56H15.82C6.56,32.56-.51,40.11.03,49.42l18.54,321.98c.39,6.78,5.81,12.28,12.11,12.28h551.59c6.3,0,11.72-5.5,12.11-12.28l18.54-321.98c.54-9.31-6.53-16.86-15.79-16.86Z"/>
        <path class="cls-4" d="M604.74,37.21H8.21c-3.37,0-5.34-4.05-3.17-6.52L23.09,10.16C28.83,3.68,37.14,0,46.03,0h520.89c8.89,0,17.2,3.68,22.94,10.16l18.06,20.52c2.17,2.47.19,6.52-3.17,6.52Z"/>
        <path class="cls-16" d="M536.44,362.92H76.51c-21.64,0-40.25-18.8-41.48-41.9l-11.76-220.89c-.6-11.35,3.24-22,10.81-29.99,7.45-7.85,17.63-12.18,28.67-12.18h487.46c11.04,0,21.22,4.33,28.67,12.18,7.58,7.99,11.41,18.64,10.81,29.99l-11.76,220.89c-1.23,23.1-19.84,41.9-41.48,41.9ZM62.75,62.96c-9.65,0-18.55,3.77-25.04,10.62-6.62,6.98-9.98,16.32-9.45,26.28l11.76,220.89c1.09,20.49,17.46,37.17,36.49,37.17h459.93c19.03,0,35.4-16.67,36.49-37.17l11.76-220.89c.53-9.96-2.82-19.3-9.45-26.28-6.49-6.85-15.39-10.62-25.04-10.62H62.75Z"/>
        <path class="cls-1" d="M550.2,60.46H62.75c-21.59,0-38.15,17.7-36.98,39.53l11.76,220.89c1.16,21.83,18.62,39.53,38.99,39.53h459.93c20.37,0,37.82-17.7,38.99-39.53l11.76-220.89c1.16-21.83-15.4-39.53-36.98-39.53Z"/>
        <path class="cls-2" d="M549.56,74.42H63.39c-21.53,0-38.04,17.7-36.88,39.53l11.02,206.94c1.16,21.83,18.62,39.53,38.99,39.53h459.93c20.37,0,37.82-17.7,38.99-39.53l11.02-206.94c1.16-21.83-15.35-39.53-36.88-39.53Z"/>
      </g>
      <g id="Operator_Rank_-_meter" data-name="Operator Rank - meter">
        <path class="cls-19" d="M540.77,147.84H74.51c-5.73,0-10.38-4.66-10.38-10.38s4.66-10.38,10.38-10.38h466.26c5.73,0,10.38,4.66,10.38,10.38s-4.66,10.38-10.38,10.38ZM74.51,128.07c-5.17,0-9.38,4.21-9.38,9.38s4.21,9.38,9.38,9.38h466.26c5.17,0,9.38-4.21,9.38-9.38s-4.21-9.38-9.38-9.38H74.51Z"/>
        <path id="Meter_Fill" data-name="Meter Fill" class="cls-19" d="M74.51,127.57h363.9c.66,0,1.2.54,1.2,1.2v17.36c0,.66-.54,1.2-1.2,1.2H74.51c-5.45,0-9.88-4.43-9.88-9.88h0c0-5.45,4.43-9.88,9.88-9.88Z"/>
        <text class="cls-21" transform="translate(384.64 111.95)"><tspan class="cls-15" x="0" y="0" xml:space="preserve">10,347 / 12,500  </tspan><tspan class="cls-13" x="137.32" y="0">XP</tspan></text>
        <text class="cls-11" transform="translate(239.35 115.28)"><tspan x="0" y="0">2</tspan></text>
        <text class="cls-12" transform="translate(65.42 113.79)"><tspan x="0" y="0">OPE</tspan><tspan class="cls-20" x="40.54" y="0">R</tspan><tspan class="cls-14" x="53.68" y="0">A</tspan><tspan class="cls-22" x="66.07" y="0">T</tspan><tspan x="77.45" y="0">OR </tspan><tspan class="cls-20" x="112.01" y="0">R</tspan><tspan x="125.16" y="0">ANK</tspan></text>
      </g>
      <g id="Reset_Laser" data-name="Reset Laser">
        <rect class="cls-10" x="147.39" y="119.97" width="50.51" height="175.86" rx="6.92" ry="6.92" transform="translate(380.55 35.26) rotate(90)"/>
        <path class="cls-7" d="M157.91,233.16h-4.24l-18.69-18.69c-3.62-3.62-3.62-9.52,0-13.14l18.69-18.69h4.24l-20.81,20.81c-2.45,2.45-2.45,6.44,0,8.89l20.81,20.81ZM111.51,212.35c-2.45-2.45-2.45-6.44,0-8.89l20.81-20.81h-4.24l-18.69,18.69c-1.75,1.75-2.72,4.09-2.72,6.57s.97,4.81,2.72,6.57l18.69,18.69h4.24l-20.81-20.81ZM107.64,182.65h-4.24l-18.68,18.68v13.15l18.68,18.68h4.24l-20.81-20.81c-2.45-2.45-2.45-6.44,0-8.89l20.81-20.81ZM235.4,214.47c3.62-3.62,3.62-9.52,0-13.14l-18.69-18.69h-4.24l20.81,20.81c2.45,2.45,2.45,6.44,0,8.89l-20.81,20.81h4.24l18.69-18.69ZM186.88,233.16h4.24l18.69-18.69c1.75-1.75,2.72-4.09,2.72-6.57s-.97-4.81-2.72-6.57l-18.69-18.69h-4.24l20.81,20.81c2.45,2.45,2.45,6.44,0,8.89l-20.81,20.81ZM260.08,214.47c.17-.17.33-.36.49-.54v-12.05c-.16-.19-.32-.37-.49-.54l-18.69-18.69h-4.24l20.81,20.81c2.45,2.45,2.45,6.44,0,8.89l-20.81,20.81h4.24l18.69-18.69Z"/>
        <rect class="cls-9" x="84.47" y="182.79" width="50.23" height="50.23" rx="3.69" ry="3.69" transform="translate(317.48 98.32) rotate(90)"/>
        <path class="cls-8" d="M124.79,226.17h-.79l-.79-.25c-6.32-4.83-12.3-10.14-18.51-15.13-1.63-1.28-1.87-3.38-.36-4.88l17.83-15.52c.54-.48,1.12-.78,1.83-.93.25.02.54-.03.79,0,1.32.16,2.52,1.37,2.65,2.69v31.12c-.04,1.43-1.25,2.72-2.65,2.9ZM113.78,223.59c-1.46-1.21-2.91-2.42-4.34-3.61-2.38-1.99-4.84-4.05-7.29-6.02-1.82-1.42-2.89-3.54-2.89-5.77,0-1.91.78-3.75,2.21-5.16l.09-.09,12.24-10.66v-.12c-.13-1.32-1.34-2.53-2.65-2.69-.25-.03-.54.02-.79,0-.71.16-1.28.45-1.83.93l-17.83,15.52c-1.51,1.5-1.28,3.6.36,4.88,6.21,4.99,12.19,10.3,18.51,15.13l.79.25h.79c1.3-.16,2.42-1.28,2.62-2.58Z"/>
        <path class="cls-6" d="M280.92,219.43c-6.36,0-11.53-5.17-11.53-11.53s5.17-11.53,11.53-11.53,11.54,5.17,11.54,11.53-5.17,11.53-11.53,11.53h0Z"/>
        <path class="cls-18" d="M280.93,197.87c5.54,0,10.03,4.49,10.03,10.03s-4.49,10.03-10.03,10.03h0c-5.54,0-10.03-4.49-10.03-10.03s4.49-10.03,10.03-10.03h0M280.93,194.87h0c-7.19,0-13.03,5.85-13.03,13.03s5.85,13.03,13.03,13.03,13.04-5.85,13.04-13.03-5.85-13.03-13.03-13.03h0Z"/>
        <path class="cls-5" d="M63.6,219.43c-6.36,0-11.53-5.17-11.53-11.53s5.17-11.53,11.53-11.53,11.54,5.17,11.54,11.53-5.17,11.53-11.53,11.53h0Z"/>
        <path class="cls-18" d="M63.61,197.87c5.54,0,10.03,4.49,10.03,10.03s-4.49,10.03-10.03,10.03h0c-5.54,0-10.03-4.49-10.03-10.03s4.49-10.03,10.03-10.03h0M63.61,194.87h0c-7.19,0-13.03,5.85-13.03,13.03s5.85,13.03,13.03,13.03,13.04-5.85,13.04-13.03-5.85-13.03-13.03-13.03h0Z"/>
        <rect class="cls-10" x="147.39" y="210.85" width="50.51" height="175.86" rx="6.92" ry="6.92" transform="translate(471.43 126.14) rotate(90)"/>
        <path class="cls-7" d="M132.32,324.04h-4.24l-18.69-18.69c-1.75-1.75-2.72-4.09-2.72-6.57s.97-4.81,2.72-6.57l18.69-18.69h4.24l-20.81,20.81c-2.45,2.45-2.45,6.44,0,8.89l20.81,20.81ZM137.1,303.23c-2.45-2.45-2.45-6.44,0-8.89l20.81-20.81h-4.24l-18.69,18.69c-3.62,3.62-3.62,9.52,0,13.14l18.69,18.69h4.24l-20.81-20.81ZM107.64,273.53h-4.24l-18.68,18.68v13.15l18.68,18.68h4.24l-20.81-20.81c-2.45-2.45-2.45-6.44,0-8.89l20.81-20.81ZM260.08,305.35c.18-.18.34-.36.49-.55v-12.04c-.16-.19-.32-.37-.49-.55l-18.69-18.69h-4.24l20.81,20.81c2.45,2.45,2.45,6.44,0,8.89l-20.81,20.81h4.24l18.69-18.69ZM186.88,324.04h4.24l18.69-18.69c3.62-3.62,3.62-9.52,0-13.14l-18.69-18.69h-4.24l20.81,20.81c1.19,1.19,1.84,2.77,1.84,4.45s-.65,3.26-1.84,4.45l-20.81,20.81ZM235.4,305.35c3.62-3.62,3.62-9.52,0-13.14l-18.69-18.69h-4.24l20.81,20.81c2.45,2.45,2.45,6.44,0,8.89l-20.81,20.81h4.24l18.69-18.69Z"/>
        <rect class="cls-9" x="84.47" y="273.67" width="50.23" height="50.23" rx="3.69" ry="3.69" transform="translate(408.36 189.2) rotate(90)"/>
        <path class="cls-8" d="M125.69,317.04h-.79l-.79-.25c-6.32-4.83-12.3-10.14-18.51-15.13-1.63-1.28-1.87-3.38-.36-4.88l17.83-15.52c.54-.48,1.12-.78,1.83-.93.25.02.54-.03.79,0,1.32.16,2.52,1.37,2.65,2.69v31.12c-.04,1.43-1.25,2.72-2.65,2.9ZM114.68,314.46c-1.46-1.21-2.91-2.42-4.34-3.61-2.38-1.99-4.84-4.05-7.29-6.02-1.82-1.42-2.89-3.54-2.89-5.77,0-1.91.78-3.75,2.21-5.16l.09-.09,12.24-10.66v-.12c-.13-1.32-1.34-2.53-2.65-2.69-.25-.03-.54.02-.79,0-.71.16-1.28.45-1.83.93l-17.83,15.52c-1.51,1.5-1.28,3.6.36,4.88,6.21,4.99,12.19,10.3,18.51,15.13l.79.25h.79c1.3-.16,2.42-1.28,2.62-2.58Z"/>
        <path class="cls-6" d="M280.92,310.32c-6.36,0-11.53-5.17-11.53-11.53s5.17-11.53,11.53-11.53,11.54,5.17,11.54,11.53-5.17,11.53-11.53,11.53h0Z"/>
        <path class="cls-18" d="M280.93,288.75c5.54,0,10.03,4.49,10.03,10.03s-4.49,10.03-10.03,10.03h0c-5.54,0-10.03-4.49-10.03-10.03s4.49-10.03,10.03-10.03h0M280.93,285.75h0c-7.19,0-13.03,5.85-13.03,13.03s5.85,13.03,13.03,13.03,13.04-5.85,13.04-13.03-5.85-13.03-13.03-13.03h0Z"/>
        <path class="cls-5" d="M63.6,310.32c-6.36,0-11.53-5.17-11.53-11.53s5.17-11.53,11.53-11.53,11.54,5.17,11.54,11.53-5.17,11.53-11.53,11.53h0Z"/>
        <path class="cls-18" d="M63.61,288.75c5.54,0,10.03,4.49,10.03,10.03s-4.49,10.03-10.03,10.03h0c-5.54,0-10.03-4.49-10.03-10.03s4.49-10.03,10.03-10.03h0M63.61,285.75h0c-7.19,0-13.03,5.85-13.03,13.03s5.85,13.03,13.03,13.03,13.04-5.85,13.04-13.03-5.85-13.03-13.03-13.03h0Z"/>
        <rect class="cls-10" x="419.99" y="119.97" width="50.51" height="175.86" rx="6.92" ry="6.92" transform="translate(653.14 -237.34) rotate(90)"/>
        <path class="cls-7" d="M431,233.16h-4.24l-18.69-18.69c-3.62-3.62-3.62-9.52,0-13.14l18.69-18.69h4.24l-20.81,20.81c-1.19,1.19-1.84,2.77-1.84,4.45s.65,3.26,1.84,4.45l20.81,20.81ZM384.61,212.35c-2.45-2.45-2.45-6.44,0-8.89l20.81-20.81h-4.24l-18.69,18.69c-1.75,1.75-2.72,4.09-2.72,6.57s.97,4.81,2.72,6.57l18.69,18.69h4.24l-20.81-20.81ZM380.74,182.65h-4.24l-18.69,18.69c-.18.18-.33.36-.49.55v12.05c.16.19.32.37.49.55l18.69,18.69h4.24l-20.81-20.81c-2.45-2.45-2.45-6.44,0-8.89l20.81-20.81ZM459.98,233.16h4.24l18.69-18.69c3.62-3.62,3.62-9.52,0-13.14l-18.69-18.69h-4.24l20.81,20.81c1.19,1.19,1.84,2.77,1.84,4.45s-.65,3.26-1.84,4.45l-20.81,20.81ZM508.5,214.47c3.62-3.62,3.62-9.51,0-13.14l-18.69-18.69h-4.24l20.81,20.81c2.45,2.45,2.45,6.44,0,8.89l-20.81,20.81h4.24l18.69-18.69ZM533.17,214.48v-13.15l-18.68-18.68h-4.24l20.81,20.81c2.45,2.45,2.45,6.44,0,8.89l-20.81,20.81h4.24l18.68-18.68Z"/>
        <rect class="cls-9" x="420.13" y="182.79" width="50.23" height="50.23" rx="3.69" ry="3.69" transform="translate(653.14 -237.34) rotate(90)"/>
        <path class="cls-6" d="M336.96,219.43c-6.36,0-11.53-5.17-11.53-11.53s5.17-11.53,11.53-11.53,11.54,5.17,11.54,11.53-5.17,11.53-11.53,11.53h0Z"/>
        <path class="cls-18" d="M336.97,197.87c5.54,0,10.03,4.49,10.03,10.03s-4.49,10.03-10.03,10.03h0c-5.54,0-10.03-4.49-10.03-10.03s4.49-10.03,10.03-10.03h0M336.97,194.87h0c-7.19,0-13.03,5.85-13.03,13.03s5.85,13.03,13.03,13.03,13.04-5.85,13.04-13.03-5.85-13.03-13.03-13.03h0Z"/>
        <path class="cls-6" d="M554.28,219.43c-6.36,0-11.53-5.17-11.53-11.53s5.17-11.53,11.53-11.53,11.54,5.17,11.54,11.53-5.17,11.53-11.53,11.53h0Z"/>
        <path class="cls-18" d="M554.29,197.87c5.54,0,10.03,4.49,10.03,10.03s-4.49,10.03-10.03,10.03h0c-5.54,0-10.03-4.49-10.03-10.03s4.49-10.03,10.03-10.03h0M554.29,194.87h0c-7.19,0-13.03,5.85-13.03,13.03s5.85,13.03,13.03,13.03,13.04-5.85,13.04-13.03-5.85-13.03-13.03-13.03h0Z"/>
        <rect class="cls-10" x="419.99" y="210.85" width="50.51" height="175.86" rx="6.92" ry="6.92" transform="translate(744.02 -146.46) rotate(90)"/>
        <path class="cls-7" d="M405.41,324.04h-4.24l-18.69-18.69c-1.75-1.75-2.72-4.09-2.72-6.57s.97-4.81,2.72-6.57l18.69-18.69h4.24l-20.81,20.81c-2.45,2.45-2.45,6.44,0,8.89l20.81,20.81ZM410.2,303.23c-1.19-1.19-1.84-2.77-1.84-4.45s.65-3.26,1.84-4.45l20.81-20.81h-4.24l-18.69,18.69c-3.62,3.62-3.62,9.52,0,13.14l18.69,18.69h4.24l-20.81-20.81ZM380.74,273.53h-4.24l-18.69,18.69c-.18.18-.33.36-.49.55v12.05c.16.19.32.37.49.55l18.69,18.69h4.24l-20.81-20.81c-2.45-2.45-2.45-6.44,0-8.89l20.81-20.81ZM533.17,305.36v-13.15l-18.68-18.68h-4.24l20.81,20.81c2.45,2.45,2.45,6.44,0,8.89l-20.81,20.81h4.24l18.68-18.68ZM508.5,305.35c3.62-3.62,3.62-9.51,0-13.14l-18.69-18.69h-4.24l20.81,20.81c2.45,2.45,2.45,6.44,0,8.89l-20.81,20.81h4.24l18.69-18.69ZM459.98,324.04h4.24l18.69-18.69c3.62-3.62,3.62-9.52,0-13.14l-18.69-18.69h-4.24l20.81,20.81c1.19,1.19,1.84,2.77,1.84,4.45s-.65,3.26-1.84,4.45l-20.81,20.81Z"/>
        <rect class="cls-9" x="483.04" y="273.67" width="50.23" height="50.23" rx="3.69" ry="3.69" transform="translate(806.94 -209.38) rotate(90)"/>
        <path class="cls-8" d="M491.85,280.32h.79l.79.25c6.32,4.83,12.3,10.14,18.51,15.13,1.63,1.28,1.87,3.38.36,4.88l-17.83,15.52c-.54.48-1.12.78-1.83.93-.25-.02-.54.03-.79,0-1.32-.16-2.52-1.37-2.65-2.69v-31.12c.04-1.43,1.25-2.72,2.65-2.9ZM502.85,282.9c1.46,1.21,2.91,2.42,4.34,3.61,2.38,1.99,4.84,4.05,7.29,6.02,1.82,1.42,2.89,3.54,2.89,5.77,0,1.91-.78,3.75-2.21,5.16l-.09.09-12.24,10.66v.12c.13,1.32,1.34,2.53,2.65,2.69.25.03.54-.02.79,0,.71-.16,1.28-.45,1.83-.93l17.83-15.52c1.51-1.5,1.28-3.6-.36-4.88-6.21-4.99-12.19-10.3-18.51-15.13l-.79-.25h-.79c-1.3.16-2.42,1.28-2.62,2.58Z"/>
        <path class="cls-6" d="M336.96,310.32c-6.36,0-11.53-5.17-11.53-11.53s5.17-11.53,11.53-11.53,11.54,5.17,11.54,11.53-5.17,11.53-11.53,11.53h0Z"/>
        <path class="cls-18" d="M336.97,288.75c5.54,0,10.03,4.49,10.03,10.03s-4.49,10.03-10.03,10.03h0c-5.54,0-10.03-4.49-10.03-10.03s4.49-10.03,10.03-10.03h0M336.97,285.75h0c-7.19,0-13.03,5.85-13.03,13.03s5.85,13.03,13.03,13.03,13.04-5.85,13.04-13.03-5.85-13.03-13.03-13.03h0Z"/>
        <path class="cls-5" d="M554.28,310.32c-6.36,0-11.53-5.17-11.53-11.53s5.17-11.53,11.53-11.53,11.54,5.17,11.54,11.53-5.17,11.53-11.53,11.53h0Z"/>
        <path class="cls-18" d="M554.29,288.75c5.54,0,10.03,4.49,10.03,10.03s-4.49,10.03-10.03,10.03h0c-5.54,0-10.03-4.49-10.03-10.03s4.49-10.03,10.03-10.03h0M554.29,285.75h0c-7.19,0-13.03,5.85-13.03,13.03s5.85,13.03,13.03,13.03,13.04-5.85,13.04-13.03-5.85-13.03-13.03-13.03h0Z"/>
        <text class="cls-12" transform="translate(245.29 261.57)"><tspan x="0" y="0">RESET </tspan><tspan class="cls-17" x="65.7" y="0">L</tspan><tspan x="77.19" y="0">ASER</tspan></text>
      </g>
    </g>
  </g>
</svg>