<?xml version="1.0" encoding="UTF-8"?>
<svg id="Layer_2" data-name="Layer 2" xmlns="http://www.w3.org/2000/svg" viewBox="0 0 612.95 383.68">
  <defs>
    <style>
      .cls-1 {
        fill: #35385b;
      }

      .cls-1, .cls-2, .cls-3, .cls-4 {
        fill-rule: evenodd;
      }

      .cls-2 {
        fill: #474871;
      }

      .cls-5 {
        fill: #1d1d3a;
      }

      .cls-3 {
        fill: #616a79;
      }

      .cls-4 {
        fill: #aad9d9;
      }
    </style>
  </defs>
  <g id="MainMenu">
    <g id="Console_Back" data-name="Console Back">
      <path class="cls-3" d="M597.13,32.56H15.82C6.56,32.56-.51,40.11.03,49.42l18.54,321.98c.39,6.78,5.81,12.28,12.11,12.28h551.59c6.3,0,11.72-5.5,12.11-12.28l18.54-321.98c.54-9.31-6.53-16.86-15.79-16.86Z"/>
      <path class="cls-4" d="M604.74,37.21H8.21c-3.37,0-5.34-4.05-3.17-6.52L23.09,10.16C28.83,3.68,37.14,0,46.03,0h520.89c8.89,0,17.2,3.68,22.94,10.16l18.06,20.52c2.17,2.47.19,6.52-3.17,6.52Z"/>
      <path class="cls-5" d="M536.44,362.92H76.51c-21.64,0-40.25-18.8-41.48-41.9l-11.76-220.89c-.6-11.35,3.24-22,10.81-29.99,7.45-7.85,17.63-12.18,28.67-12.18h487.46c11.04,0,21.22,4.33,28.67,12.18,7.58,7.99,11.41,18.64,10.81,29.99l-11.76,220.89c-1.23,23.1-19.84,41.9-41.48,41.9ZM62.75,62.96c-9.65,0-18.55,3.77-25.04,10.62-6.62,6.98-9.98,16.32-9.45,26.28l11.76,220.89c1.09,20.49,17.46,37.17,36.49,37.17h459.93c19.03,0,35.4-16.67,36.49-37.17l11.76-220.89c.53-9.96-2.82-19.3-9.45-26.28-6.49-6.85-15.39-10.62-25.04-10.62H62.75Z"/>
      <path class="cls-1" d="M550.2,60.46H62.75c-21.59,0-38.15,17.7-36.98,39.53l11.76,220.89c1.16,21.83,18.62,39.53,38.99,39.53h459.93c20.37,0,37.82-17.7,38.99-39.53l11.76-220.89c1.16-21.83-15.4-39.53-36.98-39.53Z"/>
      <path class="cls-2" d="M549.56,74.42H63.39c-21.53,0-38.04,17.7-36.88,39.53l11.02,206.94c1.16,21.83,18.62,39.53,38.99,39.53h459.93c20.37,0,37.82-17.7,38.99-39.53l11.02-206.94c1.16-21.83-15.35-39.53-36.88-39.53Z"/>
    </g>
  </g>
</svg>