<?xml version="1.0" encoding="UTF-8"?>
<svg id="Layer_2" data-name="Layer 2" xmlns="http://www.w3.org/2000/svg" xmlns:xlink="http://www.w3.org/1999/xlink" viewBox="0 0 1090.94 3161.02">
  <defs>
    <style>
      .cls-1 {
        letter-spacing: -.06em;
      }

      .cls-2 {
        font-size: 26.43px;
      }

      .cls-2, .cls-3, .cls-4, .cls-5 {
        font-family: AmazonEmber-Regular, 'Amazon Ember';
      }

      .cls-2, .cls-6, .cls-4 {
        fill: #aad9d9;
      }

      .cls-7, .cls-8, .cls-9, .cls-10 {
        font-family: FromWhereYouAre, 'From Where You Are';
      }

      .cls-7, .cls-11, .cls-12 {
        fill: #5bbc70;
      }

      .cls-7, .cls-9 {
        font-size: 62.79px;
      }

      .cls-13 {
        fill: #f6f081;
      }

      .cls-14 {
        letter-spacing: -.06em;
      }

      .cls-15 {
        font-family: AmazonEmber-Bold, 'Amazon Ember';
        font-size: 58.73px;
        font-weight: 700;
      }

      .cls-15, .cls-16 {
        fill: #ffd92b;
      }

      .cls-17 {
        fill: #35385b;
      }

      .cls-17, .cls-18, .cls-19, .cls-20, .cls-21, .cls-22, .cls-23, .cls-24, .cls-25, .cls-26, .cls-6, .cls-27, .cls-28, .cls-29, .cls-30, .cls-31, .cls-32, .cls-12 {
        fill-rule: evenodd;
      }

      .cls-33, .cls-34 {
        letter-spacing: .03em;
      }

      .cls-35, .cls-36 {
        letter-spacing: .03em;
      }

      .cls-37 {
        clip-path: url(#clippath-4);
      }

      .cls-38, .cls-39, .cls-8, .cls-34, .cls-40, .cls-41, .cls-36, .cls-42 {
        fill: #f1a941;
      }

      .cls-43 {
        letter-spacing: .01em;
      }

      .cls-44 {
        letter-spacing: -.02em;
      }

      .cls-45 {
        letter-spacing: -.02em;
      }

      .cls-46 {
        letter-spacing: -.05em;
      }

      .cls-47 {
        letter-spacing: .01em;
      }

      .cls-48 {
        fill: #cb8abc;
      }

      .cls-49 {
        letter-spacing: .02em;
      }

      .cls-50, .cls-41 {
        letter-spacing: .02em;
      }

      .cls-51, .cls-19, .cls-5 {
        fill: #fff;
      }

      .cls-52 {
        fill: #d36b28;
      }

      .cls-53 {
        letter-spacing: -.02em;
      }

      .cls-18 {
        fill: #4c833c;
      }

      .cls-54 {
        fill: #eebfc5;
      }

      .cls-55, .cls-21 {
        fill: #59acae;
      }

      .cls-56 {
        letter-spacing: .01em;
      }

      .cls-39 {
        letter-spacing: .03em;
      }

      .cls-57, .cls-20, .cls-24, .cls-27, .cls-31, .cls-58 {
        fill: none;
      }

      .cls-20 {
        opacity: .25;
        stroke: #d8672b;
        stroke-width: 3px;
      }

      .cls-20, .cls-24, .cls-27, .cls-31, .cls-58 {
        stroke-miterlimit: 10;
      }

      .cls-8, .cls-10 {
        font-size: 49.92px;
      }

      .cls-59 {
        letter-spacing: .03em;
      }

      .cls-60 {
        clip-path: url(#clippath-1);
      }

      .cls-22, .cls-3, .cls-61 {
        fill: #45486c;
      }

      .cls-23 {
        fill: #474871;
      }

      .cls-24 {
        stroke: #fff;
        stroke-width: 6px;
      }

      .cls-62 {
        clip-path: url(#clippath-5);
      }

      .cls-3, .cls-5 {
        font-size: 35.24px;
      }

      .cls-63 {
        fill: #1f1f38;
      }

      .cls-64 {
        letter-spacing: .05em;
      }

      .cls-65 {
        clip-path: url(#clippath-3);
      }

      .cls-25 {
        fill: #616a79;
      }

      .cls-26 {
        fill: #803d83;
      }

      .cls-66 {
        fill: url(#linear-gradient-2);
        opacity: .95;
      }

      .cls-67 {
        fill: #0d1a19;
      }

      .cls-68 {
        letter-spacing: 0em;
      }

      .cls-69 {
        letter-spacing: -.04em;
      }

      .cls-27 {
        stroke: #5bbc70;
      }

      .cls-70 {
        letter-spacing: 0em;
      }

      .cls-71 {
        fill: #f2a743;
      }

      .cls-28 {
        fill: #d8672b;
      }

      .cls-29 {
        fill: #231f20;
      }

      .cls-4 {
        font-size: 32.3px;
      }

      .cls-72 {
        letter-spacing: .02em;
      }

      .cls-30 {
        fill: #0f1829;
      }

      .cls-73 {
        letter-spacing: -.02em;
      }

      .cls-31 {
        stroke: #1d1d3a;
        stroke-width: 5px;
      }

      .cls-9 {
        fill: #0f1528;
      }

      .cls-74 {
        fill: #0b1c3f;
      }

      .cls-75 {
        fill: #6acbda;
      }

      .cls-32 {
        fill: #3d8380;
      }

      .cls-76 {
        letter-spacing: .02em;
      }

      .cls-40 {
        letter-spacing: .03em;
      }

      .cls-58 {
        stroke: #ffd92b;
      }

      .cls-77 {
        clip-path: url(#clippath-2);
      }

      .cls-78 {
        fill: #087962;
      }

      .cls-79 {
        letter-spacing: -.05em;
      }

      .cls-80 {
        letter-spacing: -.04em;
      }

      .cls-81 {
        letter-spacing: -.02em;
      }

      .cls-82 {
        fill: url(#linear-gradient);
      }

      .cls-83 {
        clip-path: url(#clippath);
      }

      .cls-84 {
        letter-spacing: .02em;
      }

      .cls-85 {
        fill: #373a60;
      }

      .cls-86 {
        fill: #96d7dd;
      }

      .cls-42 {
        letter-spacing: 0em;
      }

      .cls-87 {
        letter-spacing: .04em;
      }
    </style>
    <symbol id="Arrow" viewBox="0 0 21.05 21.63">
      <path id="Down" class="cls-51" d="M21.05,1.52v.45l-.14.45c-2.77,3.62-5.81,7.05-8.67,10.61-.73.94-1.94,1.07-2.8.21L.54,3.02C.27,2.71.1,2.38,0,1.98c.01-.15-.02-.31,0-.45C.1.77.79.08,1.55,0h17.84c.82.02,1.56.72,1.66,1.52ZM19.57,7.83c-.69.84-1.38,1.67-2.07,2.49-1.14,1.37-2.32,2.78-3.45,4.18-.81,1.04-2.03,1.66-3.31,1.66-1.1,0-2.15-.45-2.96-1.27l-.05-.05L1.62,7.81h-.07c-.76.08-1.45.77-1.54,1.52-.02.14.01.31,0,.45.09.41.26.74.54,1.05l8.9,10.22c.86.87,2.06.73,2.8-.21,2.86-3.56,5.91-6.99,8.67-10.61l.14-.45v-.45c-.09-.74-.74-1.39-1.48-1.5Z"/>
    </symbol>
    <clipPath id="clippath">
      <rect id="BG" class="cls-57" x="221.47" y="1765.52" width="648" height="1152"/>
    </clipPath>
    <linearGradient id="linear-gradient" x1="545.47" y1="2917.52" x2="545.47" y2="1765.52" gradientUnits="userSpaceOnUse">
      <stop offset="0" stop-color="#363b5e"/>
      <stop offset="1" stop-color="#0b1c3f"/>
    </linearGradient>
    <clipPath id="clippath-1">
      <rect class="cls-57" x="600.79" y="2523.78" width="85.04" height="296.07" rx="11.64" ry="11.64"/>
    </clipPath>
    <clipPath id="clippath-2">
      <rect class="cls-57" x="277.23" y="1981.73" width="85.04" height="296.07" rx="11.64" ry="11.64" transform="translate(2449.51 1810.01) rotate(90)"/>
    </clipPath>
    <clipPath id="clippath-3">
      <rect class="cls-57" x="277.23" y="2134.73" width="85.04" height="296.07" rx="11.64" ry="11.64" transform="translate(2602.51 1963.01) rotate(90)"/>
    </clipPath>
    <clipPath id="clippath-4">
      <rect class="cls-57" x="736.16" y="1981.73" width="85.04" height="296.07" rx="11.64" ry="11.64" transform="translate(2908.44 1351.08) rotate(90)"/>
    </clipPath>
    <clipPath id="clippath-5">
      <rect class="cls-57" x="736.16" y="2134.73" width="85.04" height="296.07" rx="11.64" ry="11.64" transform="translate(3061.44 1504.08) rotate(90)"/>
    </clipPath>
    <linearGradient id="linear-gradient-2" y1="3161.02" y2="1393.71" xlink:href="#linear-gradient"/>
  </defs>
  <g id="Periscope_DownB" data-name="Periscope DownB">
    <g class="cls-83">
      <rect id="BG-2" data-name="BG" class="cls-82" x="221.47" y="1765.52" width="648" height="1152"/>
      <g id="Console_Base" data-name="Console Base">
        <polygon class="cls-30" points="71.33 3042.35 92.14 3140.42 997.97 3140.42 1018.79 3042.35 71.33 3042.35"/>
        <path class="cls-25" d="M1036.69,3042.35l25.04-142.86c1.09-6.22-3.69-11.91-10.01-11.91H38.4c-6.31,0-11.1,5.7-10.01,11.91l25.04,142.86h983.25Z"/>
        <path class="cls-21" d="M982.6,2426.78H107.51l-79.27,476.6c-1.01,6.08,3.37,11.66,9.17,11.66h1015.29c5.79,0,10.18-5.58,9.17-11.66l-79.27-476.6Z"/>
        <text class="cls-2" transform="translate(141.09 3123.24)"><tspan class="cls-80" x="0" y="0">V</tspan><tspan x="15.98" y="0">ersion 0.1.1v</tspan></text>
        <text class="cls-2" transform="translate(744.73 3123.24)"><tspan x="0" y="0">Muz</tspan><tspan class="cls-68" x="49.95" y="0">z</tspan><tspan x="62.78" y="0">yMade @ 2026</tspan></text>
        <g id="Wipe">
          <text class="cls-4" transform="translate(436.32 3124.65)"><tspan x="0" y="0">WIPE S</tspan><tspan class="cls-14" x="103.3" y="0">A</tspan><tspan x="122.24" y="0">VE </tspan><tspan class="cls-69" x="169.46" y="0">D</tspan><tspan class="cls-79" x="190.61" y="0">AT</tspan><tspan x="226.65" y="0">A</tspan></text>
          <path id="Trashcan" class="cls-55" d="M400.48,3098.76l24.49-.02c.77.06,1.16.5,1.08,1.29-.52,6.74-1,13.48-1.51,20.22-.1,1.3-.12,2.64-.25,3.93-.18,1.76-1.12,3.01-2.87,3.43-5.56.17-11.15.02-16.72.08-1.83-.13-3.22-1.49-3.4-3.31-.45-6.35-.91-12.71-1.36-19.06-.12-1.66-.34-3.39-.4-5.04-.03-.8,0-1.41.95-1.52ZM405.52,3101.68c-.22.05-.54.36-.58.58-.11.52.03,1.36.04,1.9.11,4.75.3,9.48.45,14.22.05,1.37-.02,2.89.1,4.24.11,1.22,1.62,1.18,1.72.05.05-.63-.09-1.56-.1-2.22-.14-5.24-.31-10.49-.5-15.73-.03-.72.06-1.68-.05-2.37-.08-.51-.59-.77-1.07-.67ZM412.58,3101.68c-.39.07-.62.44-.64.82v20.17c.11,1.22,1.73,1.07,1.72-.1v-19.97c-.03-.62-.43-1.03-1.07-.92ZM419.78,3123.29c.06-.06.19-.3.21-.37.03-.17.05-.59.06-.79.2-4.02.19-8.04.3-12.06.07-2.46.25-4.95.26-7.41,0-.57-.28-1-.89-.99-1.07.02-.8,1.33-.83,2.05-.18,5.28-.32,10.55-.45,15.83-.03.97-.19,2.23-.1,3.18.07.74.94,1.06,1.45.56ZM405.08,3091.71c.17-1.68,1.82-3.16,3.5-3.2,2.86.14,5.89-.18,8.73,0,1.65.1,3.55,1.55,3.55,3.31v1.18c.08-.04.14-.05.22-.05.98-.02,2.05-.03,3.03,0,1.24.03,2.3.16,2.97,1.36.43.77.74,2.48-.42,2.76h-27.62c-1.34-.11-.99-2.03-.52-2.83.42-.7,1.34-1.3,2.18-1.3h4.29s.04.06.08.05c.03-.41-.04-.88,0-1.29ZM418.64,3093v-1.08s-.16-.41-.19-.46c-.25-.46-.73-.69-1.24-.72-2.78-.2-5.81.15-8.62,0-.48-.03-1.29.68-1.29,1.13v1.13h11.35Z"/>
        </g>
      </g>
      <g id="Console_Back" data-name="Console Back">
        <g>
          <g>
            <path class="cls-25" d="M1034.4,1834.56H55.72c-15.58,0-27.48,12.71-26.58,28.38l31.21,542.07c.66,11.42,9.79,20.68,20.39,20.68h928.62c10.61,0,19.74-9.26,20.39-20.68l31.21-542.07c.9-15.68-11-28.38-26.58-28.38Z"/>
            <path class="cls-6" d="M1047.21,1842.39H42.91c-5.67,0-8.99-6.82-5.34-10.98l30.4-34.55c9.66-10.92,23.64-17.11,38.61-17.11h876.94c14.97,0,28.95,6.19,38.61,17.11l30.4,34.55c3.65,4.16.33,10.98-5.34,10.98Z"/>
            <path class="cls-31" d="M997.85,2319.99c-1.96,36.76-31.34,66.56-65.63,66.56H157.9c-34.29,0-63.68-29.8-65.63-66.56l-19.8-371.89c-1.96-36.76,25.92-66.56,62.26-66.56h820.66c36.34,0,64.22,29.8,62.26,66.56l-19.8,371.89Z"/>
            <path class="cls-17" d="M955.39,1881.54H134.73c-36.34,0-64.22,29.8-62.26,66.56l19.8,371.89c1.96,36.76,31.34,66.56,65.63,66.56h774.31c34.29,0,63.68-29.8,65.63-66.56l19.8-371.89c1.96-36.76-25.92-66.56-62.26-66.56Z"/>
            <path class="cls-23" d="M954.31,1905.03H135.81c-36.25,0-64.05,29.8-62.09,66.56l18.55,348.4c1.96,36.76,31.34,66.56,65.63,66.56h774.31c34.29,0,63.68-29.8,65.63-66.56l18.55-348.4c1.96-36.76-25.84-66.56-62.09-66.56Z"/>
          </g>
          <g id="Screen_Text" data-name="Screen Text">
            <path id="Meter" class="cls-27" d="M928.69,2027.8H165.24c-8.94,0-16.52-7.45-16.93-16.64h0c-.41-9.19,6.52-16.64,15.49-16.64h766.33c8.97,0,15.91,7.45,15.49,16.64h0c-.42,9.19-8,16.64-16.94,16.64Z"/>
            <path id="Meter_Fill" data-name="Meter Fill" class="cls-12" d="M763.05,2027.8H163.27c-7.85,0-14.51-6.54-14.87-14.62l-.18-4.05c-.36-8.07,5.73-14.62,13.61-14.62h602.05s-.82,33.28-.82,33.28Z"/>
            <g>
              <path class="cls-55" d="M682.42,1968.23l.27-17.45-5.62,2.21.03-2.35,5.84-2.75h2.65l-.32,20.34h-2.85Z"/>
              <path class="cls-55" d="M699.19,1968.67c-2.37,0-4.17-.9-5.41-2.73-1.23-1.83-1.82-4.46-1.77-7.88.06-3.42.73-6.05,2.02-7.86,1.29-1.84,3.12-2.75,5.49-2.75s4.17.91,5.41,2.73c1.24,1.82,1.82,4.44,1.76,7.86s-.74,6.06-2.03,7.9c-1.29,1.83-3.12,2.75-5.49,2.75ZM695.92,1964.25c.69,1.32,1.79,1.98,3.3,1.97,1.51,0,2.64-.66,3.37-1.97.73-1.3,1.13-3.36,1.18-6.19s-.27-4.89-.96-6.2c-.69-1.31-1.79-1.97-3.31-1.97s-2.64.66-3.38,1.97c-.73,1.31-1.12,3.37-1.17,6.19s.27,4.88.96,6.2Z"/>
              <path class="cls-55" d="M710.91,1964.82c1.21,0,1.81.34,1.79,1.03,0,.35-.15.92-.43,1.71l-1.94,5.16h-1.96l1.62-7.9h.91Z"/>
              <path class="cls-55" d="M723.14,1956.54h.28c1.9,0,3.4.53,4.49,1.59,1.09,1.06,1.61,2.51,1.57,4.34s-.75,3.33-2.12,4.47c-1.38,1.15-3.21,1.72-5.49,1.72-1.81,0-3.58-.39-5.33-1.18l.05-2.35c2.07.71,3.85,1.06,5.32,1.06s2.6-.33,3.4-1c.8-.67,1.21-1.62,1.24-2.85.05-2.37-1.4-3.55-4.34-3.54-.92,0-1.83.05-2.73.14l.04-1.96,6.18-6.7h-8.52l.05-2.41h11.73l-.05,2.32-6.06,6.37c.1-.02.2-.03.3-.03Z"/>
              <path class="cls-55" d="M741.97,1968.23l.1-4.4h-9.52l.05-2.24,9.77-13.71h2.77l-.31,13.59h2.75l-.05,2.35h-2.75l-.1,4.4h-2.71ZM742.12,1961.47l.22-9.75-6.89,9.75h6.67Z"/>
              <path class="cls-55" d="M750.32,1950.29l.06-2.41h13.55l-.06,2.32-8.24,18.02h-3.07l8.4-17.94h-10.64Z"/>
              <path class="cls-55" d="M773.14,1972.46l10.48-26.37h2.89l-10.48,26.37h-2.88Z"/>
              <path class="cls-55" d="M802.38,1968.23l.51-17.45-5.65,2.21.07-2.35,5.87-2.75h2.65l-.6,20.34h-2.85Z"/>
              <path class="cls-55" d="M819.87,1947.44c1.75,0,3.13.5,4.15,1.49,1.02,1,1.5,2.32,1.45,3.98-.03,1.1-.36,2.22-.98,3.35-.62,1.13-1.59,2.44-2.92,3.92-1.34,1.49-3.21,3.38-5.6,5.64h10.05l-.08,2.41h-13.36l.07-2.27c2.87-2.87,4.96-5.06,6.29-6.58,1.33-1.51,2.25-2.73,2.77-3.65.51-.92.78-1.83.81-2.73.02-.9-.25-1.63-.82-2.2-.56-.55-1.35-.84-2.35-.85-1.71,0-3.6.74-5.68,2.21l.08-2.5c1.87-1.49,3.91-2.24,6.12-2.24Z"/>
              <path class="cls-55" d="M830.92,1964.82c1.21,0,1.8.34,1.78,1.03-.01.35-.16.92-.45,1.71l-2.01,5.16h-1.96l1.73-7.9h.91Z"/>
              <path class="cls-55" d="M846.82,1962.18c.09-2.6-1.31-3.89-4.2-3.87-1.42,0-3.02.1-4.8.29l.06-1.94.84-8.77h10.51l-.08,2.41h-8.1l-.58,5.95c1.07-.19,2.02-.29,2.87-.29,2.07,0,3.68.56,4.81,1.68,1.13,1.12,1.67,2.64,1.6,4.57-.06,1.93-.79,3.49-2.2,4.69-1.41,1.19-3.16,1.78-5.25,1.78s-3.98-.39-5.65-1.18l.08-2.35c2.1.71,3.9,1.06,5.39,1.06s2.63-.34,3.43-1.02c.8-.68,1.22-1.68,1.27-3.01Z"/>
              <path class="cls-55" d="M859.96,1968.67c-2.37,0-4.16-.9-5.36-2.73-1.2-1.83-1.74-4.46-1.62-7.88s.84-6.05,2.16-7.86c1.33-1.84,3.17-2.75,5.54-2.75s4.16.91,5.36,2.73c1.2,1.82,1.74,4.44,1.62,7.86s-.85,6.06-2.17,7.9c-1.32,1.83-3.17,2.75-5.54,2.75ZM856.76,1964.25c.66,1.32,1.75,1.98,3.27,1.97,1.51,0,2.65-.66,3.41-1.97.76-1.3,1.19-3.36,1.29-6.19s-.18-4.89-.84-6.2c-.66-1.31-1.76-1.97-3.27-1.97s-2.65.66-3.41,1.97c-.76,1.31-1.19,3.37-1.28,6.19s.18,4.88.85,6.2Z"/>
              <path class="cls-55" d="M876.8,1968.67c-2.37,0-4.15-.9-5.35-2.73-1.2-1.83-1.73-4.46-1.61-7.88s.85-6.05,2.18-7.86c1.33-1.84,3.18-2.75,5.55-2.75s4.15.91,5.36,2.73c1.2,1.82,1.73,4.44,1.6,7.86s-.86,6.06-2.19,7.9c-1.33,1.83-3.17,2.75-5.54,2.75ZM873.62,1964.25c.66,1.32,1.75,1.98,3.26,1.97,1.51,0,2.65-.66,3.41-1.97.76-1.3,1.19-3.36,1.3-6.19s-.17-4.89-.83-6.2c-.66-1.31-1.75-1.97-3.27-1.97s-2.66.66-3.42,1.97c-.76,1.31-1.19,3.37-1.3,6.19s.17,4.88.84,6.2Z"/>
              <path class="cls-55" d="M913.12,1968.23l-3.12-6.52-3.6,6.52h-6.07l6.78-10.48-5.45-9.87h6.2l2.62,5.73,3.09-5.73h6.08l-6.34,9.81,6,10.54h-6.18Z"/>
              <path class="cls-55" d="M927.12,1961.62l-.28,6.61h-5.35l.87-20.35h8.18c2.29,0,4.07.61,5.35,1.83,1.28,1.22,1.87,2.9,1.78,5.04s-.84,3.81-2.22,5.04c-1.39,1.22-3.22,1.83-5.5,1.83h-2.82ZM927.3,1957.51h2.01c.88,0,1.57-.24,2.08-.73.5-.49.77-1.16.81-2.03s-.17-1.54-.63-2.03c-.46-.49-1.13-.73-2.01-.73h-2.02l-.24,5.52Z"/>
            </g>
            <g id="Operator_Rank" data-name="Operator Rank">
              <path class="cls-75" d="M437.35,1973.83l-.1-7.87c4.28-4.27,7.6-7.71,9.95-10.34,2.35-2.62,4.05-4.79,5.09-6.49,1.04-1.7,1.55-3.22,1.54-4.55-.01-1.06-.36-1.92-1.06-2.58-.7-.67-1.63-1-2.78-1-3.38,0-7.37,1.59-11.94,4.76l-.11-8.75c4.12-3.25,8.68-4.87,13.68-4.87,4.04,0,7.26,1.02,9.67,3.05,2.4,2.04,3.62,4.76,3.65,8.16.02,1.96-.45,3.95-1.39,5.99-.94,2.04-2.51,4.3-4.72,6.78-2.2,2.49-5.36,5.53-9.46,9.13h17.31l.08,8.57h-29.42Z"/>
              <g>
                <path class="cls-75" d="M151.17,1966.03c-1-1.93-1.55-4.22-1.67-6.86s.22-4.91,1-6.83c.78-1.92,1.99-3.39,3.63-4.42,1.63-1.03,3.62-1.55,5.95-1.55,3.45,0,6.21,1.13,8.28,3.4,2.07,2.27,3.19,5.38,3.36,9.35.11,2.6-.22,4.87-1,6.79-.78,1.92-1.97,3.4-3.59,4.45-1.61,1.04-3.58,1.57-5.89,1.57s-4.32-.5-6.02-1.5c-1.7-1-3.05-2.46-4.05-4.4ZM154.64,1951.89c-1.22,1.66-1.76,4.08-1.62,7.26s.9,5.6,2.28,7.26c1.38,1.66,3.3,2.49,5.76,2.49s4.3-.83,5.52-2.5c1.22-1.67,1.76-4.09,1.62-7.26s-.88-5.59-2.24-7.24c-1.36-1.66-3.28-2.49-5.76-2.49s-4.33.83-5.55,2.49Z"/>
                <path class="cls-75" d="M180.55,1961.84l.39,9.48h-3.42l-1.01-24.41h8.66c2.33,0,4.21.67,5.64,2.01,1.44,1.34,2.2,3.16,2.29,5.46s-.53,4.12-1.85,5.46c-1.33,1.34-3.15,2.01-5.47,2.01h-5.23ZM185.38,1959.02c2.92,0,4.32-1.55,4.2-4.65s-1.65-4.65-4.57-4.65h-4.95l.38,9.29h4.94Z"/>
                <path class="cls-75" d="M198.2,1971.32l-.96-24.41h14.91l.11,2.89h-11.38l.29,7.5h9.53l.11,2.89h-9.53l.32,8.24h11.35l.11,2.89h-14.87Z"/>
                <path class="cls-75" d="M217.54,1971.32l-.9-24.41h8.73c2.33,0,4.2.65,5.63,1.95,1.43,1.3,2.18,3.05,2.26,5.26.06,1.61-.32,3.01-1.14,4.2-.82,1.19-1.99,2.05-3.53,2.59l6.71,10.42h-3.84l-6.21-9.86h-4.65l.36,9.86h-3.42ZM225.37,1958.64c3.01,0,4.47-1.49,4.36-4.46s-1.62-4.46-4.55-4.46h-5.01l.33,8.91h4.87Z"/>
                <path class="cls-75" d="M254.43,1971.32l-2.42-6.49h-9.84l-1.9,6.49h-3.64l8.02-24.41h3.8l9.64,24.41h-3.65ZM242.99,1962.12h8.04l-4.45-11.97-3.59,11.97Z"/>
                <path class="cls-75" d="M264.84,1971.32l-.68-21.45h-7.63l-.1-2.96h18.81l.09,2.96h-7.65l.67,21.45h-3.52Z"/>
                <path class="cls-75" d="M278.88,1966.03c-.97-1.93-1.49-4.22-1.57-6.86s.29-4.91,1.1-6.83c.81-1.92,2.04-3.39,3.69-4.42,1.65-1.03,3.64-1.55,5.98-1.55,3.45,0,6.19,1.13,8.23,3.4,2.04,2.27,3.11,5.38,3.22,9.35.07,2.6-.29,4.87-1.1,6.79-.81,1.92-2.02,3.4-3.65,4.45-1.63,1.04-3.6,1.57-5.91,1.57s-4.32-.5-6-1.5c-1.69-1-3.02-2.46-3.98-4.4ZM282.56,1951.89c-1.25,1.66-1.82,4.08-1.73,7.26s.82,5.6,2.17,7.26c1.35,1.66,3.26,2.49,5.72,2.49s4.31-.83,5.55-2.5c1.24-1.67,1.82-4.09,1.73-7.26s-.8-5.59-2.14-7.24c-1.34-1.66-3.25-2.49-5.72-2.49s-4.34.83-5.59,2.49Z"/>
                <path class="cls-75" d="M305.16,1971.32l-.66-24.41h8.73c2.33,0,4.2.65,5.61,1.95,1.41,1.3,2.15,3.05,2.21,5.26.04,1.61-.35,3.01-1.18,4.2-.83,1.19-2.01,2.05-3.55,2.59l6.61,10.42h-3.84l-6.11-9.86h-4.65l.26,9.86h-3.42ZM313.11,1958.64c3.01,0,4.48-1.49,4.41-4.46s-1.58-4.46-4.5-4.46h-5.01l.24,8.91h4.87Z"/>
                <path class="cls-75" d="M335.32,1971.32l-.58-24.41h8.73c2.33,0,4.19.65,5.6,1.95,1.41,1.3,2.14,3.05,2.19,5.26.04,1.61-.36,3.01-1.2,4.2-.83,1.19-2.02,2.05-3.56,2.59l6.57,10.42h-3.84l-6.07-9.86h-4.65l.23,9.86h-3.42ZM343.32,1958.64c3.01,0,4.49-1.49,4.42-4.46s-1.56-4.46-4.49-4.46h-5.01l.21,8.91h4.87Z"/>
                <path class="cls-75" d="M372.22,1971.32l-2.33-6.49h-9.84l-1.99,6.49h-3.64l8.34-24.41h3.8l9.32,24.41h-3.65ZM360.9,1962.12h8.04l-4.29-11.97-3.75,11.97Z"/>
                <path class="cls-75" d="M382.36,1971.32h-3.25l-.46-24.41h3.83l12.13,19.51-.33-19.51h3.26l.41,24.41h-3.87l-12.08-19.41.36,19.41Z"/>
                <path class="cls-75" d="M403.73,1971.32l-.39-24.41h3.53l.17,10.93,9.69-10.93h4.14l-10.46,11.67,11.75,12.75h-4.31l-10.77-11.67.18,11.67h-3.52Z"/>
              </g>
            </g>
          </g>
        </g>
      </g>
      <g id="Reset_Lights" data-name="Reset Lights">
        <polygon class="cls-22" points="1024.78 2895.9 574.37 2895.9 574.37 2444.88 949.77 2444.88 1024.78 2895.9"/>
        <g>
          <g class="cls-60">
            <rect class="cls-54" x="600.79" y="2523.78" width="85.04" height="296.07" rx="11.64" ry="11.64"/>
            <path class="cls-20" d="M703.44,2576.41l-50.86-50.86c-5.12-5.12-13.42-5.12-18.54,0l-50.86,50.86M583.18,2617.96l50.86-50.86c5.12-5.12,13.42-5.12,18.54,0l50.86,50.86M583.18,2661.05l50.86-50.86c5.12-5.12,13.42-5.12,18.54,0l50.86,50.86M703.44,2766.38l-50.86,50.86c-5.12,5.12-13.42,5.12-18.54,0l-50.86-50.86M583.18,2724.83l50.86,50.86c5.12,5.12,13.42,5.12,18.54,0l50.86-50.86M583.18,2681.74l50.86,50.86c5.12,5.12,13.42,5.12,18.54,0l50.86-50.86"/>
          </g>
          <rect class="cls-52" x="601.03" y="2523.61" width="84.57" height="84.57" rx="6.21" ry="6.21"/>
          <use width="21.05" height="21.63" transform="translate(674.05 2597.83) rotate(-180) scale(2.94)" xlink:href="#Arrow"/>
          <g>
            <path class="cls-29" d="M643.31,2872.5c-10.14,0-18.39-8.25-18.39-18.39s8.25-18.41,18.39-18.41,18.39,8.25,18.39,18.39-8.25,18.41-18.39,18.41Z"/>
            <path class="cls-63" d="M643.31,2837.21c9.33,0,16.89,7.56,16.89,16.89h0c0,9.34-7.56,16.91-16.89,16.91h0c-9.33,0-16.89-7.56-16.89-16.89h0c0-9.34,7.56-16.91,16.89-16.91h0M643.31,2834.21c-10.97,0-19.89,8.92-19.89,19.89s8.92,19.91,19.89,19.91,19.89-8.92,19.89-19.89-8.92-19.91-19.89-19.91h0Z"/>
          </g>
          <g>
            <path class="cls-28" d="M643.31,2506.64c-10.14,0-18.39-8.25-18.39-18.39s8.25-18.41,18.39-18.41,18.39,8.25,18.39,18.39-8.25,18.41-18.39,18.41Z"/>
            <path class="cls-63" d="M643.31,2471.35c9.33,0,16.89,7.56,16.89,16.89h0c0,9.34-7.56,16.91-16.89,16.91h0c-9.33,0-16.89-7.56-16.89-16.89h0c0-9.34,7.56-16.91,16.89-16.91h0M643.31,2468.35c-10.97,0-19.89,8.92-19.89,19.89s8.92,19.91,19.89,19.91,19.89-8.92,19.89-19.89-8.92-19.91-19.89-19.91h0Z"/>
          </g>
        </g>
        <g id="Blue_Button" data-name="Blue Button">
          <g>
            <path class="cls-67" d="M797.16,2644.69c-39.94,0-71.23-23.28-71.23-53.01s31.29-53,71.23-53,71.23,23.28,71.23,53-31.29,53.01-71.23,53.01Z"/>
            <path class="cls-32" d="M851.36,2589.82c0,19.93-24.32,36.09-54.32,36.09s-54.32-16.16-54.32-36.09c0-14.72.42-14.25.42-14.25h108.47s-.25,1.67-.25,14.25Z"/>
            <ellipse class="cls-86" cx="797.17" cy="2577.41" rx="54.32" ry="36.09"/>
          </g>
          <g>
            <path class="cls-28" d="M919.55,2603.42c-10.14,0-18.39-8.25-18.39-18.39s8.25-18.41,18.39-18.41,18.39,8.25,18.39,18.39-8.25,18.41-18.39,18.41Z"/>
            <path class="cls-63" d="M919.55,2568.12c9.33,0,16.89,7.56,16.89,16.89h0c0,9.34-7.56,16.91-16.89,16.91s-16.89-7.56-16.89-16.89h0c0-9.34,7.56-16.91,16.89-16.91M919.55,2565.12c-10.97,0-19.89,8.92-19.89,19.89s8.92,19.91,19.89,19.91,19.89-8.92,19.89-19.89-8.92-19.91-19.89-19.91h0Z"/>
          </g>
        </g>
        <g id="Purple_Button" data-name="Purple Button">
          <g>
            <path class="cls-67" d="M819.59,2877.77c-39.94,0-71.23-23.28-71.23-53.01s31.29-53,71.23-53,71.23,23.28,71.23,53-31.29,53.01-71.23,53.01Z"/>
            <path class="cls-26" d="M873.78,2822.91c0,19.93-24.32,36.09-54.32,36.09s-54.32-16.16-54.32-36.09c0-14.72.42-14.25.42-14.25h108.47s-.25,1.67-.25,14.25Z"/>
            <ellipse class="cls-48" cx="819.59" cy="2810.49" rx="54.32" ry="36.09"/>
          </g>
          <g>
            <path class="cls-28" d="M951.41,2843c-10.14,0-18.39-8.25-18.39-18.39s8.25-18.41,18.39-18.41,18.39,8.25,18.39,18.39-8.25,18.41-18.39,18.41Z"/>
            <path class="cls-63" d="M951.41,2807.71c9.33,0,16.89,7.56,16.89,16.89h0c0,9.34-7.56,16.91-16.89,16.91s-16.89-7.56-16.89-16.89h0c0-9.34,7.56-16.91,16.89-16.91M951.41,2804.71c-10.97,0-19.89,8.92-19.89,19.89s8.92,19.91,19.89,19.91,19.89-8.92,19.89-19.89-8.92-19.91-19.89-19.91h0Z"/>
          </g>
        </g>
        <g id="Green_Button" data-name="Green Button">
          <g>
            <path class="cls-67" d="M807.79,2760.35c-39.94,0-71.23-23.28-71.23-53.01s31.29-53,71.23-53,71.23,23.28,71.23,53-31.29,53.01-71.23,53.01Z"/>
            <path class="cls-18" d="M861.98,2705.49c0,19.93-24.32,36.09-54.32,36.09s-54.32-16.16-54.32-36.09c0-14.72.42-34.82.42-34.82h108.47s-.25,22.24-.25,34.82Z"/>
            <ellipse class="cls-13" cx="807.79" cy="2672.5" rx="54.32" ry="36.09"/>
          </g>
          <g>
            <path class="cls-29" d="M933.71,2720.26c-10.14,0-18.39-8.25-18.39-18.39s8.25-18.41,18.39-18.41,18.39,8.25,18.39,18.39-8.25,18.41-18.39,18.41Z"/>
            <path class="cls-63" d="M933.71,2684.96c9.33,0,16.89,7.56,16.89,16.89h0c0,9.34-7.56,16.91-16.89,16.91s-16.89-7.56-16.89-16.89h0c0-9.34,7.56-16.91,16.89-16.91M933.71,2681.96c-10.97,0-19.89,8.92-19.89,19.89s8.92,19.91,19.89,19.91,19.89-8.92,19.89-19.89-8.92-19.91-19.89-19.91h0Z"/>
          </g>
        </g>
        <text class="cls-5" transform="translate(698.13 2502.91)"><tspan x="0" y="0">RESET LIGHTS</tspan></text>
      </g>
      <g id="Reset_Controls" data-name="Reset Controls">
        <rect class="cls-61" x="149.56" y="2442.71" width="359.31" height="115.44" rx="54.73" ry="54.73"/>
        <circle class="cls-61" cx="327.15" cy="2700.62" r="190.07"/>
        <circle class="cls-61" cx="482.78" cy="2540.44" r="51.63"/>
        <circle class="cls-61" cx="176.83" cy="2852.27" r="51.63"/>
        <circle class="cls-61" cx="482.78" cy="2852.27" r="51.63"/>
        <circle class="cls-61" cx="176.83" cy="2540.44" r="51.63"/>
        <circle class="cls-67" cx="327.15" cy="2700.62" r="164.32"/>
        <g>
          <path class="cls-29" d="M174.98,2557.43c-10.14,0-18.39-8.25-18.39-18.39s8.25-18.41,18.39-18.41,18.39,8.25,18.39,18.39-8.25,18.41-18.39,18.41Z"/>
          <path class="cls-63" d="M174.98,2522.14c9.33,0,16.89,7.56,16.89,16.89h0c0,9.34-7.56,16.91-16.89,16.91s-16.89-7.56-16.89-16.89h0c0-9.34,7.56-16.91,16.89-16.91M174.98,2519.14c-10.97,0-19.89,8.92-19.89,19.89s8.92,19.91,19.89,19.91,19.89-8.92,19.89-19.89-8.92-19.91-19.89-19.91h0Z"/>
        </g>
        <g>
          <path class="cls-29" d="M485.37,2557.43c-10.14,0-18.39-8.25-18.39-18.39s8.25-18.41,18.39-18.41,18.39,8.25,18.39,18.39-8.25,18.41-18.39,18.41Z"/>
          <path class="cls-63" d="M485.37,2522.14c9.33,0,16.89,7.56,16.89,16.89h0c0,9.34-7.56,16.91-16.89,16.91s-16.89-7.56-16.89-16.89h0c0-9.34,7.56-16.91,16.89-16.91M485.37,2519.14c-10.97,0-19.89,8.92-19.89,19.89s8.92,19.91,19.89,19.91,19.89-8.92,19.89-19.89-8.92-19.91-19.89-19.91h0Z"/>
        </g>
        <g>
          <path class="cls-29" d="M174.98,2874.75c-10.14,0-18.39-8.25-18.39-18.39s8.25-18.41,18.39-18.41,18.39,8.25,18.39,18.39-8.25,18.41-18.39,18.41Z"/>
          <path class="cls-63" d="M174.98,2839.46c9.33,0,16.89,7.56,16.89,16.89h0c0,9.34-7.56,16.91-16.89,16.91s-16.89-7.56-16.89-16.89h0c0-9.34,7.56-16.91,16.89-16.91M174.98,2836.46c-10.97,0-19.89,8.92-19.89,19.89s8.92,19.91,19.89,19.91,19.89-8.92,19.89-19.89-8.92-19.91-19.89-19.91h0Z"/>
        </g>
        <g>
          <path class="cls-28" d="M485.37,2874.75c-10.14,0-18.39-8.25-18.39-18.39s8.25-18.41,18.39-18.41,18.39,8.25,18.39,18.39-8.25,18.41-18.39,18.41Z"/>
          <path class="cls-63" d="M485.37,2839.46c9.33,0,16.89,7.56,16.89,16.89h0c0,9.34-7.56,16.91-16.89,16.91s-16.89-7.56-16.89-16.89h0c0-9.34,7.56-16.91,16.89-16.91M485.37,2836.46c-10.97,0-19.89,8.92-19.89,19.89s8.92,19.91,19.89,19.91,19.89-8.92,19.89-19.89-8.92-19.91-19.89-19.91h0Z"/>
        </g>
        <g>
          <circle class="cls-52" cx="327.15" cy="2671.23" r="146.21"/>
          <path class="cls-24" d="M402.33,2743.51c-18.97,19.73-45.64,32.01-75.18,32.01s-54.05-11.31-72.85-29.67"/>
          <use width="21.05" height="21.63" transform="translate(287.3 2732.57) rotate(135) scale(2.94)" xlink:href="#Arrow"/>
          <use width="21.05" height="21.63" transform="translate(368.85 2732.57) rotate(45) scale(2.94 -2.94)" xlink:href="#Arrow"/>
          <path class="cls-19" d="M285.38,2566.52l34.4-34.4c3.36-3.36,8.8-3.36,12.16,0l34.4,34.4c5.42,5.42,1.58,14.68-6.08,14.68h-68.79c-7.66,0-11.49-9.26-6.08-14.68Z"/>
        </g>
        <text class="cls-5" transform="translate(182.11 2492.29)"><tspan x="0" y="0">RESET </tspan><tspan class="cls-53" x="110.61" y="0">C</tspan><tspan x="131.12" y="0">ONT</tspan><tspan class="cls-45" x="203.86" y="0">R</tspan><tspan x="224.92" y="0">OLS</tspan></text>
      </g>
      <g id="Reset_Laser" data-name="Reset Laser">
        <g>
          <g class="cls-77">
            <rect class="cls-54" x="277.23" y="1981.73" width="85.04" height="296.07" rx="11.64" ry="11.64" transform="translate(2449.51 1810.01) rotate(90)"/>
            <path class="cls-20" d="M224.35,2189.89l-50.86-50.86c-5.12-5.12-5.12-13.42,0-18.54l50.86-50.86M265.9,2069.63l-50.86,50.86c-5.12,5.12-5.12,13.42,0,18.54l50.86,50.86M308.98,2069.63l-50.86,50.86c-5.12,5.12-5.12,13.42,0,18.54l50.86,50.86M414.31,2189.89l50.86-50.86c5.12-5.12,5.12-13.42,0-18.54l-50.86-50.86M372.76,2069.63l50.86,50.86c5.12,5.12,5.12,13.42,0,18.54l-50.86,50.86M329.68,2069.63l50.86,50.86c5.12,5.12,5.12,13.42,0,18.54l-50.86,50.86"/>
          </g>
          <rect class="cls-52" x="171.3" y="2087.48" width="84.57" height="84.57" rx="6.21" ry="6.21" transform="translate(2343.34 1916.18) rotate(90)"/>
          <use width="21.05" height="21.63" transform="translate(243.65 2098.7) rotate(90) scale(2.94)" xlink:href="#Arrow"/>
          <g>
            <path class="cls-29" d="M502.03,2148.15c-10.14,0-18.39-8.25-18.39-18.39s8.25-18.39,18.39-18.39,18.41,8.25,18.41,18.39-8.25,18.39-18.39,18.39h-.01Z"/>
            <path class="cls-63" d="M502.05,2112.87c9.33,0,16.89,7.56,16.89,16.89h0c0,9.33-7.56,16.89-16.89,16.89h-.01c-9.33,0-16.89-7.56-16.89-16.89h0c0-9.33,7.56-16.89,16.89-16.89h.01M502.05,2109.87h-.01c-10.97,0-19.89,8.92-19.89,19.89s8.92,19.89,19.89,19.89,19.91-8.92,19.91-19.89-8.92-19.89-19.89-19.89h0Z"/>
          </g>
          <g>
            <path class="cls-28" d="M136.17,2148.15c-10.14,0-18.39-8.25-18.39-18.39s8.25-18.39,18.39-18.39,18.41,8.25,18.41,18.39-8.25,18.39-18.39,18.39h-.01Z"/>
            <path class="cls-63" d="M136.18,2112.87c9.33,0,16.89,7.56,16.89,16.89h0c0,9.33-7.56,16.89-16.89,16.89h-.01c-9.33,0-16.89-7.56-16.89-16.89h0c0-9.33,7.56-16.89,16.89-16.89h.01M136.18,2109.87h-.01c-10.97,0-19.89,8.92-19.89,19.89s8.92,19.89,19.89,19.89,19.91-8.92,19.91-19.89-8.92-19.89-19.89-19.89h0Z"/>
          </g>
        </g>
        <g>
          <g class="cls-65">
            <rect class="cls-54" x="277.23" y="2134.73" width="85.04" height="296.07" rx="11.64" ry="11.64" transform="translate(2602.51 1963.01) rotate(90)"/>
            <path class="cls-20" d="M224.35,2342.89l-50.86-50.86c-5.12-5.12-5.12-13.42,0-18.54l50.86-50.86M265.9,2222.63l-50.86,50.86c-5.12,5.12-5.12,13.42,0,18.54l50.86,50.86M308.98,2222.63l-50.86,50.86c-5.12,5.12-5.12,13.42,0,18.54l50.86,50.86M414.31,2342.89l50.86-50.86c5.12-5.12,5.12-13.42,0-18.54l-50.86-50.86M372.76,2222.63l50.86,50.86c5.12,5.12,5.12,13.42,0,18.54l-50.86,50.86M329.68,2222.63l50.86,50.86c5.12,5.12,5.12,13.42,0,18.54l-50.86,50.86"/>
          </g>
          <rect class="cls-52" x="171.3" y="2240.48" width="84.57" height="84.57" rx="6.21" ry="6.21" transform="translate(2496.34 2069.18) rotate(90)"/>
          <use width="21.05" height="21.63" transform="translate(245.17 2251.68) rotate(90) scale(2.94)" xlink:href="#Arrow"/>
          <g>
            <path class="cls-29" d="M502.03,2301.16c-10.14,0-18.39-8.25-18.39-18.39s8.25-18.39,18.39-18.39,18.41,8.25,18.41,18.39-8.25,18.39-18.39,18.39h-.01Z"/>
            <path class="cls-63" d="M502.05,2265.87c9.33,0,16.89,7.56,16.89,16.89h0c0,9.33-7.56,16.89-16.89,16.89h-.01c-9.33,0-16.89-7.56-16.89-16.89h0c0-9.33,7.56-16.89,16.89-16.89h.01M502.05,2262.87h-.01c-10.97,0-19.89,8.92-19.89,19.89s8.92,19.89,19.89,19.89,19.91-8.92,19.91-19.89-8.92-19.89-19.89-19.89h0Z"/>
          </g>
          <g>
            <path class="cls-28" d="M136.17,2301.16c-10.14,0-18.39-8.25-18.39-18.39s8.25-18.39,18.39-18.39,18.41,8.25,18.41,18.39-8.25,18.39-18.39,18.39h-.01Z"/>
            <path class="cls-63" d="M136.18,2265.87c9.33,0,16.89,7.56,16.89,16.89h0c0,9.33-7.56,16.89-16.89,16.89h-.01c-9.33,0-16.89-7.56-16.89-16.89h0c0-9.33,7.56-16.89,16.89-16.89h.01M136.18,2262.87h-.01c-10.97,0-19.89,8.92-19.89,19.89s8.92,19.89,19.89,19.89,19.91-8.92,19.91-19.89-8.92-19.89-19.89-19.89h0Z"/>
          </g>
        </g>
        <g>
          <g class="cls-37">
            <rect class="cls-54" x="736.16" y="1981.73" width="85.04" height="296.07" rx="11.64" ry="11.64" transform="translate(2908.44 1351.08) rotate(90)"/>
            <path class="cls-20" d="M874.08,2189.89l50.86-50.86c5.12-5.12,5.12-13.42,0-18.54l-50.86-50.86M832.53,2069.63l50.86,50.86c5.12,5.12,5.12,13.42,0,18.54l-50.86,50.86M789.45,2069.63l50.86,50.86c5.12,5.12,5.12,13.42,0,18.54l-50.86,50.86M684.12,2189.89l-50.86-50.86c-5.12-5.12-5.12-13.42,0-18.54l50.86-50.86M725.67,2069.63l-50.86,50.86c-5.12,5.12-5.12,13.42,0,18.54l50.86,50.86M768.75,2069.63l-50.86,50.86c-5.12,5.12-5.12,13.42,0,18.54l50.86,50.86"/>
          </g>
          <rect class="cls-52" x="736.4" y="2087.48" width="84.57" height="84.57" rx="6.21" ry="6.21" transform="translate(2908.44 1351.08) rotate(90)"/>
          <g>
            <path class="cls-29" d="M596.39,2148.15c-10.14,0-18.39-8.25-18.39-18.39s8.25-18.39,18.39-18.39,18.41,8.25,18.41,18.39-8.25,18.39-18.39,18.39h-.01Z"/>
            <path class="cls-63" d="M596.4,2112.87c9.33,0,16.89,7.56,16.89,16.89h0c0,9.33-7.56,16.89-16.89,16.89h-.01c-9.33,0-16.89-7.56-16.89-16.89h0c0-9.33,7.56-16.89,16.89-16.89h.01M596.4,2109.87h-.01c-10.97,0-19.89,8.92-19.89,19.89s8.92,19.89,19.89,19.89,19.91-8.92,19.91-19.89-8.92-19.89-19.89-19.89h0Z"/>
          </g>
          <g>
            <path class="cls-29" d="M962.25,2148.15c-10.14,0-18.39-8.25-18.39-18.39s8.25-18.39,18.39-18.39,18.41,8.25,18.41,18.39-8.25,18.39-18.39,18.39h-.01Z"/>
            <path class="cls-63" d="M962.26,2112.87c9.33,0,16.89,7.56,16.89,16.89h0c0,9.33-7.56,16.89-16.89,16.89h-.01c-9.33,0-16.89-7.56-16.89-16.89h0c0-9.33,7.56-16.89,16.89-16.89h.01M962.26,2109.87h-.01c-10.97,0-19.89,8.92-19.89,19.89s8.92,19.89,19.89,19.89,19.91-8.92,19.91-19.89-8.92-19.89-19.89-19.89h0Z"/>
          </g>
        </g>
        <g>
          <g class="cls-62">
            <rect class="cls-54" x="736.16" y="2134.73" width="85.04" height="296.07" rx="11.64" ry="11.64" transform="translate(3061.44 1504.08) rotate(90)"/>
            <path class="cls-20" d="M874.08,2342.89l50.86-50.86c5.12-5.12,5.12-13.42,0-18.54l-50.86-50.86M832.53,2222.63l50.86,50.86c5.12,5.12,5.12,13.42,0,18.54l-50.86,50.86M789.45,2222.63l50.86,50.86c5.12,5.12,5.12,13.42,0,18.54l-50.86,50.86M684.12,2342.89l-50.86-50.86c-5.12-5.12-5.12-13.42,0-18.54l50.86-50.86M725.67,2222.63l-50.86,50.86c-5.12,5.12-5.12,13.42,0,18.54l50.86,50.86M768.75,2222.63l-50.86,50.86c-5.12,5.12-5.12,13.42,0,18.54l50.86,50.86"/>
          </g>
          <rect class="cls-52" x="842.32" y="2240.48" width="84.57" height="84.57" rx="6.21" ry="6.21" transform="translate(3167.37 1398.16) rotate(90)"/>
          <use width="21.05" height="21.63" transform="translate(852.67 2313.5) rotate(-90) scale(2.94)" xlink:href="#Arrow"/>
          <g>
            <path class="cls-29" d="M596.39,2301.16c-10.14,0-18.39-8.25-18.39-18.39s8.25-18.39,18.39-18.39,18.41,8.25,18.41,18.39-8.25,18.39-18.39,18.39h-.01Z"/>
            <path class="cls-63" d="M596.4,2265.87c9.33,0,16.89,7.56,16.89,16.89h0c0,9.33-7.56,16.89-16.89,16.89h-.01c-9.33,0-16.89-7.56-16.89-16.89h0c0-9.33,7.56-16.89,16.89-16.89h.01M596.4,2262.87h-.01c-10.97,0-19.89,8.92-19.89,19.89s8.92,19.89,19.89,19.89,19.91-8.92,19.91-19.89-8.92-19.89-19.89-19.89h0Z"/>
          </g>
          <g>
            <path class="cls-28" d="M962.25,2301.16c-10.14,0-18.39-8.25-18.39-18.39s8.25-18.39,18.39-18.39,18.41,8.25,18.41,18.39-8.25,18.39-18.39,18.39h-.01Z"/>
            <path class="cls-63" d="M962.26,2265.87c9.33,0,16.89,7.56,16.89,16.89h0c0,9.33-7.56,16.89-16.89,16.89h-.01c-9.33,0-16.89-7.56-16.89-16.89h0c0-9.33,7.56-16.89,16.89-16.89h.01M962.26,2262.87h-.01c-10.97,0-19.89,8.92-19.89,19.89s8.92,19.89,19.89,19.89,19.91-8.92,19.91-19.89-8.92-19.89-19.89-19.89h0Z"/>
          </g>
        </g>
        <text class="cls-5" transform="translate(442.06 2220.12)"><tspan x="0" y="0">RESET </tspan><tspan class="cls-72" x="110.61" y="0">L</tspan><tspan x="129.95" y="0">ASER</tspan></text>
      </g>
      <g id="System_Upgrades" data-name="System Upgrades">
        <rect class="cls-16" x="207.39" y="2943.97" width="577.13" height="74.4" rx="20.82" ry="20.82"/>
        <rect class="cls-58" x="207.83" y="2943.97" width="707.57" height="74.4" rx="15.88" ry="15.88"/>
        <text class="cls-3" transform="translate(242.01 2993.63)"><tspan class="cls-44" x="0" y="0">S</tspan><tspan x="19.2" y="0">YSTEM UPG</tspan><tspan class="cls-76" x="209.7" y="0">R</tspan><tspan x="231.82" y="0">ADES </tspan><tspan class="cls-1" x="327.79" y="0">AV</tspan><tspan x="369.05" y="0">AI</tspan><tspan class="cls-49" x="401.44" y="0">L</tspan><tspan x="420.78" y="0">ABLE</tspan></text>
        <text class="cls-15" transform="translate(829.64 3002.32)"><tspan x="0" y="0">2</tspan></text>
      </g>
      <rect id="BG-3" data-name="BG" class="cls-66" y="1393.71" width="1090.94" height="1767.32"/>
      <g id="Periscope">
        <rect class="cls-78" x="37.64" y="2257.06" width="1016.29" height="86.08" rx="18.56" ry="18.56"/>
        <path class="cls-78" d="M423.95,1446.18h232.91v1035.69c0,23.14-18.79,41.92-41.92,41.92h-149.06c-23.14,0-41.92-18.79-41.92-41.92v-1035.69h0Z"/>
        <g>
          <path class="cls-11" d="M425.16,2444.47c-39.14,0-75.88-15.3-103.45-43.08-27.57-27.77-42.59-64.63-42.3-103.78.59-79.76,66.65-144.65,147.26-144.65h233.31c40.38,0,77.94,16.14,105.74,45.44,27.79,29.29,41.93,67.69,39.81,108.13-4.04,76.97-67.65,137.55-144.82,137.93h-.73c-40.47,0-79.45-17.04-106.95-46.75-3.68-3.98-8.19-4.57-10.55-4.57s-6.67.57-10.19,4.39c-27.52,29.82-66.56,46.93-107.12,46.93Z"/>
          <path class="cls-74" d="M659.98,2178.7h-233.31c-66.18,0-121.03,52.93-121.52,119.11-.49,66.7,53.43,120.93,120.02,120.93,34.88,0,66.28-14.88,88.21-38.64,15.7-17.01,42.82-16.84,58.54.15,22.04,23.81,53.62,38.67,88.67,38.49,63.21-.31,115.93-50.42,119.24-113.54,3.63-69.22-51.42-126.49-119.85-126.49Z"/>
          <path class="cls-85" d="M659.98,2385.11c-24.34,0-46.85-9.84-63.4-27.72-13.89-15-33.61-23.6-54.11-23.6s-40.04,8.57-53.82,23.5c-16.55,17.94-39.1,27.82-63.49,27.82s-44.97-9.07-61.32-25.53c-16.34-16.46-25.25-38.31-25.07-61.52.35-47.27,39.78-85.73,87.9-85.73h233.31c23.94,0,46.2,9.57,62.68,26.94,16.47,17.36,24.85,40.14,23.58,64.16-2.39,45.58-40.09,81.46-85.83,81.68h-.43Z"/>
        </g>
        <use width="21.05" height="21.63" transform="translate(511.24 2446.85) scale(2.94)" xlink:href="#Arrow"/>
      </g>
      <g id="Monitor">
        <path class="cls-71" d="M82.12,54.81h925.87c15.67,0,28.38,12.72,28.38,28.38v1427.47c0,11.41-9.27,20.68-20.68,20.68H74.42c-11.41,0-20.68-9.27-20.68-20.68V83.2c0-15.67,12.72-28.38,28.38-28.38Z"/>
        <path class="cls-52" d="M1021.32,62.64H68.79c-5.71,0-8.66-6.82-4.75-10.98l32.42-34.55C106.7,6.19,121,0,135.97,0h818.17c14.97,0,29.28,6.19,39.52,17.11l32.42,34.55c3.91,4.16.95,10.98-4.75,10.98Z"/>
        <path class="cls-31" d="M997.23,1425.64c0,36.76-29.8,66.56-66.56,66.56H159.44c-36.76,0-66.56-29.8-66.56-66.56V168.35c0-36.76,29.8-66.56,66.56-66.56h771.23c36.76,0,66.56,29.8,66.56,66.56v1257.29Z"/>
        <rect class="cls-63" x="92.89" y="101.79" width="904.34" height="1390.4" rx="66.56" ry="66.56"/>
        <rect class="cls-57" x="92.89" y="125.28" width="904.34" height="1366.91" rx="66.56" ry="66.56"/>
        <text id="Game_In_Progress" data-name="Game In Progress" class="cls-8" transform="translate(167.84 1463.13)"><tspan class="cls-50" x="0" y="0">C</tspan><tspan x="36.76" y="0">L</tspan><tspan class="cls-84" x="71.46" y="0">E</tspan><tspan class="cls-70" x="110.66" y="0">A</tspan><tspan class="cls-47" x="146.05" y="0">N</tspan><tspan class="cls-73" x="191.72" y="0">I</tspan><tspan class="cls-87" x="208.74" y="0">N</tspan><tspan x="255.88" y="0">G </tspan><tspan class="cls-81" x="321.93" y="0">I</tspan><tspan x="338.94" y="0">N </tspan><tspan class="cls-35" x="410.21" y="0">P</tspan><tspan x="444.97" y="0">R</tspan><tspan class="cls-64" x="482.02" y="0">O</tspan><tspan x="519.16" y="0">G</tspan><tspan class="cls-33" x="558.94" y="0">R</tspan><tspan x="597.55" y="0">E</tspan><tspan class="cls-50" x="635.77" y="0">S</tspan><tspan class="cls-46" x="668.67" y="0">S</tspan><tspan x="697.97" y="0">...</tspan></text>
        <text id="Game_In_Progress-2" data-name="Game In Progress" class="cls-10" transform="translate(155.41 1463.13)"><tspan class="cls-42" x="0" y="0">C</tspan><tspan class="cls-38" x="36.17" y="0">UR</tspan><tspan class="cls-40" x="113" y="0">RE</tspan><tspan class="cls-38" x="191.38" y="0">NT </tspan><tspan class="cls-36" x="304.96" y="0">P</tspan><tspan class="cls-34" x="339.72" y="0">R</tspan><tspan class="cls-38" x="378.33" y="0">E</tspan><tspan class="cls-41" x="416.55" y="0">S</tspan><tspan class="cls-39" x="449.45" y="0">S</tspan><tspan class="cls-38" x="482.55" y="0">U</tspan><tspan class="cls-34" x="522.33" y="0">R</tspan><tspan class="cls-38" x="560.94" y="0">E: </tspan><tspan class="cls-51" x="641.22" y="0">73%</tspan></text>
      </g>
      <g id="Settings">
        <circle class="cls-11" cx="807.98" cy="2858.97" r="42.65"/>
        <path d="M796.81,2826.58c1.31-.22,2.74.1,3.77.94.53.43.76,1.11,1.28,1.57,3.07,2.69,6.81,3.17,10.41,1.27,2.93-1.54,3.23-4.63,7.35-3.65,2.47.59,8.3,3.99,10.15,5.79,3.3,3.22.52,5.23.71,8.67.17,3.07,2.34,6.18,5.12,7.42,2.12.95,4.78.73,5.84,3.27s.95,10.11.24,12.77c-1.23,4.62-4.11,3.02-7.31,4.93-2.36,1.42-4.2,4.72-4.2,7.5s1.94,4.09.64,6.88c-1.06,2.28-8.15,6.41-10.64,7.02-3.9.96-4.47-2.07-6.97-3.74-2.65-1.77-6.22-1.75-9.02-.28-3.07,1.61-3.15,5.19-7.61,4.38-2.27-.42-8.91-4.29-10.53-5.98-2.69-2.79-.66-4.28-.3-6.87.55-3.94-1.21-8.15-4.99-9.77-2.48-1.06-5.42-.37-6.52-3.73-.83-2.52-.68-11.58.66-13.88,1.2-2.06,3.02-1.68,4.85-2.27,4.19-1.36,6.81-5.14,6.29-9.6-.29-2.49-1.96-4.37.32-6.86,1.42-1.56,8.41-5.43,10.46-5.77ZM807.66,2847.65c-14.67.42-14.14,22.83.44,22.69,14.84-.14,14.53-23.12-.44-22.69Z"/>
      </g>
      <text id="Title" class="cls-7" transform="translate(432.33 2885.15)"><tspan class="cls-43" x="0" y="0">G</tspan><tspan x="50.77" y="0">O</tspan><tspan class="cls-56" x="94.43" y="0">O</tspan><tspan class="cls-59" x="138.94" y="0">P</tspan><tspan x="182.79" y="0">S</tspan></text>
      <g id="How_to_Play" data-name="How to Play">
        <circle class="cls-11" cx="281.49" cy="2857.84" r="42.65"/>
        <text class="cls-9" transform="translate(264.7 2888.97)"><tspan x="0" y="0">?</tspan></text>
      </g>
    </g>
  </g>
</svg>