<?xml version="1.0" encoding="UTF-8"?>
<svg id="Layer_2" data-name="Layer 2" xmlns="http://www.w3.org/2000/svg" viewBox="0 0 648 1983.22">
  <defs>
    <style>
      .cls-1 {
        fill: #f6f081;
      }

      .cls-2 {
        fill: #35385b;
      }

      .cls-2, .cls-3, .cls-4, .cls-5, .cls-6, .cls-7, .cls-8, .cls-9, .cls-10, .cls-11, .cls-12, .cls-13, .cls-14, .cls-15, .cls-16 {
        fill-rule: evenodd;
      }

      .cls-17 {
        fill: #2a2d47;
      }

      .cls-18 {
        letter-spacing: -.05em;
      }

      .cls-19 {
        letter-spacing: .01em;
      }

      .cls-20 {
        letter-spacing: .02em;
      }

      .cls-21 {
        fill: #cb8abc;
      }

      .cls-22 {
        fill: #fff;
      }

      .cls-23 {
        letter-spacing: .02em;
      }

      .cls-24 {
        letter-spacing: 0em;
      }

      .cls-25 {
        fill: #d36b28;
      }

      .cls-3 {
        fill: #4c833c;
      }

      .cls-26 {
        fill: #eebfc5;
      }

      .cls-27, .cls-28 {
        fill: #6acbda;
      }

      .cls-27, .cls-29 {
        font-family: AmazonEmber-Heavy, 'Amazon Ember';
        font-weight: 800;
      }

      .cls-27, .cls-30 {
        font-size: 34.88px;
      }

      .cls-31 {
        letter-spacing: -.06em;
      }

      .cls-32, .cls-4, .cls-33 {
        fill: #59acae;
      }

      .cls-34 {
        letter-spacing: .04em;
      }

      .cls-35 {
        letter-spacing: -.02em;
      }

      .cls-36 {
        letter-spacing: .02em;
      }

      .cls-37, .cls-13 {
        fill: none;
      }

      .cls-38 {
        letter-spacing: .02em;
      }

      .cls-39, .cls-30 {
        fill: #ffd92b;
      }

      .cls-40 {
        letter-spacing: .03em;
      }

      .cls-41 {
        letter-spacing: 0em;
      }

      .cls-5, .cls-42 {
        fill: #45486c;
      }

      .cls-43 {
        letter-spacing: -.05em;
      }

      .cls-44 {
        letter-spacing: -.06em;
      }

      .cls-45 {
        letter-spacing: .03em;
      }

      .cls-6 {
        fill: #474871;
      }

      .cls-28, .cls-46, .cls-47, .cls-42, .cls-48 {
        font-family: AmazonEmber-Regular, 'Amazon Ember';
      }

      .cls-28, .cls-42 {
        font-size: 20.93px;
      }

      .cls-49 {
        letter-spacing: 0em;
      }

      .cls-50 {
        letter-spacing: .02em;
      }

      .cls-51 {
        fill: #1f1f38;
      }

      .cls-52 {
        letter-spacing: -.04em;
      }

      .cls-7 {
        fill: #616a79;
      }

      .cls-53 {
        letter-spacing: -.02em;
      }

      .cls-8 {
        fill: #803d83;
      }

      .cls-54 {
        fill: #0d1a19;
      }

      .cls-9, .cls-47, .cls-48 {
        fill: #aad9d9;
      }

      .cls-55 {
        letter-spacing: .02em;
      }

      .cls-56 {
        fill: #f2a743;
      }

      .cls-10, .cls-15 {
        fill: #d8672b;
      }

      .cls-11 {
        fill: #231f20;
      }

      .cls-47 {
        font-size: 19.19px;
      }

      .cls-57 {
        letter-spacing: -.02em;
      }

      .cls-12 {
        fill: #0f1829;
      }

      .cls-58 {
        font-size: 62.79px;
      }

      .cls-58, .cls-59 {
        fill: #5bbc70;
      }

      .cls-58, .cls-60 {
        font-family: FromWhereYouAre, 'From Where You Are';
      }

      .cls-13 {
        stroke: #1d1d3a;
        stroke-miterlimit: 10;
        stroke-width: 5px;
      }

      .cls-61 {
        fill: #0b1c3f;
      }

      .cls-62 {
        letter-spacing: -.04em;
      }

      .cls-63 {
        letter-spacing: .01em;
      }

      .cls-64 {
        letter-spacing: .01em;
      }

      .cls-65 {
        letter-spacing: .05em;
      }

      .cls-14 {
        fill: #3d8380;
      }

      .cls-66 {
        letter-spacing: .02em;
      }

      .cls-15 {
        opacity: .25;
      }

      .cls-33 {
        font-size: 17.44px;
      }

      .cls-67 {
        fill: #087962;
      }

      .cls-68 {
        letter-spacing: -.03em;
      }

      .cls-30 {
        font-family: AmazonEmber-Bold, 'Amazon Ember';
        font-weight: 700;
      }

      .cls-60 {
        fill: #f1a941;
        font-size: 29.65px;
      }

      .cls-69 {
        letter-spacing: .03em;
      }

      .cls-70 {
        fill: #373a60;
      }

      .cls-16 {
        fill: #f8aaa1;
      }

      .cls-48 {
        font-size: 15.7px;
      }

      .cls-71 {
        fill: #96d7dd;
      }

      .cls-72 {
        letter-spacing: .02em;
      }

      .cls-73 {
        letter-spacing: -.05em;
      }
    </style>
  </defs>
  <g id="MainMenu">
    <g>
      <rect id="BG" class="cls-17" y="827.84" width="648" height="1152"/>
      <g id="Console_Base" data-name="Console Base">
        <polygon class="cls-12" points="42.37 1807.1 54.73 1865.36 592.78 1865.36 605.14 1807.1 42.37 1807.1"/>
        <path class="cls-7" d="M615.77,1807.1l14.87-84.85c.65-3.69-2.19-7.08-5.94-7.08H22.81c-3.75,0-6.59,3.38-5.94,7.08l14.87,84.85h584.04Z"/>
        <path class="cls-4" d="M583.65,1441.46H63.86l-47.08,283.09c-.6,3.61,2,6.92,5.44,6.92h603.07c3.44,0,6.04-3.31,5.44-6.92l-47.08-283.09Z"/>
        <text class="cls-48" transform="translate(83.81 1855.15)"><tspan class="cls-52" x="0" y="0">V</tspan><tspan x="9.49" y="0">ersion </tspan><tspan class="cls-55" x="56.85" y="0">X.X.</tspan><tspan x="84.82" y="0">X</tspan></text>
        <text class="cls-48" transform="translate(442.36 1855.15)"><tspan x="0" y="0">Muz</tspan><tspan class="cls-49" x="29.67" y="0">z</tspan><tspan x="37.29" y="0">yMade @ 2026</tspan></text>
        <text class="cls-47" transform="translate(259.17 1855.99)"><tspan x="0" y="0">WIPE S</tspan><tspan class="cls-44" x="61.36" y="0">A</tspan><tspan x="72.61" y="0">VE </tspan><tspan class="cls-62" x="100.66" y="0">D</tspan><tspan class="cls-73" x="113.22" y="0">AT</tspan><tspan x="134.62" y="0">A</tspan></text>
        <path id="Trashcan" class="cls-32" d="M237.88,1840.61h14.55c.46.03.69.29.64.76-.31,4-.59,8.01-.9,12.01-.06.77-.07,1.57-.15,2.34-.11,1.05-.67,1.79-1.71,2.04-3.3.1-6.62.01-9.93.04-1.09-.07-1.91-.88-2.02-1.96-.27-3.77-.54-7.55-.81-11.32-.07-.99-.2-2.01-.24-3-.02-.48,0-.84.56-.9ZM240.87,1842.35c-.13.03-.32.22-.34.34-.06.31.02.81.02,1.13.07,2.82.18,5.63.27,8.45.03.82-.01,1.72.06,2.52.06.73.96.7,1.02.03.03-.37-.05-.93-.06-1.32-.09-3.11-.18-6.23-.3-9.34-.02-.43.03-1-.03-1.41-.05-.3-.35-.46-.64-.4ZM245.06,1842.35c-.23.04-.37.26-.38.49v11.98c.06.72,1.03.63,1.02-.06v-11.86c-.02-.37-.26-.61-.64-.55ZM249.34,1855.18s.11-.18.12-.22c.02-.1.03-.35.04-.47.12-2.38.11-4.77.18-7.16.04-1.46.15-2.94.15-4.4,0-.34-.17-.59-.53-.59-.64.01-.48.79-.49,1.22-.11,3.13-.19,6.27-.27,9.4-.01.58-.11,1.32-.06,1.89.04.44.56.63.86.33ZM240.61,1836.42c.1-1,1.08-1.87,2.08-1.9,1.7.08,3.5-.11,5.18,0,.98.06,2.11.92,2.11,1.96v.7s.08-.03.13-.03c.58-.01,1.22-.02,1.8,0,.74.02,1.37.09,1.77.81.26.46.44,1.47-.25,1.64h-16.41c-.8-.06-.59-1.21-.31-1.68.25-.42.8-.77,1.3-.77h2.55s.02.04.04.03c.02-.25-.02-.52,0-.76ZM248.66,1837.19v-.64s-.09-.24-.11-.28c-.15-.27-.43-.41-.74-.43-1.65-.12-3.45.09-5.12,0-.28-.02-.77.41-.77.67v.67h6.74Z"/>
      </g>
      <g id="Console_Back" data-name="Console Back">
        <path class="cls-7" d="M614.41,1089.7H33.1c-9.26,0-16.32,7.55-15.79,16.86l18.54,321.98c.39,6.78,5.81,12.28,12.11,12.28h551.59c6.3,0,11.72-5.5,12.11-12.28l18.54-321.98c.54-9.31-6.53-16.86-15.79-16.86Z"/>
        <path class="cls-9" d="M622.02,1094.35H25.49c-3.37,0-5.34-4.05-3.17-6.52l18.06-20.52c5.74-6.49,14.04-10.16,22.94-10.16h520.89c8.89,0,17.2,3.68,22.94,10.16l18.06,20.52c2.17,2.47.19,6.52-3.17,6.52Z"/>
        <path class="cls-13" d="M592.7,1378.03c-1.16,21.83-18.62,39.53-38.99,39.53H93.79c-20.37,0-37.82-17.7-38.99-39.53l-11.76-220.89c-1.16-21.83,15.4-39.53,36.98-39.53h487.46c21.59,0,38.15,17.7,36.98,39.53l-11.76,220.89Z"/>
        <path class="cls-2" d="M567.48,1117.6H80.03c-21.59,0-38.15,17.7-36.98,39.53l11.76,220.89c1.16,21.83,18.62,39.53,38.99,39.53h459.93c20.37,0,37.82-17.7,38.99-39.53l11.76-220.89c1.16-21.83-15.4-39.53-36.98-39.53Z"/>
        <path class="cls-6" d="M566.84,1131.56H80.67c-21.53,0-38.04,17.7-36.88,39.53l11.02,206.94c1.16,21.83,18.62,39.53,38.99,39.53h459.93c20.37,0,37.82-17.7,38.99-39.53l11.02-206.94c1.16-21.83-15.35-39.53-36.88-39.53Z"/>
      </g>
      <g id="Operator_Rank_-_meter" data-name="Operator Rank - meter">
        <path class="cls-59" d="M558.05,1204.98H91.79c-5.73,0-10.38-4.66-10.38-10.38s4.66-10.38,10.38-10.38h466.26c5.73,0,10.38,4.66,10.38,10.38s-4.66,10.38-10.38,10.38ZM91.79,1185.21c-5.17,0-9.38,4.21-9.38,9.38s4.21,9.38,9.38,9.38h466.26c5.17,0,9.38-4.21,9.38-9.38s-4.21-9.38-9.38-9.38H91.79Z"/>
        <path id="Meter_Fill" data-name="Meter Fill" class="cls-59" d="M91.79,1184.71h363.9c.66,0,1.2.54,1.2,1.2v17.36c0,.66-.54,1.2-1.2,1.2H91.79c-5.45,0-9.88-4.43-9.88-9.88h0c0-5.45,4.43-9.88,9.88-9.88Z"/>
        <text class="cls-33" transform="translate(401.92 1169.09)"><tspan class="cls-46" x="0" y="0" xml:space="preserve">10,347 / 12,500  </tspan><tspan class="cls-29" x="137.32" y="0">XP</tspan></text>
        <text class="cls-27" transform="translate(256.63 1172.42)"><tspan x="0" y="0">2</tspan></text>
        <text class="cls-28" transform="translate(82.7 1170.93)"><tspan x="0" y="0">OPE</tspan><tspan class="cls-66" x="40.54" y="0">R</tspan><tspan class="cls-43" x="53.68" y="0">A</tspan><tspan class="cls-68" x="66.07" y="0">T</tspan><tspan x="77.45" y="0">OR </tspan><tspan class="cls-66" x="112.01" y="0">R</tspan><tspan x="125.16" y="0">ANK</tspan></text>
      </g>
      <g id="Reset_Lights" data-name="Reset Lights">
        <polygon class="cls-5" points="608.7 1720.12 341.17 1720.12 341.17 1452.22 564.14 1452.22 608.7 1720.12"/>
        <g>
          <rect class="cls-26" x="356.86" y="1530.44" width="50.51" height="175.86" rx="6.92" ry="6.92"/>
          <path class="cls-15" d="M377.67,1532.56l-20.81,20.81v-4.24l18.68-18.68h13.15l18.68,18.68v4.24l-20.81-20.81c-2.45-2.45-6.44-2.45-8.89,0ZM407.37,1682.88l-20.81,20.81c-2.45,2.45-6.44,2.45-8.89,0l-20.81-20.81v4.24l18.69,18.69c.18.18.36.34.55.49h12.04c.19-.16.37-.32.55-.49l18.69-18.69v-4.24ZM386.56,1679.01c-1.19,1.19-2.77,1.84-4.45,1.84s-3.26-.65-4.45-1.84l-20.81-20.81v4.24l18.69,18.69c1.75,1.75,4.09,2.72,6.57,2.72s4.81-.97,6.57-2.72l18.69-18.69v-4.24l-20.81,20.81ZM382.12,1552.39c-2.48,0-4.81.97-6.57,2.72l-18.69,18.69v4.24l20.81-20.81c1.19-1.19,2.77-1.84,4.45-1.84s3.26.65,4.45,1.84l20.81,20.81v-4.24l-18.69-18.69c-1.75-1.75-4.09-2.72-6.57-2.72ZM386.56,1653.42c-2.45,2.45-6.44,2.45-8.89,0l-20.81-20.81v4.24l18.69,18.69c1.81,1.81,4.19,2.72,6.57,2.72s4.76-.91,6.57-2.72l18.69-18.69v-4.24l-20.81,20.81ZM375.55,1580.7l-18.69,18.69v4.24l20.81-20.81c2.45-2.45,6.44-2.45,8.89,0l20.81,20.81v-4.24l-18.69-18.69c-3.62-3.62-9.52-3.62-13.14,0Z"/>
          <rect class="cls-25" x="357" y="1530.34" width="50.23" height="50.23" rx="3.69" ry="3.69"/>
          <path class="cls-22" d="M363.65,1571.77v-.79l.25-.79c4.83-6.32,10.14-12.3,15.13-18.51,1.28-1.63,3.38-1.87,4.88-.36l15.52,17.83c.48.54.78,1.12.93,1.83-.02.25.03.54,0,.79-.16,1.32-1.37,2.52-2.69,2.65h-31.12c-1.43-.04-2.72-1.25-2.9-2.65ZM366.24,1560.76c1.21-1.46,2.42-2.91,3.61-4.34,1.99-2.38,4.05-4.84,6.02-7.29,1.42-1.82,3.54-2.89,5.77-2.89,1.91,0,3.75.78,5.16,2.21l.09.09,10.66,12.24h.12c1.32-.13,2.53-1.34,2.69-2.65.03-.25-.02-.54,0-.79-.16-.71-.45-1.28-.93-1.83l-15.52-17.83c-1.5-1.51-3.6-1.28-4.88.36-4.99,6.21-10.3,12.19-15.13,18.51l-.25.79v.79c.16,1.3,1.28,2.42,2.58,2.62Z"/>
          <path class="cls-10" d="M382.12,1520.87c-6.36,0-11.53-5.17-11.53-11.53s5.17-11.54,11.53-11.54,11.53,5.17,11.53,11.53-5.17,11.54-11.53,11.54Z"/>
          <path class="cls-51" d="M382.12,1499.29c5.54,0,10.03,4.49,10.03,10.03h0c0,5.55-4.49,10.04-10.03,10.04s-10.03-4.49-10.03-10.03h0c0-5.55,4.49-10.04,10.03-10.04M382.12,1496.29c-7.19,0-13.03,5.85-13.03,13.03s5.85,13.04,13.03,13.04,13.03-5.85,13.03-13.03-5.85-13.04-13.03-13.04h0Z"/>
        </g>
        <g id="Blue_Button" data-name="Blue Button">
          <g id="Down">
            <path class="cls-54" d="M473.5,1556.1c-23.73,0-42.31-13.83-42.31-31.48s18.58-31.48,42.31-31.48,42.31,13.83,42.31,31.48-18.59,31.48-42.31,31.48Z"/>
            <path class="cls-14" d="M505.69,1523.51c0,11.84-14.45,21.44-32.27,21.44s-32.27-9.6-32.27-21.44c0-8.74.25-8.47.25-8.47h64.43s-.15.99-.15,8.47Z"/>
            <ellipse class="cls-71" cx="473.5" cy="1516.14" rx="32.27" ry="21.44"/>
          </g>
          <g>
            <path class="cls-54" d="M473.5,1556.1c-23.73,0-42.31-13.83-42.31-31.48s18.58-31.48,42.31-31.48,42.31,13.83,42.31,31.48-18.59,31.48-42.31,31.48Z"/>
            <path class="cls-14" d="M505.69,1523.51c0,11.84-14.45,21.44-32.27,21.44s-32.27-9.6-32.27-21.44c0-8.74.25-20.68.25-20.68h64.43s-.15,13.21-.15,20.68Z"/>
            <ellipse class="cls-71" cx="473.5" cy="1503.92" rx="32.27" ry="21.44"/>
          </g>
          <g>
            <path class="cls-10" d="M546.19,1532.2c-6.36,0-11.53-5.17-11.53-11.53s5.17-11.54,11.53-11.54,11.53,5.17,11.53,11.53-5.17,11.54-11.53,11.54Z"/>
            <path class="cls-51" d="M546.19,1510.62c5.54,0,10.03,4.49,10.03,10.03h0c0,5.55-4.49,10.04-10.03,10.04s-10.03-4.49-10.03-10.03h0c0-5.55,4.49-10.04,10.03-10.04M546.19,1507.62c-7.19,0-13.03,5.85-13.03,13.03s5.85,13.04,13.03,13.04,13.03-5.85,13.03-13.03-5.85-13.04-13.03-13.04h0Z"/>
          </g>
        </g>
        <g id="Purple_Button" data-name="Purple Button">
          <g id="Down-2" data-name="Down">
            <path class="cls-54" d="M486.82,1709.34c-23.73,0-42.31-13.83-42.31-31.48s18.58-31.48,42.31-31.48,42.31,13.83,42.31,31.48-18.59,31.48-42.31,31.48Z"/>
            <path class="cls-8" d="M519.01,1676.76c0,11.84-14.45,21.44-32.27,21.44s-32.27-9.6-32.27-21.44c0-8.74.25-8.47.25-8.47h64.43s-.15.99-.15,8.47Z"/>
            <ellipse class="cls-21" cx="486.82" cy="1669.39" rx="32.27" ry="21.44"/>
          </g>
          <g>
            <path class="cls-54" d="M486.82,1709.34c-23.73,0-42.31-13.83-42.31-31.48s18.58-31.48,42.31-31.48,42.31,13.83,42.31,31.48-18.59,31.48-42.31,31.48Z"/>
            <path class="cls-8" d="M519.01,1676.76c0,11.84-14.45,21.44-32.27,21.44s-32.27-9.6-32.27-21.44c0-8.74.25-20.68.25-20.68h64.43s-.15,13.21-.15,20.68Z"/>
            <ellipse class="cls-21" cx="486.82" cy="1657.17" rx="32.27" ry="21.44"/>
          </g>
          <g>
            <path class="cls-10" d="M565.12,1689.3c-6.36,0-11.53-5.17-11.53-11.53s5.17-11.54,11.53-11.54,11.53,5.17,11.53,11.53-5.17,11.54-11.53,11.54Z"/>
            <path class="cls-51" d="M565.12,1667.73c5.54,0,10.03,4.49,10.03,10.03h0c0,5.55-4.49,10.04-10.03,10.04h0c-5.54,0-10.03-4.49-10.03-10.03h0c0-5.55,4.49-10.04,10.03-10.04h0M565.12,1664.73c-7.19,0-13.03,5.85-13.03,13.03s5.85,13.04,13.03,13.04,13.03-5.85,13.03-13.03-5.85-13.04-13.03-13.04h0Z"/>
          </g>
        </g>
        <g id="Green_Button" data-name="Green Button">
          <g id="Down-3" data-name="Down">
            <path class="cls-54" d="M479.81,1632.2c-23.73,0-42.31-13.83-42.31-31.48s18.58-31.48,42.31-31.48,42.31,13.83,42.31,31.48-18.59,31.48-42.31,31.48Z"/>
            <path class="cls-3" d="M512,1599.61c0,11.84-14.45,21.44-32.27,21.44s-32.27-9.6-32.27-21.44c0-8.74.25-8.47.25-8.47h64.43s-.15.99-.15,8.47Z"/>
            <ellipse class="cls-1" cx="479.81" cy="1592.24" rx="32.27" ry="21.44"/>
          </g>
          <g id="Up">
            <path class="cls-54" d="M479.81,1632.2c-23.73,0-42.31-13.83-42.31-31.48s18.58-31.48,42.31-31.48,42.31,13.83,42.31,31.48-18.59,31.48-42.31,31.48Z"/>
            <path class="cls-3" d="M512,1599.61c0,11.84-14.45,21.44-32.27,21.44s-32.27-9.6-32.27-21.44c0-8.74.25-20.68.25-20.68h64.43s-.15,13.21-.15,20.68Z"/>
            <ellipse class="cls-1" cx="479.81" cy="1580.02" rx="32.27" ry="21.44"/>
          </g>
          <path class="cls-11" d="M554.61,1609c-6.36,0-11.53-5.17-11.53-11.53s5.17-11.54,11.53-11.54,11.53,5.17,11.53,11.53-5.17,11.54-11.53,11.54Z"/>
          <path class="cls-51" d="M554.61,1587.42c5.54,0,10.03,4.49,10.03,10.03h0c0,5.55-4.49,10.04-10.03,10.04s-10.03-4.49-10.03-10.03h0c0-5.55,4.49-10.04,10.03-10.04M554.61,1584.42c-7.19,0-13.03,5.85-13.03,13.03s5.85,13.04,13.03,13.04,13.03-5.85,13.03-13.03-5.85-13.04-13.03-13.04h0Z"/>
        </g>
        <text class="cls-28" transform="translate(385.44 1478.05)"><tspan x="0" y="0">RESET LIGHTS</tspan></text>
      </g>
      <g id="Reset_Controls" data-name="Reset Controls">
        <path class="cls-5" d="M290.21,1663.73c10.78-17.3,17.01-37.73,17.01-59.61,0-23.97-7.48-46.2-20.22-64.48,7.77-.06,15.53-3.05,21.46-8.98,11.98-11.98,11.98-31.4,0-43.37-1.9-1.9-3.99-3.5-6.21-4.8-.5-17.51-14.85-31.56-32.48-31.56H121.34c-17.78,0-32.22,14.28-32.49,32-1.95,1.22-3.81,2.66-5.5,4.36-11.98,11.98-11.98,31.4,0,43.37,5.16,5.16,11.69,8.09,18.42,8.8-12.82,18.31-20.34,40.6-20.34,64.65,0,22.08,6.34,42.67,17.3,60.07-5.63,1.18-11,3.95-15.38,8.32-11.98,11.98-11.98,31.4,0,43.37,11.98,11.98,31.4,11.98,43.37,0,4.44-4.44,7.23-9.91,8.38-15.64,17.22,10.63,37.5,16.77,59.22,16.77,22.93,0,44.26-6.84,62.07-18.59.88,6.39,3.78,12.55,8.69,17.46,11.98,11.98,31.4,11.98,43.37,0,11.98-11.98,11.98-31.4,0-43.37-5.11-5.11-11.58-8.03-18.24-8.78Z"/>
        <circle class="cls-54" cx="194.32" cy="1604.12" r="97.6"/>
        <path class="cls-11" d="M103.94,1519.68c-6.36,0-11.53-5.17-11.53-11.53s5.17-11.54,11.53-11.54,11.53,5.17,11.53,11.53-5.17,11.54-11.53,11.54Z"/>
        <path class="cls-51" d="M103.94,1498.11c5.54,0,10.03,4.49,10.03,10.03h0c0,5.55-4.49,10.04-10.03,10.04h0c-5.54,0-10.03-4.49-10.03-10.03h0c0-5.55,4.49-10.04,10.03-10.04h0M103.94,1495.11c-7.19,0-13.03,5.85-13.03,13.03s5.85,13.04,13.03,13.04,13.03-5.85,13.03-13.03-5.85-13.04-13.03-13.04h0Z"/>
        <path class="cls-11" d="M288.3,1519.68c-6.36,0-11.53-5.17-11.53-11.53s5.17-11.54,11.53-11.54,11.53,5.17,11.53,11.53-5.17,11.54-11.53,11.54Z"/>
        <path class="cls-51" d="M288.3,1498.11c5.54,0,10.03,4.49,10.03,10.03h0c0,5.55-4.49,10.04-10.03,10.04h0c-5.54,0-10.03-4.49-10.03-10.03h0c0-5.55,4.49-10.04,10.03-10.04h0M288.3,1495.11c-7.19,0-13.03,5.85-13.03,13.03s5.85,13.04,13.03,13.04,13.03-5.85,13.03-13.03-5.85-13.04-13.03-13.04h0Z"/>
        <path class="cls-11" d="M103.94,1708.16c-6.36,0-11.53-5.17-11.53-11.53s5.17-11.54,11.53-11.54,11.53,5.17,11.53,11.53-5.17,11.54-11.53,11.54Z"/>
        <path class="cls-51" d="M103.94,1686.59c5.54,0,10.03,4.49,10.03,10.03h0c0,5.55-4.49,10.04-10.03,10.04h0c-5.54,0-10.03-4.49-10.03-10.03h0c0-5.55,4.49-10.04,10.03-10.04h0M103.94,1683.59c-7.19,0-13.03,5.85-13.03,13.03s5.85,13.04,13.03,13.04,13.03-5.85,13.03-13.03-5.85-13.04-13.03-13.04h0Z"/>
        <path class="cls-10" d="M288.3,1708.16c-6.36,0-11.53-5.17-11.53-11.53s5.17-11.54,11.53-11.54,11.53,5.17,11.53,11.53-5.17,11.54-11.53,11.54Z"/>
        <path class="cls-51" d="M288.3,1686.59c5.54,0,10.03,4.49,10.03,10.03h0c0,5.55-4.49,10.04-10.03,10.04h0c-5.54,0-10.03-4.49-10.03-10.03h0c0-5.55,4.49-10.04,10.03-10.04h0M288.3,1683.59c-7.19,0-13.03,5.85-13.03,13.03s5.85,13.04,13.03,13.04,13.03-5.85,13.03-13.03-5.85-13.04-13.03-13.04h0Z"/>
        <g>
          <circle class="cls-25" cx="194.32" cy="1586.66" r="86.84"/>
          <path class="cls-22" d="M137.47,1616.43c-1.58,1.58-2.32,3.83-2.04,6.12.34,3.11.62,6.31.9,9.41.16,1.85.34,3.73.52,5.62-1.06.78-2.64.78-3.68-.02l-.56-.56-.38-.74c-1.05-7.88-1.53-15.87-2.39-23.78-.25-2.06,1.07-3.71,3.2-3.7l23.58,1.63c.72.04,1.34.24,1.95.63.16.19.4.36.56.56.82,1.04.82,2.75-.03,3.78l-.09.09-16.2-1.12h-.13c-2.01,0-3.86.74-5.21,2.09ZM247.06,1618.41l-23.58,1.63c-.72.04-1.34.24-1.95.63-.16.19-.4.36-.56.56-.82,1.04-.82,2.75.03,3.78l8.76,8.77c-10.15,7.68-22.44,11.83-35.44,11.83s-24.76-3.99-34.81-11.37l9.23-9.23c.84-1.03.84-2.73.03-3.78-.15-.2-.39-.36-.56-.56-.61-.39-1.23-.59-1.95-.63l-23.58-1.63c-2.13,0-3.45,1.64-3.2,3.7.86,7.92,1.34,15.9,2.39,23.78l.38.74.56.56c1.12.87,2.89.81,3.93-.17l8.5-8.5c11.21,8.48,24.82,13.09,39.09,13.09s28.41-4.76,39.72-13.55l8.96,8.96c1.04.98,2.81,1.04,3.93.17l.56-.56.38-.74c1.05-7.88,1.53-15.87,2.39-23.78.25-2.06-1.07-3.71-3.2-3.7ZM256.7,1608.78l-23.58,1.63c-.72.04-1.34.24-1.95.63-.16.19-.4.36-.56.56-.82,1.04-.82,2.75.03,3.78l.09.09,16.2-1.12h.13c2.01,0,3.86.74,5.21,2.09,1.58,1.58,2.32,3.83,2.04,6.12-.34,3.11-.62,6.31-.9,9.41-.16,1.85-.34,3.73-.52,5.62,1.06.78,2.64.78,3.68-.02l.56-.56.38-.74c1.05-7.88,1.53-15.87,2.39-23.78.25-2.06-1.07-3.71-3.2-3.7ZM173.12,1533.19h40.86c4.55,0,6.83-5.5,3.61-8.72l-20.43-20.43c-1.99-1.99-5.23-1.99-7.22,0l-20.43,20.43c-3.22,3.22-.94,8.72,3.61,8.72Z"/>
        </g>
        <text class="cls-28" transform="translate(108.17 1480.38)"><tspan x="0" y="0">RESET </tspan><tspan class="cls-53" x="65.7" y="0">C</tspan><tspan x="77.88" y="0">ONT</tspan><tspan class="cls-35" x="121.09" y="0">R</tspan><tspan x="133.6" y="0">OLS</tspan></text>
      </g>
      <g id="Reset_Laser" data-name="Reset Laser">
        <rect class="cls-26" x="164.67" y="1177.11" width="50.51" height="175.86" rx="6.92" ry="6.92" transform="translate(1454.97 1075.12) rotate(90)"/>
        <path class="cls-16" d="M175.19,1290.3h-4.24l-18.69-18.69c-3.62-3.62-3.62-9.52,0-13.14l18.69-18.69h4.24l-20.81,20.81c-2.45,2.45-2.45,6.44,0,8.89l20.81,20.81ZM128.79,1269.49c-2.45-2.45-2.45-6.44,0-8.89l20.81-20.81h-4.24l-18.69,18.69c-1.75,1.75-2.72,4.09-2.72,6.57s.97,4.81,2.72,6.57l18.69,18.69h4.24l-20.81-20.81ZM124.92,1239.79h-4.24l-18.68,18.68v13.15l18.68,18.68h4.24l-20.81-20.81c-2.45-2.45-2.45-6.44,0-8.89l20.81-20.81ZM252.69,1271.61c3.62-3.62,3.62-9.52,0-13.14l-18.69-18.69h-4.24l20.81,20.81c2.45,2.45,2.45,6.44,0,8.89l-20.81,20.81h4.24l18.69-18.69ZM204.16,1290.3h4.24l18.69-18.69c1.75-1.75,2.72-4.09,2.72-6.57s-.97-4.81-2.72-6.57l-18.69-18.69h-4.24l20.81,20.81c2.45,2.45,2.45,6.44,0,8.89l-20.81,20.81ZM277.36,1271.61c.17-.17.33-.36.49-.54v-12.05c-.16-.19-.32-.37-.49-.54l-18.69-18.69h-4.24l20.81,20.81c2.45,2.45,2.45,6.44,0,8.89l-20.81,20.81h4.24l18.69-18.69Z"/>
        <rect class="cls-25" x="101.75" y="1239.93" width="50.23" height="50.23" rx="3.69" ry="3.69" transform="translate(1391.9 1138.18) rotate(90)"/>
        <path class="cls-22" d="M142.07,1283.31h-.79l-.79-.25c-6.32-4.83-12.3-10.14-18.51-15.13-1.63-1.28-1.87-3.38-.36-4.88l17.83-15.52c.54-.48,1.12-.78,1.83-.93.25.02.54-.03.79,0,1.32.16,2.52,1.37,2.65,2.69v31.12c-.04,1.43-1.25,2.72-2.65,2.9ZM131.06,1280.73c-1.46-1.21-2.91-2.42-4.34-3.61-2.38-1.99-4.84-4.05-7.29-6.02-1.82-1.42-2.89-3.54-2.89-5.77,0-1.91.78-3.75,2.21-5.16l.09-.09,12.24-10.66v-.12c-.13-1.32-1.34-2.53-2.65-2.69-.25-.03-.54.02-.79,0-.71.16-1.28.45-1.83.93l-17.83,15.52c-1.51,1.5-1.28,3.6.36,4.88,6.21,4.99,12.19,10.3,18.51,15.13l.79.25h.79c1.3-.16,2.42-1.28,2.62-2.58Z"/>
        <path class="cls-11" d="M298.2,1276.58c-6.36,0-11.53-5.17-11.53-11.53s5.17-11.53,11.53-11.53,11.54,5.17,11.54,11.53-5.17,11.53-11.53,11.53h0Z"/>
        <path class="cls-51" d="M298.21,1255.01c5.54,0,10.03,4.49,10.03,10.03s-4.49,10.03-10.03,10.03h0c-5.54,0-10.03-4.49-10.03-10.03s4.49-10.03,10.03-10.03h0M298.21,1252.01h0c-7.19,0-13.03,5.85-13.03,13.03s5.85,13.03,13.03,13.03,13.04-5.85,13.04-13.03-5.85-13.03-13.03-13.03h0Z"/>
        <path class="cls-10" d="M80.88,1276.58c-6.36,0-11.53-5.17-11.53-11.53s5.17-11.53,11.53-11.53,11.54,5.17,11.54,11.53-5.17,11.53-11.53,11.53h0Z"/>
        <path class="cls-51" d="M80.89,1255.01c5.54,0,10.03,4.49,10.03,10.03s-4.49,10.03-10.03,10.03h0c-5.54,0-10.03-4.49-10.03-10.03s4.49-10.03,10.03-10.03h0M80.89,1252.01h0c-7.19,0-13.03,5.85-13.03,13.03s5.85,13.03,13.03,13.03,13.04-5.85,13.04-13.03-5.85-13.03-13.03-13.03h0Z"/>
        <rect class="cls-26" x="164.67" y="1267.99" width="50.51" height="175.86" rx="6.92" ry="6.92" transform="translate(1545.85 1166) rotate(90)"/>
        <path class="cls-16" d="M149.6,1381.18h-4.24l-18.69-18.69c-1.75-1.75-2.72-4.09-2.72-6.57s.97-4.81,2.72-6.57l18.69-18.69h4.24l-20.81,20.81c-2.45,2.45-2.45,6.44,0,8.89l20.81,20.81ZM154.38,1360.37c-2.45-2.45-2.45-6.44,0-8.89l20.81-20.81h-4.24l-18.69,18.69c-3.62,3.62-3.62,9.52,0,13.14l18.69,18.69h4.24l-20.81-20.81ZM124.92,1330.67h-4.24l-18.68,18.68v13.15l18.68,18.68h4.24l-20.81-20.81c-2.45-2.45-2.45-6.44,0-8.89l20.81-20.81ZM277.36,1362.49c.18-.18.34-.36.49-.55v-12.04c-.16-.19-.32-.37-.49-.55l-18.69-18.69h-4.24l20.81,20.81c2.45,2.45,2.45,6.44,0,8.89l-20.81,20.81h4.24l18.69-18.69ZM204.16,1381.18h4.24l18.69-18.69c3.62-3.62,3.62-9.52,0-13.14l-18.69-18.69h-4.24l20.81,20.81c1.19,1.19,1.84,2.77,1.84,4.45s-.65,3.26-1.84,4.45l-20.81,20.81ZM252.69,1362.49c3.62-3.62,3.62-9.52,0-13.14l-18.69-18.69h-4.24l20.81,20.81c2.45,2.45,2.45,6.44,0,8.89l-20.81,20.81h4.24l18.69-18.69Z"/>
        <rect class="cls-25" x="101.75" y="1330.81" width="50.23" height="50.23" rx="3.69" ry="3.69" transform="translate(1482.79 1229.06) rotate(90)"/>
        <path class="cls-22" d="M142.97,1374.18h-.79l-.79-.25c-6.32-4.83-12.3-10.14-18.51-15.13-1.63-1.28-1.87-3.38-.36-4.88l17.83-15.52c.54-.48,1.12-.78,1.83-.93.25.02.54-.03.79,0,1.32.16,2.52,1.37,2.65,2.69v31.12c-.04,1.43-1.25,2.72-2.65,2.9ZM131.96,1371.6c-1.46-1.21-2.91-2.42-4.34-3.61-2.38-1.99-4.84-4.05-7.29-6.02-1.82-1.42-2.89-3.54-2.89-5.77,0-1.91.78-3.75,2.21-5.16l.09-.09,12.24-10.66v-.12c-.13-1.32-1.34-2.53-2.65-2.69-.25-.03-.54.02-.79,0-.71.16-1.28.45-1.83.93l-17.83,15.52c-1.51,1.5-1.28,3.6.36,4.88,6.21,4.99,12.19,10.3,18.51,15.13l.79.25h.79c1.3-.16,2.42-1.28,2.62-2.58Z"/>
        <path class="cls-11" d="M298.2,1367.46c-6.36,0-11.53-5.17-11.53-11.53s5.17-11.53,11.53-11.53,11.54,5.17,11.54,11.53-5.17,11.53-11.53,11.53h0Z"/>
        <path class="cls-51" d="M298.21,1345.89c5.54,0,10.03,4.49,10.03,10.03s-4.49,10.03-10.03,10.03h0c-5.54,0-10.03-4.49-10.03-10.03s4.49-10.03,10.03-10.03h0M298.21,1342.89h0c-7.19,0-13.03,5.85-13.03,13.03s5.85,13.03,13.03,13.03,13.04-5.85,13.04-13.03-5.85-13.03-13.03-13.03h0Z"/>
        <path class="cls-10" d="M80.88,1367.46c-6.36,0-11.53-5.17-11.53-11.53s5.17-11.53,11.53-11.53,11.54,5.17,11.54,11.53-5.17,11.53-11.53,11.53h0Z"/>
        <path class="cls-51" d="M80.89,1345.89c5.54,0,10.03,4.49,10.03,10.03s-4.49,10.03-10.03,10.03h0c-5.54,0-10.03-4.49-10.03-10.03s4.49-10.03,10.03-10.03h0M80.89,1342.89h0c-7.19,0-13.03,5.85-13.03,13.03s5.85,13.03,13.03,13.03,13.04-5.85,13.04-13.03-5.85-13.03-13.03-13.03h0Z"/>
        <rect class="cls-26" x="437.27" y="1177.11" width="50.51" height="175.86" rx="6.92" ry="6.92" transform="translate(1727.57 802.52) rotate(90)"/>
        <path class="cls-16" d="M448.28,1290.3h-4.24l-18.69-18.69c-3.62-3.62-3.62-9.52,0-13.14l18.69-18.69h4.24l-20.81,20.81c-1.19,1.19-1.84,2.77-1.84,4.45s.65,3.26,1.84,4.45l20.81,20.81ZM401.89,1269.49c-2.45-2.45-2.45-6.44,0-8.89l20.81-20.81h-4.24l-18.69,18.69c-1.75,1.75-2.72,4.09-2.72,6.57s.97,4.81,2.72,6.57l18.69,18.69h4.24l-20.81-20.81ZM398.02,1239.79h-4.24l-18.69,18.69c-.18.18-.33.36-.49.55v12.05c.16.19.32.37.49.55l18.69,18.69h4.24l-20.81-20.81c-2.45-2.45-2.45-6.44,0-8.89l20.81-20.81ZM477.26,1290.3h4.24l18.69-18.69c3.62-3.62,3.62-9.52,0-13.14l-18.69-18.69h-4.24l20.81,20.81c1.19,1.19,1.84,2.77,1.84,4.45s-.65,3.26-1.84,4.45l-20.81,20.81ZM525.78,1271.61c3.62-3.62,3.62-9.51,0-13.14l-18.69-18.69h-4.24l20.81,20.81c2.45,2.45,2.45,6.44,0,8.89l-20.81,20.81h4.24l18.69-18.69ZM550.45,1271.62v-13.15l-18.68-18.68h-4.24l20.81,20.81c2.45,2.45,2.45,6.44,0,8.89l-20.81,20.81h4.24l18.68-18.68Z"/>
        <rect class="cls-25" x="437.41" y="1239.93" width="50.23" height="50.23" rx="3.69" ry="3.69" transform="translate(1727.57 802.52) rotate(90)"/>
        <path class="cls-11" d="M354.24,1276.58c-6.36,0-11.53-5.17-11.53-11.53s5.17-11.53,11.53-11.53,11.54,5.17,11.54,11.53-5.17,11.53-11.53,11.53h0Z"/>
        <path class="cls-51" d="M354.25,1255.01c5.54,0,10.03,4.49,10.03,10.03s-4.49,10.03-10.03,10.03h0c-5.54,0-10.03-4.49-10.03-10.03s4.49-10.03,10.03-10.03h0M354.25,1252.01h0c-7.19,0-13.03,5.85-13.03,13.03s5.85,13.03,13.03,13.03,13.04-5.85,13.04-13.03-5.85-13.03-13.03-13.03h0Z"/>
        <path class="cls-11" d="M571.56,1276.58c-6.36,0-11.53-5.17-11.53-11.53s5.17-11.53,11.53-11.53,11.54,5.17,11.54,11.53-5.17,11.53-11.53,11.53h0Z"/>
        <path class="cls-51" d="M571.57,1255.01c5.54,0,10.03,4.49,10.03,10.03s-4.49,10.03-10.03,10.03h0c-5.54,0-10.03-4.49-10.03-10.03s4.49-10.03,10.03-10.03h0M571.57,1252.01h0c-7.19,0-13.03,5.85-13.03,13.03s5.85,13.03,13.03,13.03,13.04-5.85,13.04-13.03-5.85-13.03-13.03-13.03h0Z"/>
        <rect class="cls-26" x="437.27" y="1267.99" width="50.51" height="175.86" rx="6.92" ry="6.92" transform="translate(1818.45 893.4) rotate(90)"/>
        <path class="cls-16" d="M422.69,1381.18h-4.24l-18.69-18.69c-1.75-1.75-2.72-4.09-2.72-6.57s.97-4.81,2.72-6.57l18.69-18.69h4.24l-20.81,20.81c-2.45,2.45-2.45,6.44,0,8.89l20.81,20.81ZM427.48,1360.37c-1.19-1.19-1.84-2.77-1.84-4.45s.65-3.26,1.84-4.45l20.81-20.81h-4.24l-18.69,18.69c-3.62,3.62-3.62,9.52,0,13.14l18.69,18.69h4.24l-20.81-20.81ZM398.02,1330.67h-4.24l-18.69,18.69c-.18.18-.33.36-.49.55v12.05c.16.19.32.37.49.55l18.69,18.69h4.24l-20.81-20.81c-2.45-2.45-2.45-6.44,0-8.89l20.81-20.81ZM550.45,1362.5v-13.15l-18.68-18.68h-4.24l20.81,20.81c2.45,2.45,2.45,6.44,0,8.89l-20.81,20.81h4.24l18.68-18.68ZM525.78,1362.49c3.62-3.62,3.62-9.51,0-13.14l-18.69-18.69h-4.24l20.81,20.81c2.45,2.45,2.45,6.44,0,8.89l-20.81,20.81h4.24l18.69-18.69ZM477.26,1381.18h4.24l18.69-18.69c3.62-3.62,3.62-9.52,0-13.14l-18.69-18.69h-4.24l20.81,20.81c1.19,1.19,1.84,2.77,1.84,4.45s-.65,3.26-1.84,4.45l-20.81,20.81Z"/>
        <rect class="cls-25" x="500.33" y="1330.81" width="50.23" height="50.23" rx="3.69" ry="3.69" transform="translate(1881.36 830.48) rotate(90)"/>
        <path class="cls-22" d="M509.13,1337.46h.79l.79.25c6.32,4.83,12.3,10.14,18.51,15.13,1.63,1.28,1.87,3.38.36,4.88l-17.83,15.52c-.54.48-1.12.78-1.83.93-.25-.02-.54.03-.79,0-1.32-.16-2.52-1.37-2.65-2.69v-31.12c.04-1.43,1.25-2.72,2.65-2.9ZM520.13,1340.04c1.46,1.21,2.91,2.42,4.34,3.61,2.38,1.99,4.84,4.05,7.29,6.02,1.82,1.42,2.89,3.54,2.89,5.77,0,1.91-.78,3.75-2.21,5.16l-.09.09-12.24,10.66v.12c.13,1.32,1.34,2.53,2.65,2.69.25.03.54-.02.79,0,.71-.16,1.28-.45,1.83-.93l17.83-15.52c1.51-1.5,1.28-3.6-.36-4.88-6.21-4.99-12.19-10.3-18.51-15.13l-.79-.25h-.79c-1.3.16-2.42,1.28-2.62,2.58Z"/>
        <path class="cls-11" d="M354.24,1367.46c-6.36,0-11.53-5.17-11.53-11.53s5.17-11.53,11.53-11.53,11.54,5.17,11.54,11.53-5.17,11.53-11.53,11.53h0Z"/>
        <path class="cls-51" d="M354.25,1345.89c5.54,0,10.03,4.49,10.03,10.03s-4.49,10.03-10.03,10.03h0c-5.54,0-10.03-4.49-10.03-10.03s4.49-10.03,10.03-10.03h0M354.25,1342.89h0c-7.19,0-13.03,5.85-13.03,13.03s5.85,13.03,13.03,13.03,13.04-5.85,13.04-13.03-5.85-13.03-13.03-13.03h0Z"/>
        <path class="cls-10" d="M571.56,1367.46c-6.36,0-11.53-5.17-11.53-11.53s5.17-11.53,11.53-11.53,11.54,5.17,11.54,11.53-5.17,11.53-11.53,11.53h0Z"/>
        <path class="cls-51" d="M571.57,1345.89c5.54,0,10.03,4.49,10.03,10.03s-4.49,10.03-10.03,10.03h0c-5.54,0-10.03-4.49-10.03-10.03s4.49-10.03,10.03-10.03h0M571.57,1342.89h0c-7.19,0-13.03,5.85-13.03,13.03s5.85,13.03,13.03,13.03,13.04-5.85,13.04-13.03-5.85-13.03-13.03-13.03h0Z"/>
        <text class="cls-28" transform="translate(262.57 1318.71)"><tspan x="0" y="0">RESET </tspan><tspan class="cls-50" x="65.7" y="0">L</tspan><tspan x="77.19" y="0">ASER</tspan></text>
      </g>
      <g id="System_Upgrades" data-name="System Upgrades">
        <rect class="cls-39" x="123.18" y="1748.67" width="342.8" height="44.19" rx="12.37" ry="12.37"/>
        <path class="cls-39" d="M534.3,1793.36H132.88c-5.48,0-9.94-4.46-9.94-9.94v-25.32c0-5.48,4.46-9.93,9.94-9.93h401.42c5.48,0,9.93,4.46,9.93,9.93v25.32c0,5.48-4.46,9.94-9.93,9.94ZM132.88,1749.17c-4.93,0-8.94,4.01-8.94,8.93v25.32c0,4.93,4.01,8.94,8.94,8.94h401.42c4.93,0,8.93-4.01,8.93-8.94v-25.32c0-4.93-4.01-8.93-8.93-8.93H132.88Z"/>
        <text class="cls-42" transform="translate(143.75 1778.17)"><tspan class="cls-53" x="0" y="0">S</tspan><tspan x="11.41" y="0">YSTEM UPG</tspan><tspan class="cls-72" x="124.56" y="0">R</tspan><tspan x="137.7" y="0">ADES </tspan><tspan class="cls-31" x="194.7" y="0">AV</tspan><tspan x="219.21" y="0">AI</tspan><tspan class="cls-36" x="238.45" y="0">L</tspan><tspan x="249.94" y="0">ABLE</tspan></text>
        <text class="cls-30" transform="translate(492.79 1783.33)"><tspan x="0" y="0">2</tspan></text>
      </g>
      <g id="Periscope">
        <rect class="cls-67" x="22.36" y="978.45" width="603.66" height="51.13" rx="11.03" ry="11.03"/>
        <path class="cls-67" d="M251.82,496.8h138.35v615.18c0,13.74-11.16,24.9-24.9,24.9h-88.54c-13.74,0-24.9-11.16-24.9-24.9V496.8h0Z"/>
        <path class="cls-59" d="M252.54,1089.77c-23.25,0-45.07-9.09-61.45-25.59-16.38-16.5-25.3-38.39-25.13-61.64.35-47.38,39.59-85.92,87.47-85.92h138.58c23.99,0,46.29,9.59,62.81,26.99,16.51,17.4,24.9,40.21,23.64,64.23-2.4,45.72-40.19,81.7-86.02,81.93h-.44c-24.04,0-47.19-10.12-63.53-27.77-2.19-2.36-4.86-2.71-6.27-2.71s-3.96.34-6.05,2.61c-16.35,17.72-39.54,27.87-63.63,27.87Z"/>
        <path class="cls-61" d="M392.01,931.91h-138.58c-39.31,0-71.89,31.44-72.18,70.75-.29,39.62,31.74,71.83,71.29,71.83,20.72,0,39.37-8.84,52.39-22.95,9.32-10.1,25.43-10,34.77.09,13.09,14.14,31.85,22.97,52.67,22.87,37.55-.18,68.86-29.95,70.83-67.44,2.16-41.12-30.54-75.13-71.19-75.13Z"/>
        <path class="cls-70" d="M392.02,1054.51c-14.46,0-27.83-5.85-37.66-16.46-8.25-8.91-19.96-14.02-32.14-14.02s-23.79,5.09-31.97,13.96c-9.83,10.66-23.23,16.53-37.71,16.53s-26.71-5.39-36.42-15.17c-9.71-9.78-15-22.76-14.89-36.54.21-28.08,23.63-50.92,52.21-50.92h138.58c14.22,0,27.44,5.68,37.23,16,9.78,10.31,14.76,23.84,14.01,38.11-1.42,27.07-23.82,48.38-50.98,48.52h-.26Z"/>
        <path class="cls-22" d="M340.39,1093.84v.79l-.25.79c-4.83,6.32-10.14,12.3-15.13,18.51-1.28,1.63-3.38,1.87-4.88.36l-15.52-17.83c-.48-.54-.78-1.12-.93-1.83.02-.25-.03-.54,0-.79.16-1.32,1.37-2.52,2.69-2.65h31.12c1.43.04,2.72,1.25,2.9,2.65ZM337.81,1104.84c-1.21,1.46-2.42,2.91-3.61,4.34-1.99,2.38-4.05,4.84-6.02,7.29-1.42,1.82-3.54,2.89-5.77,2.89-1.91,0-3.75-.78-5.16-2.21l-.09-.09-10.66-12.24h-.12c-1.32.13-2.53,1.34-2.69,2.65-.03.25.02.54,0,.79.16.71.45,1.28.93,1.83l15.52,17.83c1.5,1.51,3.6,1.28,4.88-.36,4.99-6.21,10.3-12.19,15.13-18.51l.25-.79v-.79c-.16-1.3-1.28-2.42-2.58-2.62Z"/>
      </g>
      <g id="Monitor">
        <path class="cls-56" d="M48.78,32.56h549.95c9.31,0,16.86,7.55,16.86,16.86v847.89c0,6.78-5.5,12.28-12.28,12.28H44.2c-6.78,0-12.28-5.5-12.28-12.28V49.42c0-9.31,7.55-16.86,16.86-16.86Z"/>
        <path class="cls-25" d="M606.65,37.21H40.86c-3.39,0-5.14-4.05-2.82-6.52l19.25-20.52C63.38,3.68,71.87,0,80.77,0h485.98c8.89,0,17.39,3.68,23.47,10.16l19.25,20.52c2.32,2.47.57,6.52-2.82,6.52Z"/>
        <rect class="cls-51" x="55.17" y="60.46" width="537.16" height="825.87" rx="39.53" ry="39.53"/>
        <path class="cls-37" d="M94.71,74.42h458.1c21.82,0,39.53,17.71,39.53,39.53v732.85c0,21.82-17.71,39.53-39.53,39.53H94.71c-21.82,0-39.53-17.71-39.53-39.53V113.95c0-21.82,17.71-39.53,39.53-39.53Z"/>
        <text id="Game_In_Progress" data-name="Game In Progress" class="cls-60" transform="translate(99.69 869.08)"><tspan class="cls-23" x="0" y="0">C</tspan><tspan x="21.83" y="0">L</tspan><tspan class="cls-38" x="42.45" y="0">E</tspan><tspan class="cls-41" x="65.73" y="0">A</tspan><tspan class="cls-19" x="86.75" y="0">N</tspan><tspan class="cls-57" x="113.88" y="0">I</tspan><tspan class="cls-34" x="123.99" y="0">N</tspan><tspan x="151.99" y="0">G </tspan><tspan class="cls-57" x="191.22" y="0">I</tspan><tspan class="cls-24" x="201.33" y="0">N </tspan><tspan class="cls-45" x="243.66" y="0">P</tspan><tspan x="264.3" y="0">R</tspan><tspan class="cls-65" x="286.31" y="0">O</tspan><tspan x="308.37" y="0">G</tspan><tspan class="cls-69" x="332" y="0">R</tspan><tspan x="354.93" y="0">E</tspan><tspan class="cls-20" x="377.63" y="0">S</tspan><tspan class="cls-18" x="397.18" y="0">S</tspan><tspan x="414.58" y="0">...</tspan></text>
      </g>
      <g id="Settings">
        <circle class="cls-59" cx="586.51" cy="1921.29" r="42.65"/>
        <path d="M575.34,1888.9c1.31-.22,2.74.1,3.77.94.53.43.76,1.11,1.28,1.57,3.07,2.69,6.81,3.17,10.41,1.27,2.93-1.54,3.23-4.63,7.35-3.65,2.47.59,8.3,3.99,10.15,5.79,3.3,3.22.52,5.23.71,8.67.17,3.07,2.34,6.18,5.12,7.42,2.12.95,4.78.73,5.84,3.27s.95,10.11.24,12.77c-1.23,4.62-4.11,3.02-7.31,4.93-2.36,1.42-4.2,4.72-4.2,7.5s1.94,4.09.64,6.88c-1.06,2.28-8.15,6.41-10.64,7.02-3.9.96-4.47-2.07-6.97-3.74-2.65-1.77-6.22-1.75-9.02-.28-3.07,1.61-3.15,5.19-7.61,4.38-2.27-.42-8.91-4.29-10.53-5.98-2.69-2.79-.66-4.28-.3-6.87.55-3.94-1.21-8.15-4.99-9.77-2.48-1.06-5.42-.37-6.52-3.73-.83-2.52-.68-11.58.66-13.88,1.2-2.06,3.02-1.68,4.85-2.27,4.19-1.36,6.81-5.14,6.29-9.6-.29-2.49-1.96-4.37.32-6.86,1.42-1.56,8.41-5.43,10.46-5.77ZM586.19,1909.97c-14.67.42-14.14,22.83.44,22.69,14.84-.14,14.53-23.12-.44-22.69Z"/>
      </g>
      <text id="Title" class="cls-58" transform="translate(210.86 1947.47)"><tspan class="cls-63" x="0" y="0">G</tspan><tspan x="50.77" y="0">O</tspan><tspan class="cls-64" x="94.43" y="0">O</tspan><tspan class="cls-40" x="138.94" y="0">P</tspan><tspan x="182.79" y="0">S</tspan></text>
      <g id="How_to_Play" data-name="How to Play">
        <circle class="cls-59" cx="60.02" cy="1920.16" r="42.65"/>
      </g>
    </g>
  </g>
</svg>