<?xml version="1.0" encoding="UTF-8"?>
<svg id="Layer_2" data-name="Layer 2" xmlns="http://www.w3.org/2000/svg" xmlns:xlink="http://www.w3.org/1999/xlink" viewBox="0 0 648 1987.04">
  <defs>
    <style>
      .cls-1 {
        letter-spacing: .04em;
      }

      .cls-2, .cls-3, .cls-4 {
        fill: #5bbc70;
      }

      .cls-2, .cls-5 {
        font-size: 62.79px;
      }

      .cls-2, .cls-5, .cls-6 {
        font-family: FromWhereYouAre, 'From Where You Are';
      }

      .cls-7 {
        font-size: 15.7px;
      }

      .cls-7, .cls-8, .cls-9, .cls-10 {
        font-family: AmazonEmber-Regular, 'Amazon Ember';
      }

      .cls-7, .cls-11, .cls-9 {
        fill: #aad9d9;
      }

      .cls-12 {
        fill: #f6f081;
      }

      .cls-13 {
        fill: #35385b;
      }

      .cls-13, .cls-14, .cls-15, .cls-16, .cls-17, .cls-18, .cls-19, .cls-20, .cls-21, .cls-22, .cls-11, .cls-23, .cls-24, .cls-25, .cls-26, .cls-27, .cls-28, .cls-4 {
        fill-rule: evenodd;
      }

      .cls-29 {
        letter-spacing: .02em;
      }

      .cls-30 {
        clip-path: url(#clippath-4);
      }

      .cls-31 {
        letter-spacing: -.06em;
      }

      .cls-32 {
        letter-spacing: .01em;
      }

      .cls-33 {
        letter-spacing: .05em;
      }

      .cls-34 {
        letter-spacing: .03em;
      }

      .cls-35 {
        fill: #cb8abc;
      }

      .cls-36 {
        letter-spacing: .02em;
      }

      .cls-37 {
        letter-spacing: -.02em;
      }

      .cls-38 {
        letter-spacing: .03em;
      }

      .cls-39, .cls-15 {
        fill: #fff;
      }

      .cls-40 {
        fill: #d36b28;
      }

      .cls-14 {
        fill: #4c833c;
      }

      .cls-41 {
        fill: #eebfc5;
      }

      .cls-42, .cls-17 {
        fill: #59acae;
      }

      .cls-43 {
        letter-spacing: .01em;
      }

      .cls-44, .cls-16, .cls-20, .cls-23, .cls-27, .cls-45 {
        fill: none;
      }

      .cls-16 {
        opacity: .25;
        stroke: #d8672b;
        stroke-width: 3px;
      }

      .cls-16, .cls-20, .cls-23, .cls-27, .cls-45 {
        stroke-miterlimit: 10;
      }

      .cls-46 {
        letter-spacing: 0em;
      }

      .cls-47 {
        letter-spacing: -.02em;
      }

      .cls-48 {
        letter-spacing: -.05em;
      }

      .cls-49 {
        letter-spacing: .03em;
      }

      .cls-50 {
        letter-spacing: -.02em;
      }

      .cls-51 {
        letter-spacing: .02em;
      }

      .cls-52, .cls-53 {
        fill: #ffd92b;
      }

      .cls-54 {
        clip-path: url(#clippath-1);
      }

      .cls-55 {
        letter-spacing: .01em;
      }

      .cls-18, .cls-8 {
        fill: #45486c;
      }

      .cls-56 {
        letter-spacing: 0em;
      }

      .cls-19 {
        fill: #474871;
      }

      .cls-20 {
        stroke: #fff;
        stroke-width: 6px;
      }

      .cls-8, .cls-10 {
        font-size: 20.93px;
      }

      .cls-53 {
        font-family: AmazonEmber-Bold, 'Amazon Ember';
        font-size: 34.88px;
        font-weight: 700;
      }

      .cls-57 {
        clip-path: url(#clippath-5);
      }

      .cls-58 {
        letter-spacing: .02em;
      }

      .cls-59 {
        fill: #1f1f38;
      }

      .cls-60 {
        letter-spacing: -.05em;
      }

      .cls-61 {
        letter-spacing: 0em;
      }

      .cls-62 {
        letter-spacing: -.04em;
      }

      .cls-63 {
        letter-spacing: -.06em;
      }

      .cls-64 {
        clip-path: url(#clippath-3);
      }

      .cls-21 {
        fill: #616a79;
      }

      .cls-22 {
        fill: #803d83;
      }

      .cls-65 {
        fill: #0d1a19;
      }

      .cls-23 {
        stroke: #5bbc70;
      }

      .cls-66 {
        fill: #f2a743;
      }

      .cls-24 {
        fill: #d8672b;
      }

      .cls-25 {
        fill: #231f20;
      }

      .cls-9 {
        font-size: 19.19px;
      }

      .cls-26 {
        fill: #0f1829;
      }

      .cls-67 {
        letter-spacing: .02em;
      }

      .cls-27 {
        stroke: #1d1d3a;
        stroke-width: 5px;
      }

      .cls-5 {
        fill: #0f1528;
      }

      .cls-68 {
        fill: #0b1c3f;
      }

      .cls-69, .cls-10 {
        fill: #6acbda;
      }

      .cls-28 {
        fill: #3d8380;
      }

      .cls-45 {
        stroke: #ffd92b;
      }

      .cls-70 {
        clip-path: url(#clippath-2);
      }

      .cls-71 {
        letter-spacing: -.04em;
      }

      .cls-72 {
        fill: #087962;
      }

      .cls-6 {
        fill: #f1a941;
        font-size: 29.65px;
      }

      .cls-73 {
        fill: url(#linear-gradient);
      }

      .cls-74 {
        letter-spacing: .02em;
      }

      .cls-75 {
        clip-path: url(#clippath);
      }

      .cls-76 {
        fill: #373a60;
      }

      .cls-77 {
        fill: #96d7dd;
      }
    </style>
    <symbol id="Arrow" viewBox="0 0 21.05 21.63">
      <path id="Down" class="cls-39" d="M21.05,1.52v.45l-.14.45c-2.77,3.62-5.81,7.05-8.67,10.61-.73.94-1.94,1.07-2.8.21L.54,3.02C.27,2.71.1,2.38,0,1.98c.01-.15-.02-.31,0-.45C.1.77.79.08,1.55,0h17.84c.82.02,1.56.72,1.66,1.52ZM19.57,7.83c-.69.84-1.38,1.67-2.07,2.49-1.14,1.37-2.32,2.78-3.45,4.18-.81,1.04-2.03,1.66-3.31,1.66-1.1,0-2.15-.45-2.96-1.27l-.05-.05L1.62,7.81h-.07c-.76.08-1.45.77-1.54,1.52-.02.14.01.31,0,.45.09.41.26.74.54,1.05l8.9,10.22c.86.87,2.06.73,2.8-.21,2.86-3.56,5.91-6.99,8.67-10.61l.14-.45v-.45c-.09-.74-.74-1.39-1.48-1.5Z"/>
    </symbol>
    <clipPath id="clippath">
      <rect id="BG" class="cls-44" y="827.84" width="648" height="1152"/>
    </clipPath>
    <linearGradient id="linear-gradient" x1="324" y1="1979.84" x2="324" y2="827.84" gradientUnits="userSpaceOnUse">
      <stop offset="0" stop-color="#363b5e"/>
      <stop offset="1" stop-color="#0b1c3f"/>
    </linearGradient>
    <clipPath id="clippath-1">
      <rect class="cls-44" x="356.86" y="1499.08" width="50.51" height="175.86" rx="6.92" ry="6.92"/>
    </clipPath>
    <clipPath id="clippath-2">
      <rect class="cls-44" x="164.67" y="1177.11" width="50.51" height="175.86" rx="6.92" ry="6.92" transform="translate(1454.97 1075.12) rotate(90)"/>
    </clipPath>
    <clipPath id="clippath-3">
      <rect class="cls-44" x="164.67" y="1267.99" width="50.51" height="175.86" rx="6.92" ry="6.92" transform="translate(1545.85 1166) rotate(90)"/>
    </clipPath>
    <clipPath id="clippath-4">
      <rect class="cls-44" x="437.27" y="1177.11" width="50.51" height="175.86" rx="6.92" ry="6.92" transform="translate(1727.57 802.52) rotate(90)"/>
    </clipPath>
    <clipPath id="clippath-5">
      <rect class="cls-44" x="437.27" y="1267.99" width="50.51" height="175.86" rx="6.92" ry="6.92" transform="translate(1818.45 893.4) rotate(90)"/>
    </clipPath>
  </defs>
  <g id="MainMenu">
    <g class="cls-75">
      <rect id="BG-2" data-name="BG" class="cls-73" y="827.84" width="648" height="1152"/>
      <g id="Console_Base" data-name="Console Base">
        <polygon class="cls-26" points="42.37 1807.1 54.73 1865.36 592.78 1865.36 605.14 1807.1 42.37 1807.1"/>
        <path class="cls-21" d="M615.77,1807.1l14.87-84.85c.65-3.69-2.19-7.08-5.94-7.08H22.81c-3.75,0-6.59,3.38-5.94,7.08l14.87,84.85h584.04Z"/>
        <path class="cls-17" d="M583.65,1441.46H63.86l-47.08,283.09c-.6,3.61,2,6.92,5.44,6.92h603.07c3.44,0,6.04-3.31,5.44-6.92l-47.08-283.09Z"/>
        <text class="cls-7" transform="translate(83.81 1855.15)"><tspan class="cls-71" x="0" y="0">V</tspan><tspan x="9.49" y="0">ersion 0.1.1v</tspan></text>
        <text class="cls-7" transform="translate(442.36 1855.15)"><tspan x="0" y="0">Muz</tspan><tspan class="cls-56" x="29.67" y="0">z</tspan><tspan x="37.29" y="0">yMade @ 2026</tspan></text>
        <g id="Wipe">
          <text class="cls-9" transform="translate(259.17 1855.99)"><tspan x="0" y="0">WIPE S</tspan><tspan class="cls-63" x="61.36" y="0">A</tspan><tspan x="72.61" y="0">VE </tspan><tspan class="cls-62" x="100.66" y="0">D</tspan><tspan class="cls-60" x="113.22" y="0">AT</tspan><tspan x="134.62" y="0">A</tspan></text>
          <path id="Trashcan" class="cls-42" d="M237.88,1840.61h14.55c.46.03.69.29.64.76-.31,4-.59,8.01-.9,12.01-.06.77-.07,1.57-.15,2.34-.11,1.05-.67,1.79-1.71,2.04-3.3.1-6.62.01-9.93.04-1.09-.07-1.91-.88-2.02-1.96-.27-3.77-.54-7.55-.81-11.32-.07-.99-.2-2.01-.24-3-.02-.48,0-.84.56-.9ZM240.87,1842.35c-.13.03-.32.22-.34.34-.06.31.02.81.02,1.13.07,2.82.18,5.63.27,8.45.03.82-.01,1.72.06,2.52.06.73.96.7,1.02.03.03-.37-.05-.93-.06-1.32-.09-3.11-.18-6.23-.3-9.34-.02-.43.03-1-.03-1.41-.05-.3-.35-.46-.64-.4ZM245.06,1842.35c-.23.04-.37.26-.38.49v11.98c.06.72,1.03.63,1.02-.06v-11.86c-.02-.37-.26-.61-.64-.55ZM249.34,1855.18s.11-.18.12-.22c.02-.1.03-.35.04-.47.12-2.38.11-4.77.18-7.16.04-1.46.15-2.94.15-4.4,0-.34-.17-.59-.53-.59-.64.01-.48.79-.49,1.22-.11,3.13-.19,6.27-.27,9.4-.01.58-.11,1.32-.06,1.89.04.44.56.63.86.33ZM240.61,1836.42c.1-1,1.08-1.87,2.08-1.9,1.7.08,3.5-.11,5.18,0,.98.06,2.11.92,2.11,1.96v.7s.08-.03.13-.03c.58-.01,1.22-.02,1.8,0,.74.02,1.37.09,1.77.81.26.46.44,1.47-.25,1.64h-16.41c-.8-.06-.59-1.21-.31-1.68.25-.42.8-.77,1.3-.77h2.55s.02.04.04.03c.02-.25-.02-.52,0-.76ZM248.66,1837.19v-.64s-.09-.24-.11-.28c-.15-.27-.43-.41-.74-.43-1.65-.12-3.45.09-5.12,0-.28-.02-.77.41-.77.67v.67h6.74Z"/>
        </g>
        <path class="cls-18" d="M290.21,1663.73c10.78-17.3,17.01-37.73,17.01-59.61,0-23.97-7.48-46.2-20.22-64.48,7.77-.06,15.53-3.05,21.46-8.98,11.98-11.98,11.98-31.4,0-43.37-1.9-1.9-3.99-3.5-6.21-4.8-.5-17.51-14.85-31.56-32.48-31.56H121.34c-17.78,0-32.22,14.28-32.49,32-1.95,1.22-3.81,2.66-5.5,4.36-11.98,11.98-11.98,31.4,0,43.37,5.16,5.16,11.69,8.09,18.42,8.8-12.82,18.31-20.34,40.6-20.34,64.65,0,22.08,6.34,42.67,17.3,60.07-5.63,1.18-11,3.95-15.38,8.32-11.98,11.98-11.98,31.4,0,43.37,11.98,11.98,31.4,11.98,43.37,0,4.44-4.44,7.23-9.91,8.38-15.64,17.22,10.63,37.5,16.77,59.22,16.77,22.93,0,44.26-6.84,62.07-18.59.88,6.39,3.78,12.55,8.69,17.46,11.98,11.98,31.4,11.98,43.37,0,11.98-11.98,11.98-31.4,0-43.37-5.11-5.11-11.58-8.03-18.24-8.78Z"/>
        <polygon class="cls-18" points="608.7 1720.12 341.17 1720.12 341.17 1452.22 564.14 1452.22 608.7 1720.12"/>
        <circle class="cls-65" cx="194.32" cy="1604.12" r="97.6"/>
      </g>
      <g id="Console_Back" data-name="Console Back">
        <g>
          <g>
            <path class="cls-21" d="M614.41,1089.7H33.1c-9.26,0-16.32,7.55-15.79,16.86l18.54,321.98c.39,6.78,5.81,12.28,12.11,12.28h551.59c6.3,0,11.72-5.5,12.11-12.28l18.54-321.98c.54-9.31-6.53-16.86-15.79-16.86Z"/>
            <path class="cls-11" d="M622.02,1094.35H25.49c-3.37,0-5.34-4.05-3.17-6.52l18.06-20.52c5.74-6.49,14.04-10.16,22.94-10.16h520.89c8.89,0,17.2,3.68,22.94,10.16l18.06,20.52c2.17,2.47.19,6.52-3.17,6.52Z"/>
            <path class="cls-27" d="M592.7,1378.03c-1.16,21.83-18.62,39.53-38.99,39.53H93.79c-20.37,0-37.82-17.7-38.99-39.53l-11.76-220.89c-1.16-21.83,15.4-39.53,36.98-39.53h487.46c21.59,0,38.15,17.7,36.98,39.53l-11.76,220.89Z"/>
            <path class="cls-13" d="M567.48,1117.6H80.03c-21.59,0-38.15,17.7-36.98,39.53l11.76,220.89c1.16,21.83,18.62,39.53,38.99,39.53h459.93c20.37,0,37.82-17.7,38.99-39.53l11.76-220.89c1.16-21.83-15.4-39.53-36.98-39.53Z"/>
            <path class="cls-19" d="M566.84,1131.56H80.67c-21.53,0-38.04,17.7-36.88,39.53l11.02,206.94c1.16,21.83,18.62,39.53,38.99,39.53h459.93c20.37,0,37.82-17.7,38.99-39.53l11.02-206.94c1.16-21.83-15.35-39.53-36.88-39.53Z"/>
          </g>
          <g id="Screen_Text" data-name="Screen Text">
            <path id="Meter" class="cls-23" d="M551.62,1204.48H98.15c-5.31,0-9.81-4.42-10.06-9.88h0c-.25-5.46,3.87-9.88,9.2-9.88h455.19c5.33,0,9.45,4.42,9.2,9.88h0c-.25,5.46-4.75,9.88-10.06,9.88Z"/>
            <path id="Meter_Fill" data-name="Meter Fill" class="cls-4" d="M453.24,1204.48H96.98c-4.66,0-8.62-3.89-8.83-8.68l-.11-2.4c-.22-4.79,3.4-8.68,8.08-8.68h357.61s-.49,19.77-.49,19.77Z"/>
            <g>
              <path class="cls-42" d="M405.34,1169.09l.16-10.36-3.34,1.31.02-1.4,3.47-1.64h1.57l-.19,12.08h-1.69Z"/>
              <path class="cls-42" d="M415.31,1169.36c-1.41,0-2.48-.54-3.21-1.62-.73-1.09-1.08-2.65-1.05-4.68s.43-3.59,1.2-4.67c.77-1.09,1.85-1.64,3.26-1.64s2.48.54,3.21,1.62c.73,1.08,1.08,2.64,1.05,4.67s-.44,3.6-1.2,4.69c-.77,1.09-1.85,1.63-3.26,1.63ZM413.36,1166.73c.41.78,1.06,1.17,1.96,1.17.9,0,1.57-.39,2-1.17.44-.77.67-2,.7-3.67s-.16-2.9-.57-3.68c-.41-.78-1.06-1.17-1.96-1.17s-1.57.39-2.01,1.17c-.44.78-.67,2-.7,3.67s.16,2.9.57,3.68Z"/>
              <path class="cls-42" d="M422.27,1167.07c.72,0,1.07.2,1.06.61,0,.21-.09.55-.25,1.01l-1.15,3.07h-1.17l.96-4.69h.54Z"/>
              <path class="cls-42" d="M429.53,1162.15h.17c1.13,0,2.02.32,2.67.95.65.63.96,1.49.93,2.58s-.44,1.98-1.26,2.66c-.82.68-1.9,1.02-3.26,1.02-1.07,0-2.13-.23-3.16-.7l.03-1.4c1.23.42,2.28.63,3.16.63s1.55-.2,2.02-.6c.48-.4.72-.96.74-1.69.03-1.41-.83-2.11-2.58-2.1-.55,0-1.09.03-1.62.09l.02-1.16,3.67-3.98h-5.06l.03-1.43h6.97l-.03,1.38-3.6,3.78c.06-.01.12-.02.18-.02Z"/>
              <path class="cls-42" d="M440.72,1169.09l.06-2.61h-5.66l.03-1.33,5.81-8.14h1.65l-.18,8.07h1.64l-.03,1.4h-1.63l-.06,2.61h-1.61ZM440.81,1165.08l.13-5.79-4.09,5.79h3.96Z"/>
              <path class="cls-42" d="M445.67,1158.44l.03-1.43h8.05l-.03,1.38-4.89,10.71h-1.83l4.99-10.65h-6.32Z"/>
              <path class="cls-42" d="M459.23,1171.61l6.22-15.66h1.71l-6.23,15.66h-1.71Z"/>
              <path class="cls-42" d="M476.6,1169.09l.3-10.36-3.35,1.31.04-1.4,3.49-1.64h1.57l-.36,12.08h-1.69Z"/>
              <path class="cls-42" d="M486.99,1156.75c1.04,0,1.86.3,2.46.89.61.59.89,1.38.86,2.36-.02.65-.21,1.32-.58,1.99-.37.67-.94,1.45-1.73,2.33-.8.89-1.9,2-3.32,3.35h5.97l-.05,1.43h-7.94l.04-1.35c1.7-1.71,2.95-3.01,3.74-3.91.79-.9,1.34-1.62,1.65-2.17.3-.55.46-1.09.48-1.62.01-.53-.15-.97-.49-1.31-.33-.33-.8-.5-1.4-.5-1.01,0-2.14.44-3.37,1.31l.04-1.48c1.11-.89,2.32-1.33,3.63-1.33Z"/>
              <path class="cls-42" d="M493.55,1167.07c.72,0,1.07.2,1.06.61,0,.21-.1.55-.27,1.01l-1.19,3.07h-1.17l1.03-4.69h.54Z"/>
              <path class="cls-42" d="M503,1165.5c.05-1.54-.78-2.31-2.49-2.3-.85,0-1.8.06-2.85.17l.04-1.15.5-5.21h6.24l-.05,1.43h-4.81l-.34,3.53c.63-.11,1.2-.17,1.7-.17,1.23,0,2.18.33,2.86,1,.67.66.99,1.57.95,2.72-.03,1.15-.47,2.08-1.3,2.78-.84.7-1.88,1.06-3.12,1.06s-2.36-.23-3.35-.7l.05-1.4c1.25.42,2.31.63,3.2.63s1.56-.2,2.04-.6c.47-.4.73-1,.75-1.79Z"/>
              <path class="cls-42" d="M510.8,1169.36c-1.41,0-2.47-.54-3.18-1.62-.71-1.09-1.04-2.65-.96-4.68s.5-3.59,1.29-4.67c.79-1.09,1.88-1.64,3.29-1.64s2.47.54,3.18,1.62c.71,1.08,1.04,2.64.96,4.67s-.5,3.6-1.29,4.69c-.79,1.09-1.88,1.63-3.29,1.63ZM508.9,1166.73c.4.78,1.04,1.17,1.94,1.17.9,0,1.57-.39,2.02-1.17.45-.77.71-2,.77-3.67s-.11-2.9-.5-3.68c-.39-.78-1.04-1.17-1.94-1.17s-1.58.39-2.03,1.17c-.45.78-.7,2-.76,3.67s.11,2.9.5,3.68Z"/>
              <path class="cls-42" d="M520.8,1169.36c-1.41,0-2.47-.54-3.18-1.62-.71-1.09-1.03-2.65-.96-4.68s.51-3.59,1.3-4.67c.79-1.09,1.89-1.64,3.3-1.64s2.47.54,3.18,1.62c.71,1.08,1.03,2.64.95,4.67s-.51,3.6-1.3,4.69c-.79,1.09-1.88,1.63-3.29,1.63ZM518.91,1166.73c.39.78,1.04,1.17,1.94,1.17.9,0,1.57-.39,2.03-1.17.45-.77.71-2,.77-3.67s-.1-2.9-.49-3.68c-.39-.78-1.04-1.17-1.94-1.17s-1.58.39-2.03,1.17c-.45.78-.71,2-.77,3.67s.1,2.9.5,3.68Z"/>
              <path class="cls-42" d="M542.38,1169.09l-1.86-3.87-2.14,3.87h-3.6l4.03-6.23-3.24-5.86h3.68l1.55,3.4,1.83-3.4h3.61l-3.77,5.83,3.56,6.26h-3.67Z"/>
              <path class="cls-42" d="M550.69,1165.17l-.17,3.92h-3.18l.51-12.09h4.86c1.36,0,2.42.36,3.18,1.09.76.73,1.11,1.72,1.06,2.99s-.5,2.26-1.32,2.99c-.82.73-1.91,1.09-3.27,1.09h-1.67ZM550.8,1162.73h1.2c.52,0,.93-.15,1.23-.44.3-.29.46-.69.48-1.2s-.1-.91-.37-1.2c-.27-.29-.67-.44-1.2-.44h-1.2l-.14,3.28Z"/>
            </g>
            <g id="Operator_Rank" data-name="Operator Rank">
              <path class="cls-69" d="M259.78,1172.42l-.06-4.67c2.54-2.53,4.51-4.58,5.91-6.14,1.4-1.56,2.4-2.84,3.02-3.85.62-1.01.92-1.91.91-2.7,0-.63-.22-1.14-.63-1.53-.42-.4-.97-.59-1.65-.59-2.01,0-4.37.94-7.09,2.83l-.06-5.2c2.45-1.93,5.15-2.9,8.13-2.9,2.4,0,4.32.6,5.74,1.81,1.43,1.21,2.15,2.83,2.17,4.85.01,1.16-.26,2.35-.82,3.56-.56,1.21-1.49,2.55-2.8,4.03-1.31,1.48-3.18,3.29-5.62,5.42h10.28l.05,5.09h-17.48Z"/>
              <g>
                <path class="cls-69" d="M89.79,1167.79c-.59-1.15-.92-2.51-.99-4.07s.13-2.92.59-4.06c.47-1.14,1.18-2.01,2.16-2.63.97-.61,2.15-.92,3.54-.92,2.05,0,3.69.67,4.92,2.02,1.23,1.35,1.89,3.2,1.99,5.55.07,1.55-.13,2.89-.6,4.03-.46,1.14-1.17,2.02-2.13,2.64-.96.62-2.12.93-3.5.93s-2.57-.3-3.58-.89c-1.01-.59-1.81-1.46-2.4-2.61ZM91.86,1159.39c-.73.98-1.05,2.42-.96,4.31s.53,3.33,1.35,4.31c.82.98,1.96,1.48,3.42,1.48s2.55-.5,3.28-1.49c.72-.99,1.04-2.43.96-4.31s-.52-3.32-1.33-4.3c-.81-.98-1.95-1.48-3.42-1.48s-2.57.49-3.3,1.48Z"/>
                <path class="cls-69" d="M107.25,1165.3l.23,5.63h-2.03l-.6-14.5h5.14c1.38,0,2.5.4,3.35,1.19.85.79,1.31,1.88,1.36,3.24s-.31,2.45-1.1,3.24c-.79.79-1.87,1.19-3.25,1.19h-3.11ZM110.11,1163.62c1.74,0,2.57-.92,2.49-2.76s-.98-2.76-2.72-2.76h-2.94l.23,5.52h2.93Z"/>
                <path class="cls-69" d="M117.73,1170.93l-.57-14.5h8.86l.06,1.72h-6.76l.17,4.46h5.66l.06,1.72h-5.66l.19,4.9h6.74l.06,1.72h-8.83Z"/>
                <path class="cls-69" d="M129.21,1170.93l-.54-14.5h5.19c1.38,0,2.5.39,3.34,1.16.85.77,1.3,1.81,1.34,3.12.03.96-.19,1.79-.68,2.5-.49.7-1.18,1.22-2.09,1.54l3.99,6.19h-2.28l-3.69-5.86h-2.76l.21,5.86h-2.03ZM133.86,1163.4c1.79,0,2.65-.88,2.59-2.65s-.96-2.65-2.7-2.65h-2.98l.19,5.29h2.89Z"/>
                <path class="cls-69" d="M151.13,1170.93l-1.44-3.85h-5.85l-1.13,3.85h-2.16l4.76-14.5h2.26l5.73,14.5h-2.17ZM144.33,1165.46h4.78l-2.64-7.11-2.13,7.11Z"/>
                <path class="cls-69" d="M157.31,1170.93l-.4-12.74h-4.53l-.06-1.76h11.17l.05,1.76h-4.54l.4,12.74h-2.09Z"/>
                <path class="cls-69" d="M165.65,1167.79c-.58-1.15-.89-2.51-.93-4.07s.17-2.92.65-4.06c.48-1.14,1.21-2.01,2.19-2.63.98-.61,2.16-.92,3.55-.92,2.05,0,3.68.67,4.89,2.02,1.21,1.35,1.85,3.2,1.91,5.55.04,1.55-.18,2.89-.65,4.03-.48,1.14-1.2,2.02-2.17,2.64-.97.62-2.14.93-3.51.93s-2.56-.3-3.57-.89c-1-.59-1.79-1.46-2.37-2.61ZM167.83,1159.39c-.74.98-1.08,2.42-1.03,4.31s.49,3.33,1.29,4.31c.8.98,1.94,1.48,3.4,1.48s2.56-.5,3.3-1.49c.74-.99,1.08-2.43,1.03-4.31s-.48-3.32-1.27-4.3c-.79-.98-1.93-1.48-3.4-1.48s-2.58.49-3.32,1.48Z"/>
                <path class="cls-69" d="M181.26,1170.93l-.39-14.5h5.19c1.38,0,2.49.39,3.33,1.16.84.77,1.28,1.81,1.31,3.12.02.96-.21,1.79-.7,2.5-.49.7-1.2,1.22-2.11,1.54l3.92,6.19h-2.28l-3.63-5.86h-2.76l.16,5.86h-2.03ZM185.98,1163.4c1.79,0,2.66-.88,2.62-2.65s-.94-2.65-2.67-2.65h-2.98l.14,5.29h2.89Z"/>
                <path class="cls-69" d="M199.17,1170.93l-.34-14.5h5.19c1.38,0,2.49.39,3.33,1.16.84.77,1.27,1.81,1.3,3.12.02.96-.22,1.79-.71,2.5-.5.7-1.2,1.22-2.11,1.54l3.9,6.19h-2.28l-3.61-5.86h-2.76l.14,5.86h-2.03ZM203.92,1163.4c1.79,0,2.66-.88,2.63-2.65s-.93-2.65-2.67-2.65h-2.98l.12,5.29h2.89Z"/>
                <path class="cls-69" d="M221.09,1170.93l-1.39-3.85h-5.85l-1.18,3.85h-2.16l4.95-14.5h2.26l5.53,14.5h-2.17ZM214.36,1165.46h4.78l-2.55-7.11-2.23,7.11Z"/>
                <path class="cls-69" d="M227.11,1170.93h-1.93l-.27-14.5h2.28l7.21,11.59-.2-11.59h1.94l.24,14.5h-2.3l-7.17-11.53.21,11.53Z"/>
                <path class="cls-69" d="M239.81,1170.93l-.23-14.5h2.1l.1,6.49,5.76-6.49h2.46l-6.21,6.93,6.98,7.57h-2.56l-6.4-6.93.11,6.93h-2.09Z"/>
              </g>
            </g>
          </g>
        </g>
      </g>
      <g id="Reset_Lights" data-name="Reset Lights">
        <polygon class="cls-18" points="608.7 1720.12 341.17 1720.12 341.17 1452.22 564.14 1452.22 608.7 1720.12"/>
        <g>
          <g class="cls-54">
            <rect class="cls-41" x="356.86" y="1499.08" width="50.51" height="175.86" rx="6.92" ry="6.92"/>
            <path class="cls-16" d="M417.83,1530.35l-30.21-30.21c-3.04-3.04-7.97-3.04-11.02,0l-30.21,30.21M346.4,1555.03l30.21-30.21c3.04-3.04,7.97-3.04,11.02,0l30.21,30.21M346.4,1580.62l30.21-30.21c3.04-3.04,7.97-3.04,11.02,0l30.21,30.21M417.83,1643.18l-30.21,30.21c-3.04,3.04-7.97,3.04-11.02,0l-30.21-30.21M346.4,1618.5l30.21,30.21c3.04,3.04,7.97,3.04,11.02,0l30.21-30.21M346.4,1592.91l30.21,30.21c3.04,3.04,7.97,3.04,11.02,0l30.21-30.21"/>
          </g>
          <rect class="cls-40" x="357" y="1498.98" width="50.23" height="50.23" rx="3.69" ry="3.69"/>
          <use width="21.05" height="21.63" transform="translate(400.38 1543.07) rotate(-180) scale(1.74)" xlink:href="#Arrow"/>
          <g>
            <path class="cls-25" d="M382.12,1706.83c-6.36,0-11.53-5.17-11.53-11.53s5.17-11.54,11.53-11.54,11.53,5.17,11.53,11.53-5.17,11.54-11.53,11.54Z"/>
            <path class="cls-59" d="M382.12,1685.25c5.54,0,10.03,4.49,10.03,10.03h0c0,5.55-4.49,10.04-10.03,10.04s-10.03-4.49-10.03-10.03h0c0-5.55,4.49-10.04,10.03-10.04M382.12,1682.25c-7.19,0-13.03,5.85-13.03,13.03s5.85,13.04,13.03,13.04,13.03-5.85,13.03-13.03-5.85-13.04-13.03-13.04h0Z"/>
          </g>
          <g>
            <path class="cls-24" d="M382.12,1489.51c-6.36,0-11.53-5.17-11.53-11.53s5.17-11.54,11.53-11.54,11.53,5.17,11.53,11.53-5.17,11.54-11.53,11.54Z"/>
            <path class="cls-59" d="M382.12,1467.94c5.54,0,10.03,4.49,10.03,10.03h0c0,5.55-4.49,10.04-10.03,10.04s-10.03-4.49-10.03-10.03h0c0-5.55,4.49-10.04,10.03-10.04M382.12,1464.94c-7.19,0-13.03,5.85-13.03,13.03s5.85,13.04,13.03,13.04,13.03-5.85,13.03-13.03-5.85-13.04-13.03-13.04h0Z"/>
          </g>
        </g>
        <g id="Blue_Button" data-name="Blue Button">
          <g>
            <path class="cls-65" d="M473.5,1570.9c-23.73,0-42.31-13.83-42.31-31.48s18.58-31.48,42.31-31.48,42.31,13.83,42.31,31.48-18.59,31.48-42.31,31.48Z"/>
            <path class="cls-28" d="M505.69,1538.31c0,11.84-14.45,21.44-32.27,21.44s-32.27-9.6-32.27-21.44c0-8.74.25-8.47.25-8.47h64.43s-.15.99-.15,8.47Z"/>
            <ellipse class="cls-77" cx="473.5" cy="1530.94" rx="32.27" ry="21.44"/>
          </g>
          <g>
            <path class="cls-24" d="M546.19,1547c-6.36,0-11.53-5.17-11.53-11.53s5.17-11.54,11.53-11.54,11.53,5.17,11.53,11.53-5.17,11.54-11.53,11.54Z"/>
            <path class="cls-59" d="M546.19,1525.42c5.54,0,10.03,4.49,10.03,10.03h0c0,5.55-4.49,10.04-10.03,10.04s-10.03-4.49-10.03-10.03h0c0-5.55,4.49-10.04,10.03-10.04M546.19,1522.42c-7.19,0-13.03,5.85-13.03,13.03s5.85,13.04,13.03,13.04,13.03-5.85,13.03-13.03-5.85-13.04-13.03-13.04h0Z"/>
          </g>
        </g>
        <g id="Purple_Button" data-name="Purple Button">
          <g>
            <path class="cls-65" d="M486.82,1709.34c-23.73,0-42.31-13.83-42.31-31.48s18.58-31.48,42.31-31.48,42.31,13.83,42.31,31.48-18.59,31.48-42.31,31.48Z"/>
            <path class="cls-22" d="M519.01,1676.76c0,11.84-14.45,21.44-32.27,21.44s-32.27-9.6-32.27-21.44c0-8.74.25-8.47.25-8.47h64.43s-.15.99-.15,8.47Z"/>
            <ellipse class="cls-35" cx="486.82" cy="1669.39" rx="32.27" ry="21.44"/>
          </g>
          <g>
            <path class="cls-24" d="M565.12,1689.3c-6.36,0-11.53-5.17-11.53-11.53s5.17-11.54,11.53-11.54,11.53,5.17,11.53,11.53-5.17,11.54-11.53,11.54Z"/>
            <path class="cls-59" d="M565.12,1667.73c5.54,0,10.03,4.49,10.03,10.03h0c0,5.55-4.49,10.04-10.03,10.04h0c-5.54,0-10.03-4.49-10.03-10.03h0c0-5.55,4.49-10.04,10.03-10.04h0M565.12,1664.73c-7.19,0-13.03,5.85-13.03,13.03s5.85,13.04,13.03,13.04,13.03-5.85,13.03-13.03-5.85-13.04-13.03-13.04h0Z"/>
          </g>
        </g>
        <g id="Green_Button" data-name="Green Button">
          <g>
            <path class="cls-65" d="M479.81,1639.6c-23.73,0-42.31-13.83-42.31-31.48s18.58-31.48,42.31-31.48,42.31,13.83,42.31,31.48-18.59,31.48-42.31,31.48Z"/>
            <path class="cls-14" d="M512,1607.01c0,11.84-14.45,21.44-32.27,21.44s-32.27-9.6-32.27-21.44c0-8.74.25-20.68.25-20.68h64.43s-.15,13.21-.15,20.68Z"/>
            <ellipse class="cls-12" cx="479.81" cy="1587.42" rx="32.27" ry="21.44"/>
          </g>
          <g>
            <path class="cls-25" d="M554.61,1616.4c-6.36,0-11.53-5.17-11.53-11.53s5.17-11.54,11.53-11.54,11.53,5.17,11.53,11.53-5.17,11.54-11.53,11.54Z"/>
            <path class="cls-59" d="M554.61,1594.82c5.54,0,10.03,4.49,10.03,10.03h0c0,5.55-4.49,10.04-10.03,10.04s-10.03-4.49-10.03-10.03h0c0-5.55,4.49-10.04,10.03-10.04M554.61,1591.82c-7.19,0-13.03,5.85-13.03,13.03s5.85,13.04,13.03,13.04,13.03-5.85,13.03-13.03-5.85-13.04-13.03-13.04h0Z"/>
          </g>
        </g>
        <g id="Blue_Button_Up" data-name="Blue Button Up">
          <g>
            <path class="cls-65" d="M605.55,1571.58c-23.73,0-42.31-13.83-42.31-31.48s18.58-31.48,42.31-31.48,42.31,13.83,42.31,31.48-18.59,31.48-42.31,31.48Z"/>
            <path class="cls-28" d="M637.74,1538.99c0,11.84-14.45,21.44-32.27,21.44s-32.27-9.6-32.27-21.44c0-8.74.25-20.68.25-20.68h64.43s-.15,13.21-.15,20.68Z"/>
            <ellipse class="cls-77" cx="605.55" cy="1519.4" rx="32.27" ry="21.44"/>
          </g>
        </g>
        <g id="Purple_Button_Up" data-name="Purple Button Up">
          <g>
            <path class="cls-65" d="M605.55,1711.2c-23.73,0-42.31-13.83-42.31-31.48s18.58-31.48,42.31-31.48,42.31,13.83,42.31,31.48-18.59,31.48-42.31,31.48Z"/>
            <path class="cls-22" d="M637.74,1678.61c0,11.84-14.45,21.44-32.27,21.44s-32.27-9.6-32.27-21.44c0-8.74.25-20.68.25-20.68h64.43s-.15,13.21-.15,20.68Z"/>
            <ellipse class="cls-35" cx="605.55" cy="1659.02" rx="32.27" ry="21.44"/>
          </g>
        </g>
        <g>
          <path class="cls-65" d="M603.61,1635.95c-23.73,0-42.31-13.83-42.31-31.48s18.58-31.48,42.31-31.48,42.31,13.83,42.31,31.48-18.59,31.48-42.31,31.48Z"/>
          <path class="cls-14" d="M635.8,1603.36c0,11.84-14.45,21.44-32.27,21.44s-32.27-9.6-32.27-21.44c0-8.74.25-8.47.25-8.47h64.43s-.15.99-.15,8.47Z"/>
          <ellipse class="cls-12" cx="603.61" cy="1595.99" rx="32.27" ry="21.44"/>
        </g>
        <text class="cls-10" transform="translate(414.68 1486.69)"><tspan x="0" y="0">RESET LIGHTS</tspan></text>
      </g>
      <g id="Reset_Controls" data-name="Reset Controls">
        <path class="cls-18" d="M290.21,1663.73c10.78-17.3,17.01-37.73,17.01-59.61,0-23.97-7.48-46.2-20.22-64.48,7.77-.06,15.53-3.05,21.46-8.98,11.98-11.98,11.98-31.4,0-43.37-1.9-1.9-3.99-3.5-6.21-4.8-.5-17.51-14.85-31.56-32.48-31.56H121.34c-17.78,0-32.22,14.28-32.49,32-1.95,1.22-3.81,2.66-5.5,4.36-11.98,11.98-11.98,31.4,0,43.37,5.16,5.16,11.69,8.09,18.42,8.8-12.82,18.31-20.34,40.6-20.34,64.65,0,22.08,6.34,42.67,17.3,60.07-5.63,1.18-11,3.95-15.38,8.32-11.98,11.98-11.98,31.4,0,43.37,11.98,11.98,31.4,11.98,43.37,0,4.44-4.44,7.23-9.91,8.38-15.64,17.22,10.63,37.5,16.77,59.22,16.77,22.93,0,44.26-6.84,62.07-18.59.88,6.39,3.78,12.55,8.69,17.46,11.98,11.98,31.4,11.98,43.37,0,11.98-11.98,11.98-31.4,0-43.37-5.11-5.11-11.58-8.03-18.24-8.78Z"/>
        <circle class="cls-65" cx="194.32" cy="1604.12" r="97.6"/>
        <g>
          <path class="cls-25" d="M103.94,1519.68c-6.36,0-11.53-5.17-11.53-11.53s5.17-11.54,11.53-11.54,11.53,5.17,11.53,11.53-5.17,11.54-11.53,11.54Z"/>
          <path class="cls-59" d="M103.94,1498.11c5.54,0,10.03,4.49,10.03,10.03h0c0,5.55-4.49,10.04-10.03,10.04h0c-5.54,0-10.03-4.49-10.03-10.03h0c0-5.55,4.49-10.04,10.03-10.04h0M103.94,1495.11c-7.19,0-13.03,5.85-13.03,13.03s5.85,13.04,13.03,13.04,13.03-5.85,13.03-13.03-5.85-13.04-13.03-13.04h0Z"/>
        </g>
        <g>
          <path class="cls-25" d="M288.3,1519.68c-6.36,0-11.53-5.17-11.53-11.53s5.17-11.54,11.53-11.54,11.53,5.17,11.53,11.53-5.17,11.54-11.53,11.54Z"/>
          <path class="cls-59" d="M288.3,1498.11c5.54,0,10.03,4.49,10.03,10.03h0c0,5.55-4.49,10.04-10.03,10.04h0c-5.54,0-10.03-4.49-10.03-10.03h0c0-5.55,4.49-10.04,10.03-10.04h0M288.3,1495.11c-7.19,0-13.03,5.85-13.03,13.03s5.85,13.04,13.03,13.04,13.03-5.85,13.03-13.03-5.85-13.04-13.03-13.04h0Z"/>
        </g>
        <g>
          <path class="cls-25" d="M103.94,1708.16c-6.36,0-11.53-5.17-11.53-11.53s5.17-11.54,11.53-11.54,11.53,5.17,11.53,11.53-5.17,11.54-11.53,11.54Z"/>
          <path class="cls-59" d="M103.94,1686.59c5.54,0,10.03,4.49,10.03,10.03h0c0,5.55-4.49,10.04-10.03,10.04h0c-5.54,0-10.03-4.49-10.03-10.03h0c0-5.55,4.49-10.04,10.03-10.04h0M103.94,1683.59c-7.19,0-13.03,5.85-13.03,13.03s5.85,13.04,13.03,13.04,13.03-5.85,13.03-13.03-5.85-13.04-13.03-13.04h0Z"/>
        </g>
        <g>
          <path class="cls-24" d="M288.3,1708.16c-6.36,0-11.53-5.17-11.53-11.53s5.17-11.54,11.53-11.54,11.53,5.17,11.53,11.53-5.17,11.54-11.53,11.54Z"/>
          <path class="cls-59" d="M288.3,1686.59c5.54,0,10.03,4.49,10.03,10.03h0c0,5.55-4.49,10.04-10.03,10.04h0c-5.54,0-10.03-4.49-10.03-10.03h0c0-5.55,4.49-10.04,10.03-10.04h0M288.3,1683.59c-7.19,0-13.03,5.85-13.03,13.03s5.85,13.04,13.03,13.04,13.03-5.85,13.03-13.03-5.85-13.04-13.03-13.04h0Z"/>
        </g>
        <g>
          <circle class="cls-40" cx="194.32" cy="1586.66" r="86.84"/>
          <path class="cls-20" d="M238.98,1629.6c-11.27,11.72-27.11,19.01-44.65,19.01s-32.11-6.72-43.27-17.62"/>
          <use width="21.05" height="21.63" transform="translate(170.65 1623.1) rotate(135) scale(1.74)" xlink:href="#Arrow"/>
          <use width="21.05" height="21.63" transform="translate(219.09 1623.1) rotate(45) scale(1.74 -1.74)" xlink:href="#Arrow"/>
          <path class="cls-15" d="M169.51,1524.47l20.43-20.43c1.99-1.99,5.23-1.99,7.22,0l20.43,20.43c3.22,3.22.94,8.72-3.61,8.72h-40.86c-4.55,0-6.83-5.5-3.61-8.72Z"/>
        </g>
        <text class="cls-10" transform="translate(108.17 1480.38)"><tspan x="0" y="0">RESET </tspan><tspan class="cls-50" x="65.7" y="0">C</tspan><tspan x="77.88" y="0">ONT</tspan><tspan class="cls-47" x="121.09" y="0">R</tspan><tspan x="133.6" y="0">OLS</tspan></text>
      </g>
      <g id="Reset_Laser" data-name="Reset Laser">
        <g>
          <g class="cls-70">
            <rect class="cls-41" x="164.67" y="1177.11" width="50.51" height="175.86" rx="6.92" ry="6.92" transform="translate(1454.97 1075.12) rotate(90)"/>
            <path class="cls-16" d="M133.26,1300.76l-30.21-30.21c-3.04-3.04-3.04-7.97,0-11.02l30.21-30.21M157.94,1229.33l-30.21,30.21c-3.04,3.04-3.04,7.97,0,11.02l30.21,30.21M183.53,1229.33l-30.21,30.21c-3.04,3.04-3.04,7.97,0,11.02l30.21,30.21M246.09,1300.76l30.21-30.21c3.04-3.04,3.04-7.97,0-11.02l-30.21-30.21M221.41,1229.33l30.21,30.21c3.04,3.04,3.04,7.97,0,11.02l-30.21,30.21M195.82,1229.33l30.21,30.21c3.04,3.04,3.04,7.97,0,11.02l-30.21,30.21"/>
          </g>
          <rect class="cls-40" x="101.75" y="1239.93" width="50.23" height="50.23" rx="3.69" ry="3.69" transform="translate(1391.9 1138.18) rotate(90)"/>
          <use width="21.05" height="21.63" transform="translate(144.73 1246.59) rotate(90) scale(1.74)" xlink:href="#Arrow"/>
          <g>
            <path class="cls-25" d="M298.2,1276.58c-6.36,0-11.53-5.17-11.53-11.53s5.17-11.53,11.53-11.53,11.54,5.17,11.54,11.53-5.17,11.53-11.53,11.53h0Z"/>
            <path class="cls-59" d="M298.21,1255.01c5.54,0,10.03,4.49,10.03,10.03s-4.49,10.03-10.03,10.03h0c-5.54,0-10.03-4.49-10.03-10.03s4.49-10.03,10.03-10.03h0M298.21,1252.01h0c-7.19,0-13.03,5.85-13.03,13.03s5.85,13.03,13.03,13.03,13.04-5.85,13.04-13.03-5.85-13.03-13.03-13.03h0Z"/>
          </g>
          <g>
            <path class="cls-24" d="M80.88,1276.58c-6.36,0-11.53-5.17-11.53-11.53s5.17-11.53,11.53-11.53,11.54,5.17,11.54,11.53-5.17,11.53-11.53,11.53h0Z"/>
            <path class="cls-59" d="M80.89,1255.01c5.54,0,10.03,4.49,10.03,10.03s-4.49,10.03-10.03,10.03h0c-5.54,0-10.03-4.49-10.03-10.03s4.49-10.03,10.03-10.03h0M80.89,1252.01h0c-7.19,0-13.03,5.85-13.03,13.03s5.85,13.03,13.03,13.03,13.04-5.85,13.04-13.03-5.85-13.03-13.03-13.03h0Z"/>
          </g>
        </g>
        <g>
          <g class="cls-64">
            <rect class="cls-41" x="164.67" y="1267.99" width="50.51" height="175.86" rx="6.92" ry="6.92" transform="translate(1545.85 1166) rotate(90)"/>
            <path class="cls-16" d="M133.26,1391.64l-30.21-30.21c-3.04-3.04-3.04-7.97,0-11.02l30.21-30.21M157.94,1320.21l-30.21,30.21c-3.04,3.04-3.04,7.97,0,11.02l30.21,30.21M183.53,1320.21l-30.21,30.21c-3.04,3.04-3.04,7.97,0,11.02l30.21,30.21M246.09,1391.64l30.21-30.21c3.04-3.04,3.04-7.97,0-11.02l-30.21-30.21M221.41,1320.21l30.21,30.21c3.04,3.04,3.04,7.97,0,11.02l-30.21,30.21M195.82,1320.21l30.21,30.21c3.04,3.04,3.04,7.97,0,11.02l-30.21,30.21"/>
          </g>
          <rect class="cls-40" x="101.75" y="1330.81" width="50.23" height="50.23" rx="3.69" ry="3.69" transform="translate(1482.79 1229.06) rotate(90)"/>
          <use width="21.05" height="21.63" transform="translate(145.63 1337.46) rotate(90) scale(1.74)" xlink:href="#Arrow"/>
          <g>
            <path class="cls-25" d="M298.2,1367.46c-6.36,0-11.53-5.17-11.53-11.53s5.17-11.53,11.53-11.53,11.54,5.17,11.54,11.53-5.17,11.53-11.53,11.53h0Z"/>
            <path class="cls-59" d="M298.21,1345.89c5.54,0,10.03,4.49,10.03,10.03s-4.49,10.03-10.03,10.03h0c-5.54,0-10.03-4.49-10.03-10.03s4.49-10.03,10.03-10.03h0M298.21,1342.89h0c-7.19,0-13.03,5.85-13.03,13.03s5.85,13.03,13.03,13.03,13.04-5.85,13.04-13.03-5.85-13.03-13.03-13.03h0Z"/>
          </g>
          <g>
            <path class="cls-24" d="M80.88,1367.46c-6.36,0-11.53-5.17-11.53-11.53s5.17-11.53,11.53-11.53,11.54,5.17,11.54,11.53-5.17,11.53-11.53,11.53h0Z"/>
            <path class="cls-59" d="M80.89,1345.89c5.54,0,10.03,4.49,10.03,10.03s-4.49,10.03-10.03,10.03h0c-5.54,0-10.03-4.49-10.03-10.03s4.49-10.03,10.03-10.03h0M80.89,1342.89h0c-7.19,0-13.03,5.85-13.03,13.03s5.85,13.03,13.03,13.03,13.04-5.85,13.04-13.03-5.85-13.03-13.03-13.03h0Z"/>
          </g>
        </g>
        <g>
          <g class="cls-30">
            <rect class="cls-41" x="437.27" y="1177.11" width="50.51" height="175.86" rx="6.92" ry="6.92" transform="translate(1727.57 802.52) rotate(90)"/>
            <path class="cls-16" d="M519.19,1300.76l30.21-30.21c3.04-3.04,3.04-7.97,0-11.02l-30.21-30.21M494.51,1229.33l30.21,30.21c3.04,3.04,3.04,7.97,0,11.02l-30.21,30.21M468.92,1229.33l30.21,30.21c3.04,3.04,3.04,7.97,0,11.02l-30.21,30.21M406.36,1300.76l-30.21-30.21c-3.04-3.04-3.04-7.97,0-11.02l30.21-30.21M431.03,1229.33l-30.21,30.21c-3.04,3.04-3.04,7.97,0,11.02l30.21,30.21M456.63,1229.33l-30.21,30.21c-3.04,3.04-3.04,7.97,0,11.02l30.21,30.21"/>
          </g>
          <rect class="cls-40" x="437.41" y="1239.93" width="50.23" height="50.23" rx="3.69" ry="3.69" transform="translate(1727.57 802.52) rotate(90)"/>
          <g>
            <path class="cls-25" d="M354.24,1276.58c-6.36,0-11.53-5.17-11.53-11.53s5.17-11.53,11.53-11.53,11.54,5.17,11.54,11.53-5.17,11.53-11.53,11.53h0Z"/>
            <path class="cls-59" d="M354.25,1255.01c5.54,0,10.03,4.49,10.03,10.03s-4.49,10.03-10.03,10.03h0c-5.54,0-10.03-4.49-10.03-10.03s4.49-10.03,10.03-10.03h0M354.25,1252.01h0c-7.19,0-13.03,5.85-13.03,13.03s5.85,13.03,13.03,13.03,13.04-5.85,13.04-13.03-5.85-13.03-13.03-13.03h0Z"/>
          </g>
          <g>
            <path class="cls-25" d="M571.56,1276.58c-6.36,0-11.53-5.17-11.53-11.53s5.17-11.53,11.53-11.53,11.54,5.17,11.54,11.53-5.17,11.53-11.53,11.53h0Z"/>
            <path class="cls-59" d="M571.57,1255.01c5.54,0,10.03,4.49,10.03,10.03s-4.49,10.03-10.03,10.03h0c-5.54,0-10.03-4.49-10.03-10.03s4.49-10.03,10.03-10.03h0M571.57,1252.01h0c-7.19,0-13.03,5.85-13.03,13.03s5.85,13.03,13.03,13.03,13.04-5.85,13.04-13.03-5.85-13.03-13.03-13.03h0Z"/>
          </g>
        </g>
        <g>
          <g class="cls-57">
            <rect class="cls-41" x="437.27" y="1267.99" width="50.51" height="175.86" rx="6.92" ry="6.92" transform="translate(1818.45 893.4) rotate(90)"/>
            <path class="cls-16" d="M519.19,1391.64l30.21-30.21c3.04-3.04,3.04-7.97,0-11.02l-30.21-30.21M494.51,1320.21l30.21,30.21c3.04,3.04,3.04,7.97,0,11.02l-30.21,30.21M468.92,1320.21l30.21,30.21c3.04,3.04,3.04,7.97,0,11.02l-30.21,30.21M406.36,1391.64l-30.21-30.21c-3.04-3.04-3.04-7.97,0-11.02l30.21-30.21M431.03,1320.21l-30.21,30.21c-3.04,3.04-3.04,7.97,0,11.02l30.21,30.21M456.63,1320.21l-30.21,30.21c-3.04,3.04-3.04,7.97,0,11.02l30.21,30.21"/>
          </g>
          <rect class="cls-40" x="500.33" y="1330.81" width="50.23" height="50.23" rx="3.69" ry="3.69" transform="translate(1881.36 830.48) rotate(90)"/>
          <use width="21.05" height="21.63" transform="translate(506.47 1374.18) rotate(-90) scale(1.74)" xlink:href="#Arrow"/>
          <g>
            <path class="cls-25" d="M354.24,1367.46c-6.36,0-11.53-5.17-11.53-11.53s5.17-11.53,11.53-11.53,11.54,5.17,11.54,11.53-5.17,11.53-11.53,11.53h0Z"/>
            <path class="cls-59" d="M354.25,1345.89c5.54,0,10.03,4.49,10.03,10.03s-4.49,10.03-10.03,10.03h0c-5.54,0-10.03-4.49-10.03-10.03s4.49-10.03,10.03-10.03h0M354.25,1342.89h0c-7.19,0-13.03,5.85-13.03,13.03s5.85,13.03,13.03,13.03,13.04-5.85,13.04-13.03-5.85-13.03-13.03-13.03h0Z"/>
          </g>
          <g>
            <path class="cls-24" d="M571.56,1367.46c-6.36,0-11.53-5.17-11.53-11.53s5.17-11.53,11.53-11.53,11.54,5.17,11.54,11.53-5.17,11.53-11.53,11.53h0Z"/>
            <path class="cls-59" d="M571.57,1345.89c5.54,0,10.03,4.49,10.03,10.03s-4.49,10.03-10.03,10.03h0c-5.54,0-10.03-4.49-10.03-10.03s4.49-10.03,10.03-10.03h0M571.57,1342.89h0c-7.19,0-13.03,5.85-13.03,13.03s5.85,13.03,13.03,13.03,13.04-5.85,13.04-13.03-5.85-13.03-13.03-13.03h0Z"/>
          </g>
        </g>
        <text class="cls-10" transform="translate(262.57 1318.71)"><tspan x="0" y="0">RESET </tspan><tspan class="cls-29" x="65.7" y="0">L</tspan><tspan x="77.19" y="0">ASER</tspan></text>
      </g>
      <g id="System_Upgrades" data-name="System Upgrades">
        <rect class="cls-52" x="123.18" y="1748.67" width="342.8" height="44.19" rx="12.37" ry="12.37"/>
        <rect class="cls-45" x="123.45" y="1748.67" width="420.29" height="44.19" rx="9.43" ry="9.43"/>
        <text class="cls-8" transform="translate(143.75 1778.17)"><tspan class="cls-50" x="0" y="0">S</tspan><tspan x="11.41" y="0">YSTEM UPG</tspan><tspan class="cls-58" x="124.56" y="0">R</tspan><tspan x="137.7" y="0">ADES </tspan><tspan class="cls-31" x="194.7" y="0">AV</tspan><tspan x="219.21" y="0">AI</tspan><tspan class="cls-74" x="238.45" y="0">L</tspan><tspan x="249.94" y="0">ABLE</tspan></text>
        <text class="cls-53" transform="translate(492.79 1783.33)"><tspan x="0" y="0">2</tspan></text>
      </g>
      <g id="Periscope">
        <rect class="cls-72" x="22.36" y="978.45" width="603.66" height="51.13" rx="11.03" ry="11.03"/>
        <path class="cls-72" d="M251.82,496.8h138.35v615.18c0,13.74-11.16,24.9-24.9,24.9h-88.54c-13.74,0-24.9-11.16-24.9-24.9V496.8h0Z"/>
        <g>
          <path class="cls-3" d="M252.54,1089.77c-23.25,0-45.07-9.09-61.45-25.59-16.38-16.5-25.3-38.39-25.13-61.64.35-47.38,39.59-85.92,87.47-85.92h138.58c23.99,0,46.29,9.59,62.81,26.99,16.51,17.4,24.9,40.21,23.64,64.23-2.4,45.72-40.19,81.7-86.02,81.93h-.44c-24.04,0-47.19-10.12-63.53-27.77-2.19-2.36-4.86-2.71-6.27-2.71s-3.96.34-6.05,2.61c-16.35,17.72-39.54,27.87-63.63,27.87Z"/>
          <path class="cls-68" d="M392.01,931.91h-138.58c-39.31,0-71.89,31.44-72.18,70.75-.29,39.62,31.74,71.83,71.29,71.83,20.72,0,39.37-8.84,52.39-22.95,9.32-10.1,25.43-10,34.77.09,13.09,14.14,31.85,22.97,52.67,22.87,37.55-.18,68.86-29.95,70.83-67.44,2.16-41.12-30.54-75.13-71.19-75.13Z"/>
          <path class="cls-76" d="M392.02,1054.51c-14.46,0-27.83-5.85-37.66-16.46-8.25-8.91-19.96-14.02-32.14-14.02s-23.79,5.09-31.97,13.96c-9.83,10.66-23.23,16.53-37.71,16.53s-26.71-5.39-36.42-15.17c-9.71-9.78-15-22.76-14.89-36.54.21-28.08,23.63-50.92,52.21-50.92h138.58c14.22,0,27.44,5.68,37.23,16,9.78,10.31,14.76,23.84,14.01,38.11-1.42,27.07-23.82,48.38-50.98,48.52h-.26Z"/>
        </g>
        <use width="21.05" height="21.63" transform="translate(303.67 1091.18) scale(1.74)" xlink:href="#Arrow"/>
      </g>
      <g id="Monitor">
        <path class="cls-66" d="M48.78,32.56h549.95c9.31,0,16.86,7.55,16.86,16.86v847.89c0,6.78-5.5,12.28-12.28,12.28H44.2c-6.78,0-12.28-5.5-12.28-12.28V49.42c0-9.31,7.55-16.86,16.86-16.86Z"/>
        <path class="cls-40" d="M606.65,37.21H40.86c-3.39,0-5.14-4.05-2.82-6.52l19.25-20.52C63.38,3.68,71.87,0,80.77,0h485.98c8.89,0,17.39,3.68,23.47,10.16l19.25,20.52c2.32,2.47.57,6.52-2.82,6.52Z"/>
        <path class="cls-27" d="M592.34,846.8c0,21.83-17.7,39.53-39.53,39.53H94.71c-21.83,0-39.53-17.7-39.53-39.53V100c0-21.83,17.7-39.53,39.53-39.53h458.1c21.83,0,39.53,17.7,39.53,39.53v746.81Z"/>
        <rect class="cls-59" x="55.17" y="60.46" width="537.16" height="825.87" rx="39.53" ry="39.53"/>
        <path class="cls-44" d="M94.71,74.42h458.1c21.82,0,39.53,17.71,39.53,39.53v732.85c0,21.82-17.71,39.53-39.53,39.53H94.71c-21.82,0-39.53-17.71-39.53-39.53V113.95c0-21.82,17.71-39.53,39.53-39.53Z"/>
        <text id="Game_In_Progress" data-name="Game In Progress" class="cls-6" transform="translate(99.69 869.08)"><tspan class="cls-51" x="0" y="0">C</tspan><tspan x="21.83" y="0">L</tspan><tspan class="cls-36" x="42.45" y="0">E</tspan><tspan class="cls-46" x="65.73" y="0">A</tspan><tspan class="cls-55" x="86.75" y="0">N</tspan><tspan class="cls-37" x="113.88" y="0">I</tspan><tspan class="cls-1" x="123.99" y="0">N</tspan><tspan x="151.99" y="0">G </tspan><tspan class="cls-37" x="191.22" y="0">I</tspan><tspan class="cls-61" x="201.33" y="0">N </tspan><tspan class="cls-38" x="243.66" y="0">P</tspan><tspan x="264.3" y="0">R</tspan><tspan class="cls-33" x="286.31" y="0">O</tspan><tspan x="308.37" y="0">G</tspan><tspan class="cls-34" x="332" y="0">R</tspan><tspan x="354.93" y="0">E</tspan><tspan class="cls-67" x="377.63" y="0">S</tspan><tspan class="cls-48" x="397.18" y="0">S</tspan><tspan x="414.58" y="0">...</tspan></text>
      </g>
      <g id="Settings">
        <circle class="cls-3" cx="586.51" cy="1921.29" r="42.65"/>
        <path d="M575.34,1888.9c1.31-.22,2.74.1,3.77.94.53.43.76,1.11,1.28,1.57,3.07,2.69,6.81,3.17,10.41,1.27,2.93-1.54,3.23-4.63,7.35-3.65,2.47.59,8.3,3.99,10.15,5.79,3.3,3.22.52,5.23.71,8.67.17,3.07,2.34,6.18,5.12,7.42,2.12.95,4.78.73,5.84,3.27s.95,10.11.24,12.77c-1.23,4.62-4.11,3.02-7.31,4.93-2.36,1.42-4.2,4.72-4.2,7.5s1.94,4.09.64,6.88c-1.06,2.28-8.15,6.41-10.64,7.02-3.9.96-4.47-2.07-6.97-3.74-2.65-1.77-6.22-1.75-9.02-.28-3.07,1.61-3.15,5.19-7.61,4.38-2.27-.42-8.91-4.29-10.53-5.98-2.69-2.79-.66-4.28-.3-6.87.55-3.94-1.21-8.15-4.99-9.77-2.48-1.06-5.42-.37-6.52-3.73-.83-2.52-.68-11.58.66-13.88,1.2-2.06,3.02-1.68,4.85-2.27,4.19-1.36,6.81-5.14,6.29-9.6-.29-2.49-1.96-4.37.32-6.86,1.42-1.56,8.41-5.43,10.46-5.77ZM586.19,1909.97c-14.67.42-14.14,22.83.44,22.69,14.84-.14,14.53-23.12-.44-22.69Z"/>
      </g>
      <text id="Title" class="cls-2" transform="translate(210.86 1947.47)"><tspan class="cls-32" x="0" y="0">G</tspan><tspan x="50.77" y="0">O</tspan><tspan class="cls-43" x="94.43" y="0">O</tspan><tspan class="cls-49" x="138.94" y="0">P</tspan><tspan x="182.79" y="0">S</tspan></text>
      <g id="How_to_Play" data-name="How to Play">
        <circle class="cls-3" cx="60.02" cy="1920.16" r="42.65"/>
        <text class="cls-5" transform="translate(43.23 1951.29)"><tspan x="0" y="0">?</tspan></text>
      </g>
    </g>
  </g>
</svg>