<?xml version="1.0" encoding="UTF-8"?>
<svg id="Layer_2" data-name="Layer 2" xmlns="http://www.w3.org/2000/svg" viewBox="0 0 487.03 62.09">
  <defs>
    <style>
      .cls-1 {
        fill: #59acae;
      }

      .cls-2 {
        fill: none;
        stroke: #5bbc70;
        stroke-miterlimit: 10;
      }

      .cls-2, .cls-3 {
        fill-rule: evenodd;
      }

      .cls-4 {
        fill: #6acbda;
      }

      .cls-3 {
        fill: #5bbc70;
      }
    </style>
  </defs>
  <g id="MainMenu">
    <g id="Console_Back" data-name="Console Back">
      <g id="Screen_Text" data-name="Screen Text">
        <path id="Meter" class="cls-2" d="M459.99,61.59H27.04c-5.07,0-10.53-4.42-12.2-9.88h0c-1.67-5.46,1.2-9.88,6.4-9.88h444.54c5.2,0,8.07,4.42,6.4,9.88h0c-1.67,5.46-7.13,9.88-12.2,9.88Z"/>
        <path id="Meter_Fill" data-name="Meter Fill" class="cls-3" d="M366.06,61.59H25.92c-4.45,0-9.25-3.89-10.71-8.68l-.73-2.4c-1.46-4.79,1.05-8.68,5.62-8.68h349.24s-3.28,19.77-3.28,19.77Z"/>
        <g>
          <path class="cls-1" d="M323.46,26.2l1.07-10.36-3.46,1.31.14-1.4,3.63-1.64h1.58l-1.27,12.08h-1.68Z"/>
          <path class="cls-1" d="M333.34,26.47c-1.4,0-2.41-.54-3.03-1.62-.63-1.09-.83-2.65-.6-4.68s.77-3.59,1.65-4.67c.88-1.09,2.02-1.64,3.44-1.64s2.44.54,3.07,1.62c.63,1.08.82,2.64.57,4.67s-.81,3.6-1.68,4.69c-.87,1.09-2.01,1.63-3.41,1.63ZM331.66,23.84c.33.78.94,1.17,1.84,1.17.9,0,1.6-.39,2.11-1.17.51-.77.87-2,1.07-3.67s.13-2.9-.2-3.68c-.33-.78-.95-1.17-1.86-1.17s-1.62.39-2.13,1.17c-.51.78-.86,2-1.05,3.67s-.12,2.9.22,3.68Z"/>
          <path class="cls-1" d="M340.5,24.18c.71,0,1.05.2.99.61-.03.21-.15.55-.36,1.01l-1.47,3.07h-1.16l1.45-4.69h.54Z"/>
          <path class="cls-1" d="M348.29,19.26h.17c1.13,0,1.99.32,2.56.95.57.63.78,1.49.63,2.58s-.67,1.98-1.57,2.66c-.89.68-2.01,1.02-3.36,1.02-1.07,0-2.09-.23-3.07-.7l.18-1.4c1.18.42,2.2.63,3.07.63s1.56-.2,2.08-.6c.52-.4.83-.96.93-1.69.19-1.41-.59-2.11-2.33-2.1-.55,0-1.09.03-1.63.09l.15-1.16,4.14-3.98h-5.09l.19-1.43h7.02l-.19,1.38-4.05,3.78c.06-.01.12-.02.18-.02Z"/>
          <path class="cls-1" d="M358.61,26.2l.39-2.61h-5.64l.19-1.33,6.82-8.14h1.66l-1.22,8.07h1.63l-.21,1.4h-1.63l-.39,2.61h-1.6ZM359.21,22.19l.86-5.79-4.82,5.79h3.96Z"/>
          <path class="cls-1" d="M364.95,15.55l.22-1.43h8.1l-.23,1.38-6.37,10.71h-1.81l6.43-10.65h-6.35Z"/>
          <path class="cls-1" d="M376.64,28.71l8.57-15.66h1.73l-8.6,15.66h-1.69Z"/>
          <path class="cls-1" d="M394.27,26.2l2.02-10.36-3.58,1.31.27-1.4,3.78-1.64h1.58l-2.38,12.08h-1.68Z"/>
          <path class="cls-1" d="M406.78,13.85c1.04,0,1.82.3,2.32.89.5.59.65,1.38.44,2.36-.14.65-.45,1.32-.94,1.99-.49.67-1.2,1.45-2.15,2.33-.95.89-2.25,2-3.91,3.35h5.94l-.3,1.43h-7.89l.27-1.35c1.99-1.71,3.46-3.01,4.41-3.91.95-.9,1.63-1.62,2.03-2.17.4-.55.66-1.09.77-1.62.11-.53.02-.97-.26-1.31-.28-.33-.72-.5-1.32-.5-1.02,0-2.23.44-3.62,1.31l.3-1.48c1.27-.89,2.57-1.33,3.89-1.33Z"/>
          <path class="cls-1" d="M411.49,24.18c.71,0,1.03.2.94.61-.05.21-.2.55-.45,1.01l-1.75,3.07h-1.16l1.88-4.69h.54Z"/>
          <path class="cls-1" d="M421.21,22.61c.35-1.54-.33-2.31-2.05-2.3-.85,0-1.81.06-2.88.17l.25-1.15,1.48-5.21h6.29l-.33,1.43h-4.83l-1.02,3.53c.66-.11,1.24-.17,1.74-.17,1.23,0,2.12.33,2.67,1,.54.66.68,1.57.42,2.72-.26,1.15-.87,2.08-1.84,2.78-.97.7-2.07,1.06-3.31,1.06s-2.3-.23-3.2-.7l.31-1.4c1.16.42,2.18.63,3.06.63s1.6-.2,2.15-.6c.55-.4.92-1,1.1-1.79Z"/>
          <path class="cls-1" d="M428.21,26.47c-1.4,0-2.34-.54-2.84-1.62-.49-1.09-.51-2.65-.03-4.68s1.21-3.59,2.22-4.67c1.01-1.09,2.22-1.64,3.64-1.64s2.38.54,2.87,1.62c.5,1.08.49,2.64,0,4.67s-1.25,3.6-2.26,4.69c-1.01,1.09-2.21,1.63-3.61,1.63ZM426.85,23.84c.24.78.8,1.17,1.7,1.17.9,0,1.65-.39,2.25-1.17.61-.77,1.11-2,1.52-3.67s.49-2.9.25-3.68c-.24-.78-.81-1.17-1.71-1.17s-1.66.39-2.27,1.17c-.61.78-1.11,2-1.5,3.67s-.47,2.9-.24,3.68Z"/>
          <path class="cls-1" d="M438.15,26.47c-1.4,0-2.34-.54-2.81-1.62-.48-1.09-.47-2.65.03-4.68s1.26-3.59,2.28-4.67c1.02-1.09,2.24-1.64,3.66-1.64s2.37.54,2.85,1.62c.48,1.08.46,2.64-.06,4.67s-1.3,3.6-2.32,4.69c-1.02,1.09-2.23,1.63-3.63,1.63ZM436.82,23.84c.23.78.79,1.17,1.68,1.17.9,0,1.65-.39,2.27-1.17.62-.77,1.14-2,1.57-3.67s.53-2.9.3-3.68c-.23-.78-.79-1.17-1.7-1.17s-1.67.39-2.29,1.17c-.62.78-1.13,2-1.55,3.67s-.51,2.9-.28,3.68Z"/>
          <path class="cls-1" d="M459.64,26.2l-.93-3.87-3.04,3.87h-3.58l5.46-6.23-1.89-5.86h3.71l.77,3.4,2.65-3.4h3.64l-5.18,5.83,2.05,6.26h-3.65Z"/>
          <path class="cls-1" d="M468.87,22.28l-1.14,3.92h-3.16l3.45-12.09h4.89c1.37,0,2.34.36,2.93,1.09.58.73.68,1.72.31,2.99s-1.07,2.26-2.08,2.99c-1.01.73-2.18,1.09-3.54,1.09h-1.67ZM469.58,19.84h1.2c.52,0,.97-.15,1.34-.44.37-.29.63-.69.78-1.2s.12-.91-.08-1.2c-.2-.29-.57-.44-1.09-.44h-1.2l-.95,3.28Z"/>
        </g>
        <g id="Operator_Rank" data-name="Operator Rank">
          <path class="cls-4" d="M179.04,29.53l-.39-4.67c2.36-2.53,4.19-4.58,5.48-6.14,1.3-1.56,2.23-2.84,2.79-3.85.56-1.01.81-1.91.76-2.7-.04-.63-.29-1.14-.73-1.53-.44-.4-1.01-.59-1.71-.59-2.03,0-4.36.94-6.97,2.83l-.43-5.2c2.35-1.93,5.04-2.9,8.06-2.9,2.44,0,4.42.6,5.94,1.81,1.51,1.21,2.33,2.83,2.46,4.85.07,1.16-.14,2.35-.64,3.56-.5,1.21-1.36,2.55-2.59,4.03-1.22,1.48-2.99,3.29-5.28,5.42h10.24l.31,5.09h-17.3Z"/>
          <g>
            <path class="cls-4" d="M9.54,24.9c-.88-1.15-1.57-2.51-2.04-4.07s-.63-2.92-.45-4.06c.18-1.14.67-2.01,1.5-2.63.82-.61,1.93-.92,3.33-.92,2.07,0,3.88.67,5.45,2.02,1.57,1.35,2.68,3.2,3.36,5.55.44,1.55.57,2.89.39,4.03-.18,1.14-.67,2.02-1.47,2.64-.8.62-1.88.93-3.24.93s-2.62-.3-3.77-.89c-1.15-.59-2.17-1.46-3.06-2.61ZM9.46,16.5c-.48.98-.43,2.42.13,4.31s1.38,3.33,2.45,4.31c1.06.98,2.32,1.48,3.77,1.48s2.41-.5,2.89-1.49c.47-.99.44-2.43-.1-4.31s-1.34-3.32-2.4-4.3c-1.06-.98-2.33-1.48-3.81-1.48s-2.46.49-2.94,1.48Z"/>
            <path class="cls-4" d="M26.32,22.41l1.57,5.63h-2.01l-4.09-14.5h5.18c1.39,0,2.61.4,3.65,1.19,1.04.79,1.74,1.88,2.11,3.24s.25,2.45-.35,3.24c-.6.79-1.59,1.19-2.97,1.19h-3.1ZM28.79,20.73c1.74,0,2.35-.92,1.85-2.76s-1.62-2.76-3.37-2.76h-2.95l1.54,5.52h2.93Z"/>
            <path class="cls-4" d="M38.06,28.04l-3.86-14.5h8.92l.44,1.72h-6.8l1.17,4.46h5.67l.44,1.72h-5.65l1.29,4.9h6.7l.44,1.72h-8.76Z"/>
            <path class="cls-4" d="M49.45,28.04l-3.64-14.5h5.22c1.39,0,2.59.39,3.61,1.16,1.01.77,1.67,1.81,1.99,3.12.23.96.17,1.79-.17,2.5-.34.7-.93,1.22-1.78,1.54l5.23,6.19h-2.26l-4.88-5.86h-2.76l1.46,5.86h-2.01ZM52.49,20.51c1.79,0,2.47-.88,2.05-2.65s-1.51-2.65-3.26-2.65h-3l1.32,5.29h2.89Z"/>
            <path class="cls-4" d="M71.18,28.04l-2.17-3.85h-5.82l-.35,3.85h-2.14l1.87-14.5h2.27l8.49,14.5h-2.15ZM63.36,22.57h4.77l-4.02-7.11-.74,7.11Z"/>
            <path class="cls-4" d="M77.32,28.04l-2.74-12.74h-4.56l-.39-1.76h11.26l.36,1.76h-4.57l2.71,12.74h-2.07Z"/>
            <path class="cls-4" d="M85.04,24.9c-.77-1.15-1.32-2.51-1.64-4.07s-.34-2.92-.05-4.06c.29-1.14.87-2.01,1.75-2.63.88-.61,2.02-.92,3.42-.92,2.07,0,3.82.67,5.26,2.02,1.43,1.35,2.37,3.2,2.82,5.55.29,1.55.29,2.89,0,4.03-.29,1.14-.87,2.02-1.72,2.64-.86.62-1.97.93-3.33.93s-2.59-.3-3.69-.89c-1.1-.59-2.03-1.46-2.8-2.61ZM85.77,16.5c-.57.98-.67,2.42-.29,4.31s1.06,3.33,2.03,4.31c.97.98,2.18,1.48,3.63,1.48s2.46-.5,3.03-1.49c.57-.99.68-2.43.32-4.31s-1.02-3.32-1.98-4.3c-.96-.98-2.18-1.48-3.66-1.48s-2.51.49-3.09,1.48Z"/>
            <path class="cls-4" d="M101.06,28.04l-2.67-14.5h5.22c1.39,0,2.57.39,3.53,1.16.96.77,1.55,1.81,1.78,3.12.17.96.05,1.79-.34,2.5-.39.7-1.02,1.22-1.88,1.54l4.82,6.19h-2.26l-4.49-5.86h-2.76l1.06,5.86h-2.01ZM104.6,20.51c1.79,0,2.53-.88,2.22-2.65s-1.34-2.65-3.08-2.65h-3l.96,5.29h2.89Z"/>
            <path class="cls-4" d="M118.83,28.04l-2.34-14.5h5.22c1.39,0,2.56.39,3.5,1.16.94.77,1.51,1.81,1.7,3.12.14.96.01,1.79-.39,2.5-.4.7-1.04,1.22-1.91,1.54l4.68,6.19h-2.26l-4.36-5.86h-2.76l.93,5.86h-2.01ZM122.54,20.51c1.79,0,2.55-.88,2.28-2.65s-1.28-2.65-3.02-2.65h-3l.84,5.29h2.89Z"/>
            <path class="cls-4" d="M140.57,28.04l-1.82-3.85h-5.82l-.7,3.85h-2.14l3.18-14.5h2.27l7.19,14.5h-2.15ZM133.24,22.57h4.77l-3.38-7.11-1.38,7.11Z"/>
            <path class="cls-4" d="M146.54,28.04h-1.91l-1.86-14.5h2.29l8.41,11.59-1.35-11.59h1.95l1.65,14.5h-2.28l-8.35-11.53,1.45,11.53Z"/>
            <path class="cls-4" d="M159.13,28.04l-1.58-14.5h2.11l.69,6.49,5.21-6.49h2.48l-5.65,6.93,7.59,7.57h-2.54l-6.98-6.93.74,6.93h-2.07Z"/>
          </g>
        </g>
      </g>
    </g>
  </g>
</svg>