<?xml version="1.0" encoding="UTF-8"?>
<svg id="Layer_2" data-name="Layer 2" xmlns="http://www.w3.org/2000/svg" xmlns:xlink="http://www.w3.org/1999/xlink" viewBox="0 0 603.66 640.09">
  <defs>
    <style>
      .cls-1 {
        fill: #fff;
      }

      .cls-2 {
        fill: #5bbc70;
      }

      .cls-3 {
        fill: #0b1c3f;
      }

      .cls-4 {
        fill: #087962;
      }

      .cls-5 {
        fill: #373a60;
      }
    </style>
    <symbol id="Arrow" viewBox="0 0 21.05 21.63">
      <path id="Down" class="cls-1" d="M21.05,1.52v.45l-.14.45c-2.77,3.62-5.81,7.05-8.67,10.61-.73.94-1.94,1.07-2.8.21L.54,3.02C.27,2.71.1,2.38,0,1.98c.01-.15-.02-.31,0-.45C.1.77.79.08,1.55,0h17.84c.82.02,1.56.72,1.66,1.52ZM19.57,7.83c-.69.84-1.38,1.67-2.07,2.49-1.14,1.37-2.32,2.78-3.45,4.18-.81,1.04-2.03,1.66-3.31,1.66-1.1,0-2.15-.45-2.96-1.27l-.05-.05L1.62,7.81h-.07c-.76.08-1.45.77-1.54,1.52-.02.14.01.31,0,.45.09.41.26.74.54,1.05l8.9,10.22c.86.87,2.06.73,2.8-.21,2.86-3.56,5.91-6.99,8.67-10.61l.14-.45v-.45c-.09-.74-.74-1.39-1.48-1.5Z"/>
    </symbol>
  </defs>
  <g id="MainMenu">
    <g id="Periscope">
      <rect class="cls-4" y="481.65" width="603.66" height="51.13" rx="11.03" ry="11.03"/>
      <path class="cls-4" d="M229.46,0h138.35v615.18c0,13.74-11.16,24.9-24.9,24.9h-88.54c-13.74,0-24.9-11.16-24.9-24.9V0h0Z"/>
      <g>
        <path class="cls-2" d="M230.18,592.97c-23.25,0-45.07-9.09-61.45-25.59-16.38-16.5-25.3-38.39-25.13-61.64.35-47.38,39.59-85.92,87.47-85.92h138.58c23.99,0,46.29,9.59,62.81,26.99,16.51,17.4,24.9,40.21,23.64,64.23-2.4,45.72-40.19,81.7-86.02,81.93h-.44c-24.04,0-47.19-10.12-63.53-27.77-2.19-2.36-4.86-2.71-6.27-2.71s-3.96.34-6.05,2.61c-16.35,17.72-39.54,27.87-63.63,27.87Z"/>
        <path class="cls-3" d="M369.66,435.1h-138.58c-39.31,0-71.89,31.44-72.18,70.75-.29,39.62,31.74,71.83,71.29,71.83,20.72,0,39.37-8.84,52.39-22.95,9.32-10.1,25.43-10,34.77.09,13.09,14.14,31.85,22.97,52.67,22.87,37.55-.18,68.86-29.95,70.83-67.44,2.16-41.12-30.54-75.13-71.19-75.13Z"/>
        <path class="cls-5" d="M369.66,557.71c-14.46,0-27.83-5.85-37.66-16.46-8.25-8.91-19.96-14.02-32.14-14.02s-23.79,5.09-31.97,13.96c-9.83,10.66-23.23,16.53-37.71,16.53s-26.71-5.39-36.42-15.17c-9.71-9.78-15-22.76-14.89-36.54.21-28.08,23.63-50.92,52.21-50.92h138.58c14.22,0,27.44,5.68,37.23,16,9.78,10.31,14.76,23.84,14.01,38.11-1.42,27.07-23.82,48.38-50.98,48.52h-.26Z"/>
      </g>
      <use width="21.05" height="21.63" transform="translate(281.31 594.38) scale(1.74)" xlink:href="#Arrow"/>
    </g>
  </g>
</svg>