<?xml version="1.0" encoding="UTF-8"?>
<svg id="Layer_2" data-name="Layer 2" xmlns="http://www.w3.org/2000/svg" viewBox="0 0 243.07 273.94">
  <defs>
    <style>
      .cls-1 {
        fill: #fff;
      }

      .cls-2 {
        fill: #d36b28;
      }

      .cls-3 {
        letter-spacing: -.02em;
      }

      .cls-4 {
        fill: #45486c;
      }

      .cls-4, .cls-5, .cls-6 {
        fill-rule: evenodd;
      }

      .cls-7 {
        fill: #6acbda;
        font-family: AmazonEmber-Regular, 'Amazon Ember';
        font-size: 20.93px;
      }

      .cls-8 {
        fill: #1f1f38;
      }

      .cls-9 {
        letter-spacing: -.02em;
      }

      .cls-10 {
        fill: #0d1a19;
      }

      .cls-5 {
        fill: #d8672b;
      }

      .cls-6 {
        fill: #231f20;
      }
    </style>
  </defs>
  <g id="MainMenu">
    <g id="Reset_Controls" data-name="Reset Controls">
      <path class="cls-4" d="M215.84,212.8c10.78-17.3,17.01-37.73,17.01-59.61,0-23.97-7.48-46.2-20.22-64.48,7.77-.06,15.53-3.05,21.46-8.98,11.98-11.98,11.98-31.4,0-43.37-1.9-1.9-3.99-3.5-6.21-4.8-.5-17.51-14.85-31.56-32.48-31.56H46.98C29.2,0,14.76,14.28,14.49,32c-1.95,1.22-3.81,2.66-5.5,4.36-11.98,11.98-11.98,31.4,0,43.37,5.16,5.16,11.69,8.09,18.42,8.8-12.82,18.31-20.34,40.6-20.34,64.65,0,22.08,6.34,42.67,17.3,60.07-5.63,1.18-11,3.95-15.38,8.32-11.98,11.98-11.98,31.4,0,43.37,11.98,11.98,31.4,11.98,43.37,0,4.44-4.44,7.23-9.91,8.38-15.64,17.22,10.63,37.5,16.77,59.22,16.77,22.93,0,44.26-6.84,62.07-18.59.88,6.39,3.78,12.55,8.69,17.46,11.98,11.98,31.4,11.98,43.37,0,11.98-11.98,11.98-31.4,0-43.37-5.11-5.11-11.58-8.03-18.24-8.78Z"/>
      <circle class="cls-10" cx="119.96" cy="153.19" r="97.6"/>
      <path class="cls-6" d="M29.57,68.75c-6.36,0-11.53-5.17-11.53-11.53s5.17-11.54,11.53-11.54,11.53,5.17,11.53,11.53-5.17,11.54-11.53,11.54Z"/>
      <path class="cls-8" d="M29.57,47.18c5.54,0,10.03,4.49,10.03,10.03h0c0,5.55-4.49,10.04-10.03,10.04h0c-5.54,0-10.03-4.49-10.03-10.03h0c0-5.55,4.49-10.04,10.03-10.04h0M29.57,44.18c-7.19,0-13.03,5.85-13.03,13.03s5.85,13.04,13.03,13.04,13.03-5.85,13.03-13.03-5.85-13.04-13.03-13.04h0Z"/>
      <path class="cls-6" d="M213.93,68.75c-6.36,0-11.53-5.17-11.53-11.53s5.17-11.54,11.53-11.54,11.53,5.17,11.53,11.53-5.17,11.54-11.53,11.54Z"/>
      <path class="cls-8" d="M213.93,47.18c5.54,0,10.03,4.49,10.03,10.03h0c0,5.55-4.49,10.04-10.03,10.04h0c-5.54,0-10.03-4.49-10.03-10.03h0c0-5.55,4.49-10.04,10.03-10.04h0M213.93,44.18c-7.19,0-13.03,5.85-13.03,13.03s5.85,13.04,13.03,13.04,13.03-5.85,13.03-13.03-5.85-13.04-13.03-13.04h0Z"/>
      <path class="cls-6" d="M29.57,257.23c-6.36,0-11.53-5.17-11.53-11.53s5.17-11.54,11.53-11.54,11.53,5.17,11.53,11.53-5.17,11.54-11.53,11.54Z"/>
      <path class="cls-8" d="M29.57,235.66c5.54,0,10.03,4.49,10.03,10.03h0c0,5.55-4.49,10.04-10.03,10.04h0c-5.54,0-10.03-4.49-10.03-10.03h0c0-5.55,4.49-10.04,10.03-10.04h0M29.57,232.66c-7.19,0-13.03,5.85-13.03,13.03s5.85,13.04,13.03,13.04,13.03-5.85,13.03-13.03-5.85-13.04-13.03-13.04h0Z"/>
      <path class="cls-5" d="M213.93,257.23c-6.36,0-11.53-5.17-11.53-11.53s5.17-11.54,11.53-11.54,11.53,5.17,11.53,11.53-5.17,11.54-11.53,11.54Z"/>
      <path class="cls-8" d="M213.93,235.66c5.54,0,10.03,4.49,10.03,10.03h0c0,5.55-4.49,10.04-10.03,10.04h0c-5.54,0-10.03-4.49-10.03-10.03h0c0-5.55,4.49-10.04,10.03-10.04h0M213.93,232.66c-7.19,0-13.03,5.85-13.03,13.03s5.85,13.04,13.03,13.04,13.03-5.85,13.03-13.03-5.85-13.04-13.03-13.04h0Z"/>
      <g>
        <circle class="cls-2" cx="119.96" cy="135.74" r="86.84"/>
        <path class="cls-1" d="M63.11,165.5c-1.58,1.58-2.32,3.83-2.04,6.12.34,3.11.62,6.31.9,9.41.16,1.85.34,3.73.52,5.62-1.06.78-2.64.78-3.68-.02l-.56-.56-.38-.74c-1.05-7.88-1.53-15.87-2.39-23.78-.25-2.06,1.07-3.71,3.2-3.7l23.58,1.63c.72.04,1.34.24,1.95.63.16.19.4.36.56.56.82,1.04.82,2.75-.03,3.78l-.09.09-16.2-1.12h-.13c-2.01,0-3.86.74-5.21,2.09ZM172.7,167.48l-23.58,1.63c-.72.04-1.34.24-1.95.63-.16.19-.4.36-.56.56-.82,1.04-.82,2.75.03,3.78l8.76,8.77c-10.15,7.68-22.44,11.83-35.44,11.83s-24.76-3.99-34.81-11.37l9.23-9.23c.84-1.03.84-2.73.03-3.78-.15-.2-.39-.36-.56-.56-.61-.39-1.23-.59-1.95-.63l-23.58-1.63c-2.13,0-3.45,1.64-3.2,3.7.86,7.92,1.34,15.9,2.39,23.78l.38.74.56.56c1.12.87,2.89.81,3.93-.17l8.5-8.5c11.21,8.48,24.82,13.09,39.09,13.09s28.41-4.76,39.72-13.55l8.96,8.96c1.04.98,2.81,1.04,3.93.17l.56-.56.38-.74c1.05-7.88,1.53-15.87,2.39-23.78.25-2.06-1.07-3.71-3.2-3.7ZM182.33,157.85l-23.58,1.63c-.72.04-1.34.24-1.95.63-.16.19-.4.36-.56.56-.82,1.04-.82,2.75.03,3.78l.09.09,16.2-1.12h.13c2.01,0,3.86.74,5.21,2.09,1.58,1.58,2.32,3.83,2.04,6.12-.34,3.11-.62,6.31-.9,9.41-.16,1.85-.34,3.73-.52,5.62,1.06.78,2.64.78,3.68-.02l.56-.56.38-.74c1.05-7.88,1.53-15.87,2.39-23.78.25-2.06-1.07-3.71-3.2-3.7ZM98.76,82.26h40.86c4.55,0,6.83-5.5,3.61-8.72l-20.43-20.43c-1.99-1.99-5.23-1.99-7.22,0l-20.43,20.43c-3.22,3.22-.94,8.72,3.61,8.72Z"/>
      </g>
      <text class="cls-7" transform="translate(33.81 29.45)"><tspan x="0" y="0">RESET </tspan><tspan class="cls-9" x="65.7" y="0">C</tspan><tspan x="77.88" y="0">ONT</tspan><tspan class="cls-3" x="121.09" y="0">R</tspan><tspan x="133.6" y="0">OLS</tspan></text>
    </g>
  </g>
</svg>