<?xml version="1.0" encoding="UTF-8"?>
<svg id="Layer_2" data-name="Layer 2" xmlns="http://www.w3.org/2000/svg" viewBox="0 0 267.53 267.9">
  <defs>
    <style>
      .cls-1 {
        fill: #f6f081;
      }

      .cls-2 {
        fill: #cb8abc;
      }

      .cls-3 {
        fill: #fff;
      }

      .cls-4 {
        fill: #d36b28;
      }

      .cls-5 {
        fill: #4c833c;
      }

      .cls-5, .cls-6, .cls-7, .cls-8, .cls-9, .cls-10, .cls-11 {
        fill-rule: evenodd;
      }

      .cls-12 {
        fill: #eebfc5;
      }

      .cls-6 {
        fill: #45486c;
      }

      .cls-13 {
        fill: #6acbda;
        font-family: AmazonEmber-Regular, 'Amazon Ember';
        font-size: 20.93px;
      }

      .cls-14 {
        fill: #1f1f38;
      }

      .cls-7 {
        fill: #803d83;
      }

      .cls-15 {
        fill: #0d1a19;
      }

      .cls-8, .cls-11 {
        fill: #d8672b;
      }

      .cls-9 {
        fill: #231f20;
      }

      .cls-10 {
        fill: #3d8380;
      }

      .cls-11 {
        opacity: .25;
      }

      .cls-16 {
        fill: #96d7dd;
      }
    </style>
  </defs>
  <g id="MainMenu">
    <g id="Reset_Lights" data-name="Reset Lights">
      <polygon class="cls-6" points="267.53 267.9 0 267.9 0 0 222.98 0 267.53 267.9"/>
      <g>
        <rect class="cls-12" x="15.69" y="78.22" width="50.51" height="175.86" rx="6.92" ry="6.92"/>
        <path class="cls-11" d="M36.5,80.34l-20.81,20.81v-4.24l18.68-18.68h13.15l18.68,18.68v4.24l-20.81-20.81c-2.45-2.45-6.44-2.45-8.89,0ZM66.21,230.66l-20.81,20.81c-2.45,2.45-6.44,2.45-8.89,0l-20.81-20.81v4.24l18.69,18.69c.18.18.36.34.55.49h12.04c.19-.16.37-.32.55-.49l18.69-18.69v-4.24ZM45.4,226.79c-1.19,1.19-2.77,1.84-4.45,1.84s-3.26-.65-4.45-1.84l-20.81-20.81v4.24l18.69,18.69c1.75,1.75,4.09,2.72,6.57,2.72s4.81-.97,6.57-2.72l18.69-18.69v-4.24l-20.81,20.81ZM40.95,100.17c-2.48,0-4.81.97-6.57,2.72l-18.69,18.69v4.24l20.81-20.81c1.19-1.19,2.77-1.84,4.45-1.84s3.26.65,4.45,1.84l20.81,20.81v-4.24l-18.69-18.69c-1.75-1.75-4.09-2.72-6.57-2.72ZM45.4,201.2c-2.45,2.45-6.44,2.45-8.89,0l-20.81-20.81v4.24l18.69,18.69c1.81,1.81,4.19,2.72,6.57,2.72s4.76-.91,6.57-2.72l18.69-18.69v-4.24l-20.81,20.81ZM34.38,128.49l-18.69,18.69v4.24l20.81-20.81c2.45-2.45,6.44-2.45,8.89,0l20.81,20.81v-4.24l-18.69-18.69c-3.62-3.62-9.52-3.62-13.14,0Z"/>
        <rect class="cls-4" x="15.83" y="78.12" width="50.23" height="50.23" rx="3.69" ry="3.69"/>
        <path class="cls-3" d="M22.49,119.55v-.79l.25-.79c4.83-6.32,10.14-12.3,15.13-18.51,1.28-1.63,3.38-1.87,4.88-.36l15.52,17.83c.48.54.78,1.12.93,1.83-.02.25.03.54,0,.79-.16,1.32-1.37,2.52-2.69,2.65h-31.12c-1.43-.04-2.72-1.25-2.9-2.65ZM25.07,108.54c1.21-1.46,2.42-2.91,3.61-4.34,1.99-2.38,4.05-4.84,6.02-7.29,1.42-1.82,3.54-2.89,5.77-2.89,1.91,0,3.75.78,5.16,2.21l.09.09,10.66,12.24h.12c1.32-.13,2.53-1.34,2.69-2.65.03-.25-.02-.54,0-.79-.16-.71-.45-1.28-.93-1.83l-15.52-17.83c-1.5-1.51-3.6-1.28-4.88.36-4.99,6.21-10.3,12.19-15.13,18.51l-.25.79v.79c.16,1.3,1.28,2.42,2.58,2.62Z"/>
        <path class="cls-8" d="M40.95,68.65c-6.36,0-11.53-5.17-11.53-11.53s5.17-11.54,11.53-11.54,11.53,5.17,11.53,11.53-5.17,11.54-11.53,11.54Z"/>
        <path class="cls-14" d="M40.95,47.08c5.54,0,10.03,4.49,10.03,10.03h0c0,5.55-4.49,10.04-10.03,10.04s-10.03-4.49-10.03-10.03h0c0-5.55,4.49-10.04,10.03-10.04M40.95,44.08c-7.19,0-13.03,5.85-13.03,13.03s5.85,13.04,13.03,13.04,13.03-5.85,13.03-13.03-5.85-13.04-13.03-13.04h0Z"/>
      </g>
      <g id="Blue_Button" data-name="Blue Button">
        <g id="Down">
          <path class="cls-15" d="M132.33,103.88c-23.73,0-42.31-13.83-42.31-31.48s18.58-31.48,42.31-31.48,42.31,13.83,42.31,31.48-18.59,31.48-42.31,31.48Z"/>
          <path class="cls-10" d="M164.53,71.3c0,11.84-14.45,21.44-32.27,21.44s-32.27-9.6-32.27-21.44c0-8.74.25-8.47.25-8.47h64.43s-.15.99-.15,8.47Z"/>
          <ellipse class="cls-16" cx="132.34" cy="63.92" rx="32.27" ry="21.44"/>
        </g>
        <g>
          <path class="cls-15" d="M132.33,103.88c-23.73,0-42.31-13.83-42.31-31.48s18.58-31.48,42.31-31.48,42.31,13.83,42.31,31.48-18.59,31.48-42.31,31.48Z"/>
          <path class="cls-10" d="M164.53,71.3c0,11.84-14.45,21.44-32.27,21.44s-32.27-9.6-32.27-21.44c0-8.74.25-20.68.25-20.68h64.43s-.15,13.21-.15,20.68Z"/>
          <ellipse class="cls-16" cx="132.34" cy="51.7" rx="32.27" ry="21.44"/>
        </g>
        <g>
          <path class="cls-8" d="M205.03,79.98c-6.36,0-11.53-5.17-11.53-11.53s5.17-11.54,11.53-11.54,11.53,5.17,11.53,11.53-5.17,11.54-11.53,11.54Z"/>
          <path class="cls-14" d="M205.03,58.4c5.54,0,10.03,4.49,10.03,10.03h0c0,5.55-4.49,10.04-10.03,10.04s-10.03-4.49-10.03-10.03h0c0-5.55,4.49-10.04,10.03-10.04M205.03,55.4c-7.19,0-13.03,5.85-13.03,13.03s5.85,13.04,13.03,13.04,13.03-5.85,13.03-13.03-5.85-13.04-13.03-13.04h0Z"/>
        </g>
      </g>
      <g id="Purple_Button" data-name="Purple Button">
        <g id="Down-2" data-name="Down">
          <path class="cls-15" d="M145.65,257.13c-23.73,0-42.31-13.83-42.31-31.48s18.58-31.48,42.31-31.48,42.31,13.83,42.31,31.48-18.59,31.48-42.31,31.48Z"/>
          <path class="cls-7" d="M177.84,224.54c0,11.84-14.45,21.44-32.27,21.44s-32.27-9.6-32.27-21.44c0-8.74.25-8.47.25-8.47h64.43s-.15.99-.15,8.47Z"/>
          <ellipse class="cls-2" cx="145.65" cy="217.17" rx="32.27" ry="21.44"/>
        </g>
        <g>
          <path class="cls-15" d="M145.65,257.13c-23.73,0-42.31-13.83-42.31-31.48s18.58-31.48,42.31-31.48,42.31,13.83,42.31,31.48-18.59,31.48-42.31,31.48Z"/>
          <path class="cls-7" d="M177.84,224.54c0,11.84-14.45,21.44-32.27,21.44s-32.27-9.6-32.27-21.44c0-8.74.25-20.68.25-20.68h64.43s-.15,13.21-.15,20.68Z"/>
          <ellipse class="cls-2" cx="145.65" cy="204.95" rx="32.27" ry="21.44"/>
        </g>
        <g>
          <path class="cls-8" d="M223.95,237.09c-6.36,0-11.53-5.17-11.53-11.53s5.17-11.54,11.53-11.54,11.53,5.17,11.53,11.53-5.17,11.54-11.53,11.54Z"/>
          <path class="cls-14" d="M223.95,215.51c5.54,0,10.03,4.49,10.03,10.03h0c0,5.55-4.49,10.04-10.03,10.04h0c-5.54,0-10.03-4.49-10.03-10.03h0c0-5.55,4.49-10.04,10.03-10.04h0M223.95,212.51c-7.19,0-13.03,5.85-13.03,13.03s5.85,13.04,13.03,13.04,13.03-5.85,13.03-13.03-5.85-13.04-13.03-13.04h0Z"/>
        </g>
      </g>
      <g id="Green_Button" data-name="Green Button">
        <g id="Down-3" data-name="Down">
          <path class="cls-15" d="M138.64,179.98c-23.73,0-42.31-13.83-42.31-31.48s18.58-31.48,42.31-31.48,42.31,13.83,42.31,31.48-18.59,31.48-42.31,31.48Z"/>
          <path class="cls-5" d="M170.83,147.39c0,11.84-14.45,21.44-32.27,21.44s-32.27-9.6-32.27-21.44c0-8.74.25-8.47.25-8.47h64.43s-.15.99-.15,8.47Z"/>
          <ellipse class="cls-1" cx="138.64" cy="140.02" rx="32.27" ry="21.44"/>
        </g>
        <g id="Up">
          <path class="cls-15" d="M138.64,179.98c-23.73,0-42.31-13.83-42.31-31.48s18.58-31.48,42.31-31.48,42.31,13.83,42.31,31.48-18.59,31.48-42.31,31.48Z"/>
          <path class="cls-5" d="M170.83,147.39c0,11.84-14.45,21.44-32.27,21.44s-32.27-9.6-32.27-21.44c0-8.74.25-20.68.25-20.68h64.43s-.15,13.21-.15,20.68Z"/>
          <ellipse class="cls-1" cx="138.64" cy="127.8" rx="32.27" ry="21.44"/>
        </g>
        <path class="cls-9" d="M213.44,156.78c-6.36,0-11.53-5.17-11.53-11.53s5.17-11.54,11.53-11.54,11.53,5.17,11.53,11.53-5.17,11.54-11.53,11.54Z"/>
        <path class="cls-14" d="M213.44,135.21c5.54,0,10.03,4.49,10.03,10.03h0c0,5.55-4.49,10.04-10.03,10.04s-10.03-4.49-10.03-10.03h0c0-5.55,4.49-10.04,10.03-10.04M213.44,132.21c-7.19,0-13.03,5.85-13.03,13.03s5.85,13.04,13.03,13.04,13.03-5.85,13.03-13.03-5.85-13.04-13.03-13.04h0Z"/>
      </g>
      <text class="cls-13" transform="translate(44.27 25.83)"><tspan x="0" y="0">RESET LIGHTS</tspan></text>
    </g>
  </g>
</svg>