<?xml version="1.0" encoding="UTF-8"?>
<svg id="Layer_2" data-name="Layer 2" xmlns="http://www.w3.org/2000/svg" viewBox="0 0 243.39 50.51">
  <defs>
    <style>
      .cls-1 {
        fill: #d36b28;
      }

      .cls-2 {
        fill: #eebfc5;
      }

      .cls-3 {
        fill: #1f1f38;
      }

      .cls-4 {
        fill: #231f20;
      }

      .cls-4, .cls-5 {
        fill-rule: evenodd;
      }

      .cls-5 {
        fill: #f8aaa1;
      }
    </style>
  </defs>
  <g id="MainMenu">
    <g id="Reset_Laser" data-name="Reset Laser">
      <rect class="cls-2" x="96.06" y="-62.67" width="50.51" height="175.86" rx="6.92" ry="6.92" transform="translate(146.57 -96.06) rotate(90)"/>
      <path class="cls-5" d="M107.07,50.51h-4.24l-18.69-18.69c-3.62-3.62-3.62-9.52,0-13.14L102.83,0h4.24l-20.81,20.81c-1.19,1.19-1.84,2.77-1.84,4.45s.65,3.26,1.84,4.45l20.81,20.81ZM60.68,29.7c-2.45-2.45-2.45-6.44,0-8.89L81.49,0h-4.24l-18.69,18.69c-1.75,1.75-2.72,4.09-2.72,6.57s.97,4.81,2.72,6.57l18.69,18.69h4.24l-20.81-20.81ZM56.81,0h-4.24l-18.69,18.69c-.18.18-.33.36-.49.55v12.05c.16.19.32.37.49.55l18.69,18.69h4.24l-20.81-20.81c-2.45-2.45-2.45-6.44,0-8.89L56.81,0ZM136.05,50.51h4.24l18.69-18.69c3.62-3.62,3.62-9.52,0-13.14L140.29,0h-4.24l20.81,20.81c1.19,1.19,1.84,2.77,1.84,4.45s-.65,3.26-1.84,4.45l-20.81,20.81ZM184.57,31.83c3.62-3.62,3.62-9.51,0-13.14L165.88,0h-4.24l20.81,20.81c2.45,2.45,2.45,6.44,0,8.89l-20.81,20.81h4.24l18.69-18.69ZM209.24,31.83v-13.15L190.56,0h-4.24l20.81,20.81c2.45,2.45,2.45,6.44,0,8.89l-20.81,20.81h4.24l18.68-18.68Z"/>
      <rect class="cls-1" x="96.2" y=".14" width="50.23" height="50.23" rx="3.69" ry="3.69" transform="translate(146.57 -96.06) rotate(90)"/>
      <path class="cls-4" d="M13.03,36.79c-6.36,0-11.53-5.17-11.53-11.53s5.17-11.53,11.53-11.53,11.54,5.17,11.54,11.53-5.17,11.53-11.53,11.53h0Z"/>
      <path class="cls-3" d="M13.04,15.22c5.54,0,10.03,4.49,10.03,10.03s-4.49,10.03-10.03,10.03h0c-5.54,0-10.03-4.49-10.03-10.03s4.49-10.03,10.03-10.03h0M13.04,12.22h0C5.85,12.22,0,18.07,0,25.26s5.85,13.03,13.03,13.03,13.04-5.85,13.04-13.03-5.85-13.03-13.03-13.03h0Z"/>
      <path class="cls-4" d="M230.35,36.79c-6.36,0-11.53-5.17-11.53-11.53s5.17-11.53,11.53-11.53,11.54,5.17,11.54,11.53-5.17,11.53-11.53,11.53h0Z"/>
      <path class="cls-3" d="M230.36,15.22c5.54,0,10.03,4.49,10.03,10.03s-4.49,10.03-10.03,10.03h0c-5.54,0-10.03-4.49-10.03-10.03s4.49-10.03,10.03-10.03h0M230.36,12.22h0c-7.19,0-13.03,5.85-13.03,13.03s5.85,13.03,13.03,13.03,13.04-5.85,13.04-13.03-5.85-13.03-13.03-13.03h0Z"/>
    </g>
  </g>
</svg>